{"glyphs":{"0":{"ha":906,"x_min":82,"x_max":824,"o":"m 453 -4 q 647 56 564 -4 q 777 227 731 117 q 824 486 824 338 q 777 745 824 635 q 647 916 731 856 q 453 976 564 976 q 259 916 343 976 q 128 745 175 856 q 82 486 82 635 q 128 227 82 338 q 259 56 175 117 q 453 -4 343 -4 m 453 22 q 274 79 351 22 q 153 240 196 136 q 110 486 110 344 q 153 733 110 629 q 274 893 196 836 q 453 950 351 950 q 633 893 556 950 q 753 733 710 836 q 796 486 796 629 q 753 240 796 344 q 633 79 710 136 q 453 22 556 22 "},"1":{"ha":475,"x_min":14,"x_max":290,"o":"m 264 0 l 290 0 l 290 972 l 14 972 l 14 946 l 276 946 l 264 957 l 264 0 "},"2":{"ha":771,"x_min":39,"x_max":710,"o":"m 60 0 l 710 0 l 710 26 l 75 26 l 92 15 l 500 429 q 597 543 564 493 q 644 638 631 593 q 657 728 657 682 q 621 861 657 806 q 517 947 585 917 q 358 976 450 976 q 173 944 253 976 q 39 851 93 913 l 58 832 q 185 921 111 892 q 358 950 258 950 q 560 890 490 950 q 629 726 629 829 q 618 645 629 686 q 575 557 607 604 q 481 447 543 510 l 60 21 l 60 0 "},"3":{"ha":761,"x_min":26,"x_max":681,"o":"m 360 -4 q 535 30 464 -4 q 644 125 607 64 q 681 267 681 186 q 597 463 681 388 q 340 538 513 538 l 319 538 l 322 528 l 644 951 l 644 972 l 57 972 l 57 946 l 617 946 l 614 956 l 292 532 l 292 511 l 342 511 q 577 444 501 511 q 653 267 653 378 q 578 89 653 156 q 360 22 504 22 q 169 60 253 22 q 44 151 85 97 l 26 133 q 160 35 71 74 q 360 -4 250 -4 "},"4":{"ha":894,"x_min":64,"x_max":871,"o":"m 64 289 l 871 289 l 871 315 l 79 315 l 97 310 l 644 972 l 611 972 l 64 310 l 64 289 m 626 0 l 654 0 l 654 569 l 626 569 l 626 315 l 626 289 l 626 0 "},"5":{"ha":761,"x_min":44,"x_max":699,"o":"m 375 -4 q 555 32 483 -4 q 663 131 626 68 q 699 272 699 194 q 660 421 699 358 q 533 517 621 483 q 294 551 444 551 l 125 551 l 133 538 l 182 957 l 172 946 l 650 946 l 650 972 l 157 972 l 106 525 l 289 525 q 517 495 433 525 q 635 408 600 465 q 671 272 671 351 q 598 93 671 164 q 375 22 525 22 q 186 60 269 22 q 63 151 103 97 l 44 133 q 178 35 89 74 q 375 -4 268 -4 "},"6":{"ha":822,"x_min":82,"x_max":771,"o":"m 461 -4 q 622 31 551 -4 q 731 131 692 67 q 771 281 771 194 q 731 431 771 367 q 620 529 692 494 q 451 564 549 564 q 289 529 363 564 q 172 428 215 494 q 125 271 128 363 l 136 292 q 115 399 119 344 q 110 489 110 454 q 215 835 110 719 q 496 950 321 950 q 603 940 553 950 q 689 907 653 931 l 703 931 q 607 967 660 957 q 496 976 554 976 q 279 922 372 976 q 134 758 186 867 q 82 486 82 650 q 124 226 82 336 q 251 56 167 115 q 461 -4 335 -4 m 461 22 q 291 60 360 22 q 188 158 222 99 q 153 278 153 217 q 190 409 153 350 q 295 503 228 468 q 451 538 363 538 q 665 467 588 538 q 743 281 743 397 q 707 144 743 203 q 608 54 671 86 q 461 22 544 22 "},"7":{"ha":792,"x_min":50,"x_max":725,"o":"m 258 0 l 290 0 l 725 951 l 725 972 l 50 972 l 50 750 l 78 750 l 78 957 l 65 946 l 713 946 l 696 956 l 258 0 "},"8":{"ha":867,"x_min":76,"x_max":790,"o":"m 432 -4 q 625 28 544 -4 q 748 119 706 60 q 790 261 790 179 q 747 398 790 340 q 624 486 704 456 q 432 517 544 517 q 240 486 319 517 q 119 398 161 456 q 76 261 76 340 q 119 119 76 179 q 240 28 161 60 q 432 -4 319 -4 m 432 22 q 190 86 276 22 q 104 260 104 150 q 190 431 104 367 q 432 494 276 494 q 676 431 589 494 q 763 260 763 367 q 676 86 763 150 q 432 22 589 22 m 432 499 q 607 527 535 499 q 717 608 679 556 q 756 733 756 661 q 715 863 756 808 q 603 947 675 918 q 432 976 531 976 q 263 947 335 976 q 151 863 190 918 q 111 733 111 808 q 149 608 111 661 q 258 527 186 556 q 432 499 329 499 m 432 521 q 216 579 293 521 q 139 735 139 638 q 218 892 139 833 q 432 950 297 950 q 648 892 568 950 q 728 733 728 833 q 650 578 728 636 q 432 521 572 521 "},"9":{"ha":822,"x_min":51,"x_max":740,"o":"m 361 976 q 201 941 271 976 q 91 842 131 906 q 51 692 51 778 q 91 542 51 606 q 202 443 131 478 q 371 408 274 408 q 534 444 461 408 q 651 544 607 479 q 697 701 694 610 l 686 681 q 708 574 703 628 q 713 483 713 519 q 607 138 713 253 q 326 22 501 22 q 220 33 271 22 q 133 65 169 43 l 119 42 q 215 6 163 15 q 326 -4 268 -4 q 543 51 450 -4 q 688 215 636 106 q 740 486 740 324 q 698 747 740 638 q 572 917 656 857 q 361 976 488 976 m 361 950 q 532 912 464 950 q 635 815 600 874 q 669 694 669 756 q 632 563 669 622 q 527 469 594 504 q 371 435 460 435 q 158 505 236 435 q 79 692 79 575 q 115 828 79 769 q 215 918 151 886 q 361 950 278 950 "},"A":{"ha":956,"x_min":13,"x_max":943,"o":"m 13 0 l 44 0 l 485 950 l 471 950 l 911 0 l 943 0 l 492 972 l 464 972 l 13 0 m 161 293 l 793 293 l 779 319 l 175 319 l 161 293 "},"Á":{"ha":956,"x_min":13,"x_max":943,"o":"m 13 0 l 44 0 l 485 950 l 471 950 l 911 0 l 943 0 l 492 972 l 464 972 l 13 0 m 161 293 l 793 293 l 779 319 l 175 319 l 161 293 "},"Ă":{"ha":956,"x_min":13,"x_max":943,"o":"m 13 0 l 44 0 l 485 950 l 471 950 l 911 0 l 943 0 l 492 972 l 464 972 l 13 0 m 161 293 l 793 293 l 779 319 l 175 319 l 161 293 "},"Ắ":{"ha":956,"x_min":13,"x_max":943,"o":"m 13 0 l 44 0 l 485 950 l 471 950 l 911 0 l 943 0 l 492 972 l 464 972 l 13 0 m 161 293 l 793 293 l 779 319 l 175 319 l 161 293 "},"Ặ":{"ha":956,"x_min":13,"x_max":943,"o":"m 13 0 l 44 0 l 485 950 l 471 950 l 911 0 l 943 0 l 492 972 l 464 972 l 13 0 m 161 293 l 793 293 l 779 319 l 175 319 l 161 293 m 478 -244 q 503 -233 493 -244 q 514 -208 514 -222 q 503 -183 514 -193 q 478 -172 493 -172 q 453 -183 464 -172 q 442 -208 442 -193 q 453 -233 442 -222 q 478 -244 464 -244 "},"Ằ":{"ha":956,"x_min":13,"x_max":943,"o":"m 13 0 l 44 0 l 485 950 l 471 950 l 911 0 l 943 0 l 492 972 l 464 972 l 13 0 m 161 293 l 793 293 l 779 319 l 175 319 l 161 293 "},"Ẳ":{"ha":956,"x_min":13,"x_max":943,"o":"m 13 0 l 44 0 l 485 950 l 471 950 l 911 0 l 943 0 l 492 972 l 464 972 l 13 0 m 161 293 l 793 293 l 779 319 l 175 319 l 161 293 "},"Ẵ":{"ha":956,"x_min":13,"x_max":943,"o":"m 13 0 l 44 0 l 485 950 l 471 950 l 911 0 l 943 0 l 492 972 l 464 972 l 13 0 m 161 293 l 793 293 l 779 319 l 175 319 l 161 293 "},"Ǎ":{"ha":956,"x_min":13,"x_max":943,"o":"m 13 0 l 44 0 l 485 950 l 471 950 l 911 0 l 943 0 l 492 972 l 464 972 l 13 0 m 161 293 l 793 293 l 779 319 l 175 319 l 161 293 "},"Â":{"ha":956,"x_min":13,"x_max":943,"o":"m 13 0 l 44 0 l 485 950 l 471 950 l 911 0 l 943 0 l 492 972 l 464 972 l 13 0 m 161 293 l 793 293 l 779 319 l 175 319 l 161 293 "},"Ấ":{"ha":956,"x_min":13,"x_max":943,"o":"m 13 0 l 44 0 l 485 950 l 471 950 l 911 0 l 943 0 l 492 972 l 464 972 l 13 0 m 161 293 l 793 293 l 779 319 l 175 319 l 161 293 "},"Ậ":{"ha":956,"x_min":13,"x_max":943,"o":"m 13 0 l 44 0 l 485 950 l 471 950 l 911 0 l 943 0 l 492 972 l 464 972 l 13 0 m 161 293 l 793 293 l 779 319 l 175 319 l 161 293 m 478 -244 q 503 -233 493 -244 q 514 -208 514 -222 q 503 -183 514 -193 q 478 -172 493 -172 q 453 -183 464 -172 q 442 -208 442 -193 q 453 -233 442 -222 q 478 -244 464 -244 "},"Ầ":{"ha":956,"x_min":13,"x_max":943,"o":"m 13 0 l 44 0 l 485 950 l 471 950 l 911 0 l 943 0 l 492 972 l 464 972 l 13 0 m 161 293 l 793 293 l 779 319 l 175 319 l 161 293 "},"Ẩ":{"ha":956,"x_min":13,"x_max":943,"o":"m 13 0 l 44 0 l 485 950 l 471 950 l 911 0 l 943 0 l 492 972 l 464 972 l 13 0 m 161 293 l 793 293 l 779 319 l 175 319 l 161 293 "},"Ẫ":{"ha":956,"x_min":13,"x_max":943,"o":"m 13 0 l 44 0 l 485 950 l 471 950 l 911 0 l 943 0 l 492 972 l 464 972 l 13 0 m 161 293 l 793 293 l 779 319 l 175 319 l 161 293 "},"Ȁ":{"ha":956,"x_min":13,"x_max":943,"o":"m 13 0 l 44 0 l 485 950 l 471 950 l 911 0 l 943 0 l 492 972 l 464 972 l 13 0 m 161 293 l 793 293 l 779 319 l 175 319 l 161 293 "},"Ä":{"ha":956,"x_min":13,"x_max":943,"o":"m 13 0 l 44 0 l 485 950 l 471 950 l 911 0 l 943 0 l 492 972 l 464 972 l 13 0 m 161 293 l 793 293 l 779 319 l 175 319 l 161 293 "},"Ạ":{"ha":956,"x_min":13,"x_max":943,"o":"m 13 0 l 44 0 l 485 950 l 471 950 l 911 0 l 943 0 l 492 972 l 464 972 l 13 0 m 161 293 l 793 293 l 779 319 l 175 319 l 161 293 m 478 -244 q 503 -233 493 -244 q 514 -208 514 -222 q 503 -183 514 -193 q 478 -172 493 -172 q 453 -183 464 -172 q 442 -208 442 -193 q 453 -233 442 -222 q 478 -244 464 -244 "},"À":{"ha":956,"x_min":13,"x_max":943,"o":"m 13 0 l 44 0 l 485 950 l 471 950 l 911 0 l 943 0 l 492 972 l 464 972 l 13 0 m 161 293 l 793 293 l 779 319 l 175 319 l 161 293 "},"Ả":{"ha":956,"x_min":13,"x_max":943,"o":"m 13 0 l 44 0 l 485 950 l 471 950 l 911 0 l 943 0 l 492 972 l 464 972 l 13 0 m 161 293 l 793 293 l 779 319 l 175 319 l 161 293 "},"Ȃ":{"ha":956,"x_min":13,"x_max":943,"o":"m 13 0 l 44 0 l 485 950 l 471 950 l 911 0 l 943 0 l 492 972 l 464 972 l 13 0 m 161 293 l 793 293 l 779 319 l 175 319 l 161 293 "},"Ā":{"ha":956,"x_min":13,"x_max":943,"o":"m 13 0 l 44 0 l 485 950 l 471 950 l 911 0 l 943 0 l 492 972 l 464 972 l 13 0 m 161 293 l 793 293 l 779 319 l 175 319 l 161 293 "},"Ą":{"ha":956,"x_min":13,"x_max":968,"o":"m 13 0 l 44 0 l 485 950 l 471 950 l 911 0 l 943 0 l 492 972 l 464 972 l 13 0 m 161 293 l 793 293 l 779 319 l 175 319 l 161 293 m 865 -296 q 920 -287 894 -296 q 968 -258 946 -278 l 953 -237 q 913 -261 936 -253 q 867 -269 890 -269 q 795 -247 824 -269 q 767 -181 767 -225 q 779 -126 767 -156 q 829 -65 792 -97 q 943 0 867 -32 l 929 22 q 809 -49 850 -12 q 753 -118 768 -85 q 739 -181 739 -151 q 775 -265 739 -235 q 865 -296 811 -296 "},"Å":{"ha":956,"x_min":13,"x_max":943,"o":"m 13 0 l 44 0 l 485 950 l 471 950 l 911 0 l 943 0 l 492 972 l 464 972 l 13 0 m 161 293 l 793 293 l 779 319 l 175 319 l 161 293 m 476 1083 q 543 1101 514 1083 q 589 1147 572 1118 q 606 1208 606 1175 q 589 1272 606 1243 q 543 1319 572 1301 q 476 1338 514 1338 q 411 1319 440 1338 q 365 1272 382 1301 q 349 1208 349 1243 q 365 1147 349 1175 q 410 1101 382 1118 q 476 1083 439 1083 m 476 1110 q 404 1138 432 1110 q 376 1208 376 1167 q 405 1281 376 1251 q 476 1311 433 1311 q 549 1281 521 1311 q 578 1208 578 1250 q 549 1139 578 1168 q 476 1110 521 1110 "},"Ǻ":{"ha":956,"x_min":13,"x_max":943,"o":"m 13 0 l 44 0 l 485 950 l 471 950 l 911 0 l 943 0 l 492 972 l 464 972 l 13 0 m 161 293 l 793 293 l 779 319 l 175 319 l 161 293 m 476 1083 q 543 1101 514 1083 q 589 1147 572 1118 q 606 1208 606 1175 q 589 1272 606 1243 q 543 1319 572 1301 q 476 1338 514 1338 q 411 1319 440 1338 q 365 1272 382 1301 q 349 1208 349 1243 q 365 1147 349 1175 q 410 1101 382 1118 q 476 1083 439 1083 m 476 1110 q 404 1138 432 1110 q 376 1208 376 1167 q 405 1281 376 1251 q 476 1311 433 1311 q 549 1281 521 1311 q 578 1208 578 1250 q 549 1139 578 1168 q 476 1110 521 1110 m 571 1289 l 689 1400 l 665 1418 l 542 1301 l 571 1289 "},"Ã":{"ha":956,"x_min":13,"x_max":943,"o":"m 13 0 l 44 0 l 485 950 l 471 950 l 911 0 l 943 0 l 492 972 l 464 972 l 13 0 m 161 293 l 793 293 l 779 319 l 175 319 l 161 293 "},"Æ":{"ha":1396,"x_min":13,"x_max":1300,"o":"m 13 0 l 44 0 l 649 951 l 629 946 l 660 946 l 660 972 l 631 972 l 13 0 m 213 293 l 660 293 l 660 319 l 226 319 l 213 293 m 674 507 l 674 481 l 1217 481 l 1217 507 l 674 507 m 681 26 l 681 946 l 1279 946 l 1279 972 l 653 972 l 653 0 l 1300 0 l 1300 26 l 681 26 "},"Ǽ":{"ha":1396,"x_min":13,"x_max":1300,"o":"m 13 0 l 44 0 l 649 951 l 629 946 l 660 946 l 660 972 l 631 972 l 13 0 m 213 293 l 660 293 l 660 319 l 226 319 l 213 293 m 674 507 l 674 481 l 1217 481 l 1217 507 l 674 507 m 681 26 l 681 946 l 1279 946 l 1279 972 l 653 972 l 653 0 l 1300 0 l 1300 26 l 681 26 "},"B":{"ha":1039,"x_min":185,"x_max":949,"o":"m 185 0 l 597 0 q 862 66 775 0 q 949 254 949 132 q 911 392 949 336 q 799 476 874 447 q 613 504 725 504 l 589 486 q 749 513 679 486 q 857 592 818 539 q 896 726 896 646 q 808 910 896 849 q 569 972 719 972 l 185 972 l 185 0 m 213 26 l 213 946 l 575 946 q 791 890 714 946 q 868 726 868 835 q 791 563 868 618 q 575 507 714 507 l 206 507 l 206 481 l 603 481 q 840 426 758 481 q 921 254 921 372 q 840 81 921 136 q 603 26 758 26 l 213 26 "},"C":{"ha":988,"x_min":82,"x_max":911,"o":"m 581 -4 q 763 27 676 -4 q 911 121 849 58 l 894 140 q 749 49 828 76 q 581 22 669 22 q 394 58 481 22 q 244 156 308 93 q 145 303 181 219 q 110 486 110 388 q 145 669 110 585 q 244 816 181 753 q 394 915 308 879 q 581 950 481 950 q 749 924 669 950 q 894 833 828 897 l 911 853 q 763 946 849 915 q 581 976 676 976 q 383 940 474 976 q 224 836 292 903 q 119 681 157 769 q 82 486 82 592 q 119 292 82 381 q 224 136 157 203 q 383 33 292 69 q 581 -4 474 -4 "},"Ć":{"ha":988,"x_min":82,"x_max":911,"o":"m 581 -4 q 763 27 676 -4 q 911 121 849 58 l 894 140 q 749 49 828 76 q 581 22 669 22 q 394 58 481 22 q 244 156 308 93 q 145 303 181 219 q 110 486 110 388 q 145 669 110 585 q 244 816 181 753 q 394 915 308 879 q 581 950 481 950 q 749 924 669 950 q 894 833 828 897 l 911 853 q 763 946 849 915 q 581 976 676 976 q 383 940 474 976 q 224 836 292 903 q 119 681 157 769 q 82 486 82 592 q 119 292 82 381 q 224 136 157 203 q 383 33 292 69 q 581 -4 474 -4 "},"Č":{"ha":988,"x_min":82,"x_max":911,"o":"m 581 -4 q 763 27 676 -4 q 911 121 849 58 l 894 140 q 749 49 828 76 q 581 22 669 22 q 394 58 481 22 q 244 156 308 93 q 145 303 181 219 q 110 486 110 388 q 145 669 110 585 q 244 816 181 753 q 394 915 308 879 q 581 950 481 950 q 749 924 669 950 q 894 833 828 897 l 911 853 q 763 946 849 915 q 581 976 676 976 q 383 940 474 976 q 224 836 292 903 q 119 681 157 769 q 82 486 82 592 q 119 292 82 381 q 224 136 157 203 q 383 33 292 69 q 581 -4 474 -4 "},"Ç":{"ha":988,"x_min":82,"x_max":911,"o":"m 581 -4 q 763 27 676 -4 q 911 121 849 58 l 894 140 q 749 49 828 76 q 581 22 669 22 q 394 58 481 22 q 244 156 308 93 q 145 303 181 219 q 110 486 110 388 q 145 669 110 585 q 244 816 181 753 q 394 915 308 879 q 581 950 481 950 q 749 924 669 950 q 894 833 828 897 l 911 853 q 763 946 849 915 q 581 976 676 976 q 383 940 474 976 q 224 836 292 903 q 119 681 157 769 q 82 486 82 592 q 119 292 82 381 q 224 136 157 203 q 383 33 292 69 q 581 -4 474 -4 m 544 -296 q 635 -266 599 -296 q 671 -186 671 -236 q 640 -110 671 -139 q 556 -78 608 -81 l 579 7 l 553 7 l 522 -103 l 544 -103 q 617 -126 592 -103 q 643 -186 643 -150 q 615 -248 643 -226 q 543 -269 586 -269 q 497 -261 519 -269 q 457 -237 474 -253 l 442 -258 q 490 -287 465 -278 q 544 -296 515 -296 "},"Ḉ":{"ha":988,"x_min":82,"x_max":911,"o":"m 581 -4 q 763 27 676 -4 q 911 121 849 58 l 894 140 q 749 49 828 76 q 581 22 669 22 q 394 58 481 22 q 244 156 308 93 q 145 303 181 219 q 110 486 110 388 q 145 669 110 585 q 244 816 181 753 q 394 915 308 879 q 581 950 481 950 q 749 924 669 950 q 894 833 828 897 l 911 853 q 763 946 849 915 q 581 976 676 976 q 383 940 474 976 q 224 836 292 903 q 119 681 157 769 q 82 486 82 592 q 119 292 82 381 q 224 136 157 203 q 383 33 292 69 q 581 -4 474 -4 m 544 -296 q 635 -266 599 -296 q 671 -186 671 -236 q 640 -110 671 -139 q 556 -78 608 -81 l 579 7 l 553 7 l 522 -103 l 544 -103 q 617 -126 592 -103 q 643 -186 643 -150 q 615 -248 643 -226 q 543 -269 586 -269 q 497 -261 519 -269 q 457 -237 474 -253 l 442 -258 q 490 -287 465 -278 q 544 -296 515 -296 "},"Ĉ":{"ha":988,"x_min":82,"x_max":911,"o":"m 581 -4 q 763 27 676 -4 q 911 121 849 58 l 894 140 q 749 49 828 76 q 581 22 669 22 q 394 58 481 22 q 244 156 308 93 q 145 303 181 219 q 110 486 110 388 q 145 669 110 585 q 244 816 181 753 q 394 915 308 879 q 581 950 481 950 q 749 924 669 950 q 894 833 828 897 l 911 853 q 763 946 849 915 q 581 976 676 976 q 383 940 474 976 q 224 836 292 903 q 119 681 157 769 q 82 486 82 592 q 119 292 82 381 q 224 136 157 203 q 383 33 292 69 q 581 -4 474 -4 "},"Ċ":{"ha":988,"x_min":82,"x_max":911,"o":"m 581 -4 q 763 27 676 -4 q 911 121 849 58 l 894 140 q 749 49 828 76 q 581 22 669 22 q 394 58 481 22 q 244 156 308 93 q 145 303 181 219 q 110 486 110 388 q 145 669 110 585 q 244 816 181 753 q 394 915 308 879 q 581 950 481 950 q 749 924 669 950 q 894 833 828 897 l 911 853 q 763 946 849 915 q 581 976 676 976 q 383 940 474 976 q 224 836 292 903 q 119 681 157 769 q 82 486 82 592 q 119 292 82 381 q 224 136 157 203 q 383 33 292 69 q 581 -4 474 -4 "},"D":{"ha":1147,"x_min":185,"x_max":1065,"o":"m 185 0 l 553 0 q 822 63 707 0 q 1001 236 938 126 q 1065 486 1065 346 q 1001 736 1065 626 q 822 909 938 846 q 553 972 707 972 l 185 972 l 185 0 m 213 26 l 213 946 l 550 946 q 808 886 699 946 q 978 723 918 826 q 1038 486 1038 619 q 978 249 1038 353 q 808 86 918 146 q 550 26 699 26 l 213 26 "},"Ǆ":{"ha":2029,"x_min":185,"x_max":1960,"o":"m 185 0 l 553 0 q 822 63 707 0 q 1001 236 938 126 q 1065 486 1065 346 q 1001 736 1065 626 q 822 909 938 846 q 553 972 707 972 l 185 972 l 185 0 m 213 26 l 213 946 l 550 946 q 808 886 699 946 q 978 723 918 826 q 1038 486 1038 619 q 978 249 1038 353 q 808 86 918 146 q 550 26 699 26 l 213 26 "},"Ð":{"ha":1147,"x_min":28,"x_max":1065,"o":"m 185 0 l 553 0 q 822 63 707 0 q 1001 236 938 126 q 1065 486 1065 346 q 1001 736 1065 626 q 822 909 938 846 q 553 972 707 972 l 185 972 l 185 0 m 213 26 l 213 946 l 550 946 q 808 886 699 946 q 978 723 918 826 q 1038 486 1038 619 q 978 249 1038 353 q 808 86 918 146 q 550 26 699 26 l 213 26 m 28 481 l 528 481 l 528 507 l 28 507 l 28 481 "},"Ď":{"ha":1147,"x_min":185,"x_max":1065,"o":"m 185 0 l 553 0 q 822 63 707 0 q 1001 236 938 126 q 1065 486 1065 346 q 1001 736 1065 626 q 822 909 938 846 q 553 972 707 972 l 185 972 l 185 0 m 213 26 l 213 946 l 550 946 q 808 886 699 946 q 978 723 918 826 q 1038 486 1038 619 q 978 249 1038 353 q 808 86 918 146 q 550 26 699 26 l 213 26 "},"Đ":{"ha":1147,"x_min":28,"x_max":1065,"o":"m 185 0 l 553 0 q 822 63 707 0 q 1001 236 938 126 q 1065 486 1065 346 q 1001 736 1065 626 q 822 909 938 846 q 553 972 707 972 l 185 972 l 185 0 m 213 26 l 213 946 l 550 946 q 808 886 699 946 q 978 723 918 826 q 1038 486 1038 619 q 978 249 1038 353 q 808 86 918 146 q 550 26 699 26 l 213 26 m 28 481 l 528 481 l 528 507 l 28 507 l 28 481 "},"Ḍ":{"ha":1147,"x_min":185,"x_max":1065,"o":"m 185 0 l 553 0 q 822 63 707 0 q 1001 236 938 126 q 1065 486 1065 346 q 1001 736 1065 626 q 822 909 938 846 q 553 972 707 972 l 185 972 l 185 0 m 213 26 l 213 946 l 550 946 q 808 886 699 946 q 978 723 918 826 q 1038 486 1038 619 q 978 249 1038 353 q 808 86 918 146 q 550 26 699 26 l 213 26 m 550 -244 q 576 -233 565 -244 q 586 -208 586 -222 q 576 -183 586 -193 q 550 -172 565 -172 q 525 -183 536 -172 q 514 -208 514 -193 q 525 -233 514 -222 q 550 -244 536 -244 "},"Ḏ":{"ha":1147,"x_min":185,"x_max":1065,"o":"m 185 0 l 553 0 q 822 63 707 0 q 1001 236 938 126 q 1065 486 1065 346 q 1001 736 1065 626 q 822 909 938 846 q 553 972 707 972 l 185 972 l 185 0 m 213 26 l 213 946 l 550 946 q 808 886 699 946 q 978 723 918 826 q 1038 486 1038 619 q 978 249 1038 353 q 808 86 918 146 q 550 26 699 26 l 213 26 m 361 -222 l 739 -222 l 739 -194 l 361 -194 l 361 -222 "},"ǅ":{"ha":1829,"x_min":185,"x_max":1763,"o":"m 185 0 l 553 0 q 822 63 707 0 q 1001 236 938 126 q 1065 486 1065 346 q 1001 736 1065 626 q 822 909 938 846 q 553 972 707 972 l 185 972 l 185 0 m 213 26 l 213 946 l 550 946 q 808 886 699 946 q 978 723 918 826 q 1038 486 1038 619 q 978 249 1038 353 q 808 86 918 146 q 550 26 699 26 l 213 26 "},"E":{"ha":928,"x_min":185,"x_max":832,"o":"m 206 507 l 206 481 l 749 481 l 749 507 l 206 507 m 213 26 l 213 946 l 811 946 l 811 972 l 185 972 l 185 0 l 832 0 l 832 26 l 213 26 "},"É":{"ha":928,"x_min":185,"x_max":832,"o":"m 206 507 l 206 481 l 749 481 l 749 507 l 206 507 m 213 26 l 213 946 l 811 946 l 811 972 l 185 972 l 185 0 l 832 0 l 832 26 l 213 26 "},"Ĕ":{"ha":928,"x_min":185,"x_max":832,"o":"m 206 507 l 206 481 l 749 481 l 749 507 l 206 507 m 213 26 l 213 946 l 811 946 l 811 972 l 185 972 l 185 0 l 832 0 l 832 26 l 213 26 "},"Ě":{"ha":928,"x_min":185,"x_max":832,"o":"m 206 507 l 206 481 l 749 481 l 749 507 l 206 507 m 213 26 l 213 946 l 811 946 l 811 972 l 185 972 l 185 0 l 832 0 l 832 26 l 213 26 "},"Ḝ":{"ha":928,"x_min":185,"x_max":832,"o":"m 206 507 l 206 481 l 749 481 l 749 507 l 206 507 m 213 26 l 213 946 l 811 946 l 811 972 l 185 972 l 185 0 l 832 0 l 832 26 l 213 26 m 500 -296 q 590 -266 554 -296 q 626 -186 626 -236 q 595 -110 626 -139 q 511 -78 564 -81 l 535 7 l 508 7 l 478 -103 l 500 -103 q 573 -126 547 -103 q 599 -186 599 -150 q 570 -248 599 -226 q 499 -269 542 -269 q 452 -261 475 -269 q 413 -237 429 -253 l 397 -258 q 446 -287 421 -278 q 500 -296 471 -296 "},"Ê":{"ha":928,"x_min":185,"x_max":832,"o":"m 206 507 l 206 481 l 749 481 l 749 507 l 206 507 m 213 26 l 213 946 l 811 946 l 811 972 l 185 972 l 185 0 l 832 0 l 832 26 l 213 26 "},"Ế":{"ha":928,"x_min":185,"x_max":835,"o":"m 206 507 l 206 481 l 749 481 l 749 507 l 206 507 m 213 26 l 213 946 l 811 946 l 811 972 l 185 972 l 185 0 l 832 0 l 832 26 l 213 26 "},"Ệ":{"ha":928,"x_min":185,"x_max":832,"o":"m 206 507 l 206 481 l 749 481 l 749 507 l 206 507 m 213 26 l 213 946 l 811 946 l 811 972 l 185 972 l 185 0 l 832 0 l 832 26 l 213 26 m 522 -244 q 548 -233 538 -244 q 558 -208 558 -222 q 548 -183 558 -193 q 522 -172 538 -172 q 497 -183 508 -172 q 486 -208 486 -193 q 497 -233 486 -222 q 522 -244 508 -244 "},"Ề":{"ha":928,"x_min":185,"x_max":832,"o":"m 206 507 l 206 481 l 749 481 l 749 507 l 206 507 m 213 26 l 213 946 l 811 946 l 811 972 l 185 972 l 185 0 l 832 0 l 832 26 l 213 26 "},"Ể":{"ha":928,"x_min":185,"x_max":832,"o":"m 206 507 l 206 481 l 749 481 l 749 507 l 206 507 m 213 26 l 213 946 l 811 946 l 811 972 l 185 972 l 185 0 l 832 0 l 832 26 l 213 26 "},"Ễ":{"ha":928,"x_min":185,"x_max":832,"o":"m 206 507 l 206 481 l 749 481 l 749 507 l 206 507 m 213 26 l 213 946 l 811 946 l 811 972 l 185 972 l 185 0 l 832 0 l 832 26 l 213 26 "},"Ȅ":{"ha":928,"x_min":185,"x_max":832,"o":"m 206 507 l 206 481 l 749 481 l 749 507 l 206 507 m 213 26 l 213 946 l 811 946 l 811 972 l 185 972 l 185 0 l 832 0 l 832 26 l 213 26 "},"Ë":{"ha":928,"x_min":185,"x_max":832,"o":"m 206 507 l 206 481 l 749 481 l 749 507 l 206 507 m 213 26 l 213 946 l 811 946 l 811 972 l 185 972 l 185 0 l 832 0 l 832 26 l 213 26 "},"Ė":{"ha":928,"x_min":185,"x_max":832,"o":"m 206 507 l 206 481 l 749 481 l 749 507 l 206 507 m 213 26 l 213 946 l 811 946 l 811 972 l 185 972 l 185 0 l 832 0 l 832 26 l 213 26 "},"Ẹ":{"ha":928,"x_min":185,"x_max":832,"o":"m 206 507 l 206 481 l 749 481 l 749 507 l 206 507 m 213 26 l 213 946 l 811 946 l 811 972 l 185 972 l 185 0 l 832 0 l 832 26 l 213 26 m 522 -244 q 548 -233 538 -244 q 558 -208 558 -222 q 548 -183 558 -193 q 522 -172 538 -172 q 497 -183 508 -172 q 486 -208 486 -193 q 497 -233 486 -222 q 522 -244 508 -244 "},"È":{"ha":928,"x_min":185,"x_max":832,"o":"m 206 507 l 206 481 l 749 481 l 749 507 l 206 507 m 213 26 l 213 946 l 811 946 l 811 972 l 185 972 l 185 0 l 832 0 l 832 26 l 213 26 "},"Ẻ":{"ha":928,"x_min":185,"x_max":832,"o":"m 206 507 l 206 481 l 749 481 l 749 507 l 206 507 m 213 26 l 213 946 l 811 946 l 811 972 l 185 972 l 185 0 l 832 0 l 832 26 l 213 26 "},"Ȇ":{"ha":928,"x_min":185,"x_max":832,"o":"m 206 507 l 206 481 l 749 481 l 749 507 l 206 507 m 213 26 l 213 946 l 811 946 l 811 972 l 185 972 l 185 0 l 832 0 l 832 26 l 213 26 "},"Ē":{"ha":928,"x_min":185,"x_max":832,"o":"m 206 507 l 206 481 l 749 481 l 749 507 l 206 507 m 213 26 l 213 946 l 811 946 l 811 972 l 185 972 l 185 0 l 832 0 l 832 26 l 213 26 "},"Ḗ":{"ha":928,"x_min":185,"x_max":832,"o":"m 206 507 l 206 481 l 749 481 l 749 507 l 206 507 m 213 26 l 213 946 l 811 946 l 811 972 l 185 972 l 185 0 l 832 0 l 832 26 l 213 26 "},"Ḕ":{"ha":928,"x_min":185,"x_max":832,"o":"m 206 507 l 206 481 l 749 481 l 749 507 l 206 507 m 213 26 l 213 946 l 811 946 l 811 972 l 185 972 l 185 0 l 832 0 l 832 26 l 213 26 "},"Ę":{"ha":928,"x_min":185,"x_max":857,"o":"m 206 507 l 206 481 l 749 481 l 749 507 l 206 507 m 213 26 l 213 946 l 811 946 l 811 972 l 185 972 l 185 0 l 832 0 l 832 26 l 213 26 m 754 -296 q 809 -287 783 -296 q 857 -258 835 -278 l 842 -237 q 802 -261 825 -253 q 756 -269 779 -269 q 684 -247 713 -269 q 656 -181 656 -225 q 668 -126 656 -156 q 718 -65 681 -97 q 832 0 756 -32 l 818 22 q 698 -49 739 -12 q 642 -118 657 -85 q 628 -181 628 -151 q 664 -265 628 -235 q 754 -296 700 -296 "},"Ẽ":{"ha":928,"x_min":185,"x_max":832,"o":"m 206 507 l 206 481 l 749 481 l 749 507 l 206 507 m 213 26 l 213 946 l 811 946 l 811 972 l 185 972 l 185 0 l 832 0 l 832 26 l 213 26 "},"Ʒ":{"ha":832,"x_min":47,"x_max":740,"o":"m 401 -4 q 587 30 511 -4 q 701 125 663 64 q 740 267 740 186 q 701 408 740 347 q 581 503 661 469 q 379 538 501 538 l 357 538 l 360 528 l 701 951 l 701 972 l 79 972 l 79 946 l 674 946 l 671 956 l 329 532 l 329 511 l 381 511 q 631 444 550 511 q 713 267 713 378 q 633 89 713 156 q 403 22 554 22 q 198 60 286 22 q 65 151 110 97 l 47 133 q 188 35 93 74 q 401 -4 283 -4 "},"Ǯ":{"ha":832,"x_min":47,"x_max":740,"o":"m 401 -4 q 587 30 511 -4 q 701 125 663 64 q 740 267 740 186 q 701 408 740 347 q 581 503 661 469 q 379 538 501 538 l 357 538 l 360 528 l 701 951 l 701 972 l 79 972 l 79 946 l 674 946 l 671 956 l 329 532 l 329 511 l 381 511 q 631 444 550 511 q 713 267 713 378 q 633 89 713 156 q 403 22 554 22 q 198 60 286 22 q 65 151 110 97 l 47 133 q 188 35 93 74 q 401 -4 283 -4 "},"F":{"ha":874,"x_min":185,"x_max":811,"o":"m 206 479 l 206 453 l 749 453 l 749 479 l 206 479 m 213 0 l 213 946 l 811 946 l 811 972 l 185 972 l 185 0 l 213 0 "},"G":{"ha":1075,"x_min":82,"x_max":919,"o":"m 585 -4 q 770 27 683 -4 q 919 121 857 58 l 903 142 q 758 50 839 78 q 585 22 676 22 q 397 58 483 22 q 245 156 310 93 q 145 303 181 219 q 110 486 110 388 q 145 669 110 585 q 245 816 181 753 q 397 915 310 879 q 585 950 483 950 q 756 924 676 950 q 903 833 836 897 l 919 853 q 770 946 857 915 q 585 976 683 976 q 385 940 476 976 q 225 836 293 903 q 119 681 157 769 q 82 486 82 592 q 119 292 82 381 q 225 136 157 203 q 385 33 293 69 q 585 -4 476 -4 m 893 121 l 919 121 l 919 476 l 893 476 l 893 121 "},"Ğ":{"ha":1075,"x_min":82,"x_max":919,"o":"m 585 -4 q 770 27 683 -4 q 919 121 857 58 l 903 142 q 758 50 839 78 q 585 22 676 22 q 397 58 483 22 q 245 156 310 93 q 145 303 181 219 q 110 486 110 388 q 145 669 110 585 q 245 816 181 753 q 397 915 310 879 q 585 950 483 950 q 756 924 676 950 q 903 833 836 897 l 919 853 q 770 946 857 915 q 585 976 683 976 q 385 940 476 976 q 225 836 293 903 q 119 681 157 769 q 82 486 82 592 q 119 292 82 381 q 225 136 157 203 q 385 33 293 69 q 585 -4 476 -4 m 893 121 l 919 121 l 919 476 l 893 476 l 893 121 "},"Ǧ":{"ha":1075,"x_min":82,"x_max":919,"o":"m 585 -4 q 770 27 683 -4 q 919 121 857 58 l 903 142 q 758 50 839 78 q 585 22 676 22 q 397 58 483 22 q 245 156 310 93 q 145 303 181 219 q 110 486 110 388 q 145 669 110 585 q 245 816 181 753 q 397 915 310 879 q 585 950 483 950 q 756 924 676 950 q 903 833 836 897 l 919 853 q 770 946 857 915 q 585 976 683 976 q 385 940 476 976 q 225 836 293 903 q 119 681 157 769 q 82 486 82 592 q 119 292 82 381 q 225 136 157 203 q 385 33 293 69 q 585 -4 476 -4 m 893 121 l 919 121 l 919 476 l 893 476 l 893 121 "},"Ĝ":{"ha":1075,"x_min":82,"x_max":919,"o":"m 585 -4 q 770 27 683 -4 q 919 121 857 58 l 903 142 q 758 50 839 78 q 585 22 676 22 q 397 58 483 22 q 245 156 310 93 q 145 303 181 219 q 110 486 110 388 q 145 669 110 585 q 245 816 181 753 q 397 915 310 879 q 585 950 483 950 q 756 924 676 950 q 903 833 836 897 l 919 853 q 770 946 857 915 q 585 976 683 976 q 385 940 476 976 q 225 836 293 903 q 119 681 157 769 q 82 486 82 592 q 119 292 82 381 q 225 136 157 203 q 385 33 293 69 q 585 -4 476 -4 m 893 121 l 919 121 l 919 476 l 893 476 l 893 121 "},"Ģ":{"ha":1075,"x_min":82,"x_max":919,"o":"m 585 -4 q 770 27 683 -4 q 919 121 857 58 l 903 142 q 758 50 839 78 q 585 22 676 22 q 397 58 483 22 q 245 156 310 93 q 145 303 181 219 q 110 486 110 388 q 145 669 110 585 q 245 816 181 753 q 397 915 310 879 q 585 950 483 950 q 756 924 676 950 q 903 833 836 897 l 919 853 q 770 946 857 915 q 585 976 683 976 q 385 940 476 976 q 225 836 293 903 q 119 681 157 769 q 82 486 82 592 q 119 292 82 381 q 225 136 157 203 q 385 33 293 69 q 585 -4 476 -4 m 893 121 l 919 121 l 919 476 l 893 476 l 893 121 m 529 -360 l 554 -360 l 586 -253 q 592 -231 589 -242 q 594 -208 594 -219 q 585 -184 594 -196 q 558 -172 575 -172 q 533 -183 543 -172 q 522 -208 522 -193 q 533 -233 522 -222 q 558 -244 544 -244 l 557 -229 l 529 -360 "},"Ġ":{"ha":1075,"x_min":82,"x_max":919,"o":"m 585 -4 q 770 27 683 -4 q 919 121 857 58 l 903 142 q 758 50 839 78 q 585 22 676 22 q 397 58 483 22 q 245 156 310 93 q 145 303 181 219 q 110 486 110 388 q 145 669 110 585 q 245 816 181 753 q 397 915 310 879 q 585 950 483 950 q 756 924 676 950 q 903 833 836 897 l 919 853 q 770 946 857 915 q 585 976 683 976 q 385 940 476 976 q 225 836 293 903 q 119 681 157 769 q 82 486 82 592 q 119 292 82 381 q 225 136 157 203 q 385 33 293 69 q 585 -4 476 -4 m 893 121 l 919 121 l 919 476 l 893 476 l 893 121 "},"Ḡ":{"ha":1075,"x_min":82,"x_max":919,"o":"m 585 -4 q 770 27 683 -4 q 919 121 857 58 l 903 142 q 758 50 839 78 q 585 22 676 22 q 397 58 483 22 q 245 156 310 93 q 145 303 181 219 q 110 486 110 388 q 145 669 110 585 q 245 816 181 753 q 397 915 310 879 q 585 950 483 950 q 756 924 676 950 q 903 833 836 897 l 919 853 q 770 946 857 915 q 585 976 683 976 q 385 940 476 976 q 225 836 293 903 q 119 681 157 769 q 82 486 82 592 q 119 292 82 381 q 225 136 157 203 q 385 33 293 69 q 585 -4 476 -4 m 893 121 l 919 121 l 919 476 l 893 476 l 893 121 "},"Ǥ":{"ha":1117,"x_min":82,"x_max":1083,"o":"m 583 311 l 1083 311 l 1083 338 l 583 338 l 583 311 m 585 -4 q 770 27 683 -4 q 919 121 857 58 l 903 142 q 758 50 839 78 q 585 22 676 22 q 397 58 483 22 q 245 156 310 93 q 145 303 181 219 q 110 486 110 388 q 145 669 110 585 q 245 816 181 753 q 397 915 310 879 q 585 950 483 950 q 756 924 676 950 q 903 833 836 897 l 919 853 q 770 946 857 915 q 585 976 683 976 q 385 940 476 976 q 225 836 293 903 q 119 681 157 769 q 82 486 82 592 q 119 292 82 381 q 225 136 157 203 q 385 33 293 69 q 585 -4 476 -4 m 893 121 l 919 121 l 919 476 l 893 476 l 893 121 "},"H":{"ha":1133,"x_min":185,"x_max":949,"o":"m 921 972 l 921 0 l 949 0 l 949 972 l 921 972 m 213 0 l 213 972 l 185 972 l 185 0 l 213 0 m 928 481 l 928 507 l 206 507 l 206 481 l 928 481 "},"Ħ":{"ha":1133,"x_min":28,"x_max":1106,"o":"m 921 972 l 921 0 l 949 0 l 949 972 l 921 972 m 213 0 l 213 972 l 185 972 l 185 0 l 213 0 m 928 481 l 928 507 l 206 507 l 206 481 l 928 481 m 28 735 l 1106 735 l 1106 761 l 28 761 l 28 735 "},"Ḫ":{"ha":1133,"x_min":185,"x_max":949,"o":"m 921 972 l 921 0 l 949 0 l 949 972 l 921 972 m 213 0 l 213 972 l 185 972 l 185 0 l 213 0 m 928 481 l 928 507 l 206 507 l 206 481 l 928 481 m 567 -275 q 695 -235 642 -275 q 750 -125 749 -194 l 724 -125 q 677 -215 722 -182 q 567 -249 632 -249 q 458 -215 503 -249 q 410 -125 413 -182 l 383 -125 q 439 -235 386 -194 q 567 -275 492 -275 "},"Ȟ":{"ha":1133,"x_min":185,"x_max":949,"o":"m 921 972 l 921 0 l 949 0 l 949 972 l 921 972 m 213 0 l 213 972 l 185 972 l 185 0 l 213 0 m 928 481 l 928 507 l 206 507 l 206 481 l 928 481 "},"Ĥ":{"ha":1133,"x_min":185,"x_max":949,"o":"m 921 972 l 921 0 l 949 0 l 949 972 l 921 972 m 213 0 l 213 972 l 185 972 l 185 0 l 213 0 m 928 481 l 928 507 l 206 507 l 206 481 l 928 481 "},"Ḥ":{"ha":1133,"x_min":185,"x_max":949,"o":"m 921 972 l 921 0 l 949 0 l 949 972 l 921 972 m 213 0 l 213 972 l 185 972 l 185 0 l 213 0 m 928 481 l 928 507 l 206 507 l 206 481 l 928 481 m 567 -244 q 592 -233 582 -244 q 603 -208 603 -222 q 592 -183 603 -193 q 567 -172 582 -172 q 542 -183 553 -172 q 531 -208 531 -193 q 542 -233 531 -222 q 567 -244 553 -244 "},"I":{"ha":397,"x_min":185,"x_max":213,"o":"m 185 0 l 213 0 l 213 972 l 185 972 l 185 0 "},"Ĳ":{"ha":992,"x_min":167,"x_max":815,"o":"m 454 -4 q 644 42 564 -4 q 770 178 725 88 q 815 407 815 269 l 815 972 l 788 972 l 788 408 q 699 118 788 214 q 456 22 610 22 q 308 45 378 22 q 183 108 239 68 l 167 86 q 297 22 224 47 q 454 -4 371 -4 m 176 403 l 204 403 l 204 972 l 176 972 l 176 403 "},"Í":{"ha":397,"x_min":136,"x_max":386,"o":"m 185 0 l 213 0 l 213 972 l 185 972 l 185 0 "},"Ĭ":{"ha":397,"x_min":15,"x_max":382,"o":"m 185 0 l 213 0 l 213 972 l 185 972 l 185 0 "},"Î":{"ha":397,"x_min":7,"x_max":390,"o":"m 185 0 l 213 0 l 213 972 l 185 972 l 185 0 "},"Ȉ":{"ha":397,"x_min":-81,"x_max":314,"o":"m 185 0 l 213 0 l 213 972 l 185 972 l 185 0 "},"Ï":{"ha":397,"x_min":49,"x_max":349,"o":"m 185 0 l 213 0 l 213 972 l 185 972 l 185 0 "},"Ḯ":{"ha":397,"x_min":49,"x_max":368,"o":"m 185 0 l 213 0 l 213 972 l 185 972 l 185 0 "},"İ":{"ha":397,"x_min":163,"x_max":235,"o":"m 185 0 l 213 0 l 213 972 l 185 972 l 185 0 "},"Ị":{"ha":397,"x_min":163,"x_max":235,"o":"m 185 0 l 213 0 l 213 972 l 185 972 l 185 0 m 199 -244 q 224 -233 214 -244 q 235 -208 235 -222 q 224 -183 235 -193 q 199 -172 214 -172 q 174 -183 185 -172 q 163 -208 163 -193 q 174 -233 163 -222 q 199 -244 185 -244 "},"Ì":{"ha":397,"x_min":11,"x_max":261,"o":"m 185 0 l 213 0 l 213 972 l 185 972 l 185 0 "},"Ỉ":{"ha":397,"x_min":97,"x_max":303,"o":"m 185 0 l 213 0 l 213 972 l 185 972 l 185 0 "},"Ȋ":{"ha":397,"x_min":15,"x_max":382,"o":"m 185 0 l 213 0 l 213 972 l 185 972 l 185 0 "},"Ī":{"ha":397,"x_min":44,"x_max":353,"o":"m 185 0 l 213 0 l 213 972 l 185 972 l 185 0 "},"Į":{"ha":397,"x_min":108,"x_max":272,"o":"m 185 0 l 213 0 l 213 972 l 185 972 l 185 0 m 201 -296 q 272 -262 246 -296 l 257 -243 q 233 -263 247 -256 q 201 -271 219 -271 q 156 -249 175 -271 q 136 -186 136 -228 q 147 -106 136 -151 q 213 0 158 -61 l 201 24 q 125 -93 142 -37 q 108 -187 108 -149 q 134 -265 108 -235 q 201 -296 160 -296 "},"Ĩ":{"ha":397,"x_min":10,"x_max":388,"o":"m 185 0 l 213 0 l 213 972 l 185 972 l 185 0 "},"J":{"ha":663,"x_min":6,"x_max":486,"o":"m 247 -4 q 426 65 367 -4 q 486 269 486 133 l 486 972 l 94 972 l 94 946 l 458 946 l 458 272 q 249 22 458 22 q 123 56 181 22 q 25 150 65 89 l 6 133 q 109 33 44 69 q 247 -4 174 -4 "},"Ĵ":{"ha":663,"x_min":6,"x_max":486,"o":"m 247 -4 q 426 65 367 -4 q 486 269 486 133 l 486 972 l 94 972 l 94 946 l 458 946 l 458 272 q 249 22 458 22 q 123 56 181 22 q 25 150 65 89 l 6 133 q 109 33 44 69 q 247 -4 174 -4 "},"K":{"ha":963,"x_min":185,"x_max":940,"o":"m 207 253 l 456 508 l 472 524 l 908 972 l 871 972 l 207 290 l 207 253 m 185 0 l 213 0 l 213 972 l 185 972 l 185 0 m 903 0 l 940 0 l 461 542 l 440 524 l 903 0 "},"Ǩ":{"ha":963,"x_min":185,"x_max":940,"o":"m 207 253 l 456 508 l 472 524 l 908 972 l 871 972 l 207 290 l 207 253 m 185 0 l 213 0 l 213 972 l 185 972 l 185 0 m 903 0 l 940 0 l 461 542 l 440 524 l 903 0 "},"Ķ":{"ha":963,"x_min":185,"x_max":940,"o":"m 207 253 l 456 508 l 472 524 l 908 972 l 871 972 l 207 290 l 207 253 m 185 0 l 213 0 l 213 972 l 185 972 l 185 0 m 903 0 l 940 0 l 461 542 l 440 524 l 903 0 m 485 -360 l 510 -360 l 542 -253 q 547 -231 544 -242 q 550 -208 550 -219 q 540 -184 550 -196 q 514 -172 531 -172 q 488 -183 499 -172 q 478 -208 478 -193 q 489 -233 478 -222 q 514 -244 500 -244 l 513 -229 l 485 -360 "},"L":{"ha":806,"x_min":185,"x_max":792,"o":"m 185 0 l 792 0 l 792 26 l 213 26 l 213 972 l 185 972 l 185 0 "},"Ǉ":{"ha":1468,"x_min":185,"x_max":1292,"o":"m 185 0 l 792 0 l 792 26 l 213 26 l 213 972 l 185 972 l 185 0 m 1053 -4 q 1232 65 1172 -4 q 1292 269 1292 133 l 1292 972 l 900 972 l 900 946 l 1264 946 l 1264 272 q 1054 22 1264 22 q 928 56 986 22 q 831 150 871 89 l 811 133 q 915 33 850 69 q 1053 -4 979 -4 "},"Ĺ":{"ha":806,"x_min":136,"x_max":792,"o":"m 185 0 l 792 0 l 792 26 l 213 26 l 213 972 l 185 972 l 185 0 "},"Ľ":{"ha":806,"x_min":185,"x_max":792,"o":"m 185 0 l 792 0 l 792 26 l 213 26 l 213 972 l 185 972 l 185 0 m 619 750 l 644 750 l 647 1000 l 619 1000 l 619 750 "},"Ļ":{"ha":806,"x_min":185,"x_max":792,"o":"m 185 0 l 792 0 l 792 26 l 213 26 l 213 972 l 185 972 l 185 0 m 474 -360 l 499 -360 l 531 -253 q 536 -231 533 -242 q 539 -208 539 -219 q 529 -184 539 -196 q 503 -172 519 -172 q 477 -183 488 -172 q 467 -208 467 -193 q 478 -233 467 -222 q 503 -244 489 -244 l 501 -229 l 474 -360 "},"Ŀ":{"ha":806,"x_min":185,"x_max":792,"o":"m 185 0 l 792 0 l 792 26 l 213 26 l 213 972 l 185 972 l 185 0 m 601 464 q 627 475 617 464 q 638 500 638 486 q 627 526 638 515 q 601 536 617 536 q 576 526 588 536 q 565 500 565 515 q 576 475 565 486 q 601 464 588 464 "},"Ḷ":{"ha":806,"x_min":185,"x_max":792,"o":"m 185 0 l 792 0 l 792 26 l 213 26 l 213 972 l 185 972 l 185 0 m 503 -244 q 528 -233 518 -244 q 539 -208 539 -222 q 528 -183 539 -193 q 503 -172 518 -172 q 478 -183 489 -172 q 467 -208 467 -193 q 478 -233 467 -222 q 503 -244 489 -244 "},"ǈ":{"ha":1160,"x_min":185,"x_max":1022,"o":"m 185 0 l 792 0 l 792 26 l 213 26 l 213 972 l 185 972 l 185 0 "},"Ḻ":{"ha":806,"x_min":185,"x_max":792,"o":"m 185 0 l 792 0 l 792 26 l 213 26 l 213 972 l 185 972 l 185 0 m 314 -222 l 692 -222 l 692 -194 l 314 -194 l 314 -222 "},"Ł":{"ha":806,"x_min":57,"x_max":792,"o":"m 185 0 l 792 0 l 792 26 l 213 26 l 213 972 l 185 972 l 185 0 m 72 392 l 410 640 l 394 660 l 57 411 l 72 392 "},"M":{"ha":1328,"x_min":185,"x_max":1143,"o":"m 185 0 l 213 0 l 213 932 l 200 932 l 656 138 l 672 138 l 1126 932 l 1115 932 l 1115 0 l 1143 0 l 1143 972 l 1119 972 l 658 164 l 671 164 l 208 972 l 185 972 l 185 0 "},"Ṃ":{"ha":1328,"x_min":185,"x_max":1143,"o":"m 185 0 l 213 0 l 213 932 l 200 932 l 656 138 l 672 138 l 1126 932 l 1115 932 l 1115 0 l 1143 0 l 1143 972 l 1119 972 l 658 164 l 671 164 l 208 972 l 185 972 l 185 0 m 664 -244 q 690 -233 679 -244 q 700 -208 700 -222 q 690 -183 700 -193 q 664 -172 679 -172 q 639 -183 650 -172 q 628 -208 628 -193 q 639 -233 628 -222 q 664 -244 650 -244 "},"N":{"ha":1133,"x_min":185,"x_max":949,"o":"m 185 0 l 213 0 l 213 940 l 197 940 l 925 0 l 949 0 l 949 972 l 921 972 l 921 32 l 936 32 l 208 972 l 185 972 l 185 0 "},"Ǌ":{"ha":1796,"x_min":185,"x_max":1619,"o":"m 185 0 l 213 0 l 213 940 l 197 940 l 925 0 l 949 0 l 949 972 l 921 972 l 921 32 l 936 32 l 208 972 l 185 972 l 185 0 m 1381 -4 q 1560 65 1500 -4 q 1619 269 1619 133 l 1619 972 l 1228 972 l 1228 946 l 1592 946 l 1592 272 q 1382 22 1592 22 q 1256 56 1314 22 q 1158 150 1199 89 l 1139 133 q 1242 33 1178 69 q 1381 -4 1307 -4 "},"Ń":{"ha":1133,"x_min":185,"x_max":949,"o":"m 185 0 l 213 0 l 213 940 l 197 940 l 925 0 l 949 0 l 949 972 l 921 972 l 921 32 l 936 32 l 208 972 l 185 972 l 185 0 "},"Ň":{"ha":1133,"x_min":185,"x_max":949,"o":"m 185 0 l 213 0 l 213 940 l 197 940 l 925 0 l 949 0 l 949 972 l 921 972 l 921 32 l 936 32 l 208 972 l 185 972 l 185 0 "},"Ņ":{"ha":1133,"x_min":185,"x_max":949,"o":"m 185 0 l 213 0 l 213 940 l 197 940 l 925 0 l 949 0 l 949 972 l 921 972 l 921 32 l 936 32 l 208 972 l 185 972 l 185 0 m 538 -360 l 563 -360 l 594 -253 q 600 -231 597 -242 q 603 -208 603 -219 q 593 -184 603 -196 q 567 -172 583 -172 q 541 -183 551 -172 q 531 -208 531 -193 q 542 -233 531 -222 q 567 -244 553 -244 l 565 -229 l 538 -360 "},"Ṅ":{"ha":1133,"x_min":185,"x_max":949,"o":"m 185 0 l 213 0 l 213 940 l 197 940 l 925 0 l 949 0 l 949 972 l 921 972 l 921 32 l 936 32 l 208 972 l 185 972 l 185 0 "},"Ṇ":{"ha":1133,"x_min":185,"x_max":949,"o":"m 185 0 l 213 0 l 213 940 l 197 940 l 925 0 l 949 0 l 949 972 l 921 972 l 921 32 l 936 32 l 208 972 l 185 972 l 185 0 m 567 -244 q 592 -233 582 -244 q 603 -208 603 -222 q 592 -183 603 -193 q 567 -172 582 -172 q 542 -183 553 -172 q 531 -208 531 -193 q 542 -233 531 -222 q 567 -244 553 -244 "},"Ŋ":{"ha":1133,"x_min":185,"x_max":949,"o":"m 185 0 l 213 0 l 213 940 l 197 940 l 925 0 l 936 32 l 208 972 l 185 972 l 185 0 m 710 -274 q 889 -205 829 -274 q 949 0 949 -136 l 949 972 l 921 972 l 921 3 q 711 -247 921 -247 q 585 -214 643 -247 q 488 -119 528 -181 l 468 -136 q 572 -237 507 -200 q 710 -274 636 -274 "},"ǋ":{"ha":1488,"x_min":185,"x_max":1350,"o":"m 185 0 l 213 0 l 213 940 l 197 940 l 925 0 l 949 0 l 949 972 l 921 972 l 921 32 l 936 32 l 208 972 l 185 972 l 185 0 "},"Ṉ":{"ha":1133,"x_min":185,"x_max":949,"o":"m 185 0 l 213 0 l 213 940 l 197 940 l 925 0 l 949 0 l 949 972 l 921 972 l 921 32 l 936 32 l 208 972 l 185 972 l 185 0 m 378 -222 l 756 -222 l 756 -194 l 378 -194 l 378 -222 "},"Ñ":{"ha":1133,"x_min":185,"x_max":949,"o":"m 185 0 l 213 0 l 213 940 l 197 940 l 925 0 l 949 0 l 949 972 l 921 972 l 921 32 l 936 32 l 208 972 l 185 972 l 185 0 "},"O":{"ha":1161,"x_min":82,"x_max":1079,"o":"m 581 -4 q 778 33 688 -4 q 937 136 869 69 q 1042 292 1004 203 q 1079 486 1079 381 q 1042 681 1079 592 q 937 836 1004 769 q 778 940 869 903 q 581 976 688 976 q 383 940 474 976 q 224 836 292 903 q 119 681 157 769 q 82 486 82 592 q 119 292 82 381 q 224 136 157 203 q 383 33 292 69 q 581 -4 474 -4 m 581 22 q 394 57 481 22 q 244 155 308 92 q 145 302 181 218 q 110 486 110 386 q 145 670 110 586 q 244 817 181 754 q 394 915 308 881 q 581 950 481 950 q 767 915 681 950 q 917 817 853 881 q 1016 670 981 754 q 1051 486 1051 586 q 1016 302 1051 386 q 917 155 981 218 q 767 57 853 92 q 581 22 681 22 "},"Ó":{"ha":1161,"x_min":82,"x_max":1079,"o":"m 581 -4 q 778 33 688 -4 q 937 136 869 69 q 1042 292 1004 203 q 1079 486 1079 381 q 1042 681 1079 592 q 937 836 1004 769 q 778 940 869 903 q 581 976 688 976 q 383 940 474 976 q 224 836 292 903 q 119 681 157 769 q 82 486 82 592 q 119 292 82 381 q 224 136 157 203 q 383 33 292 69 q 581 -4 474 -4 m 581 22 q 394 57 481 22 q 244 155 308 92 q 145 302 181 218 q 110 486 110 386 q 145 670 110 586 q 244 817 181 754 q 394 915 308 881 q 581 950 481 950 q 767 915 681 950 q 917 817 853 881 q 1016 670 981 754 q 1051 486 1051 586 q 1016 302 1051 386 q 917 155 981 218 q 767 57 853 92 q 581 22 681 22 "},"Ŏ":{"ha":1161,"x_min":82,"x_max":1079,"o":"m 581 -4 q 778 33 688 -4 q 937 136 869 69 q 1042 292 1004 203 q 1079 486 1079 381 q 1042 681 1079 592 q 937 836 1004 769 q 778 940 869 903 q 581 976 688 976 q 383 940 474 976 q 224 836 292 903 q 119 681 157 769 q 82 486 82 592 q 119 292 82 381 q 224 136 157 203 q 383 33 292 69 q 581 -4 474 -4 m 581 22 q 394 57 481 22 q 244 155 308 92 q 145 302 181 218 q 110 486 110 386 q 145 670 110 586 q 244 817 181 754 q 394 915 308 881 q 581 950 481 950 q 767 915 681 950 q 917 817 853 881 q 1016 670 981 754 q 1051 486 1051 586 q 1016 302 1051 386 q 917 155 981 218 q 767 57 853 92 q 581 22 681 22 "},"Ô":{"ha":1161,"x_min":82,"x_max":1079,"o":"m 581 -4 q 778 33 688 -4 q 937 136 869 69 q 1042 292 1004 203 q 1079 486 1079 381 q 1042 681 1079 592 q 937 836 1004 769 q 778 940 869 903 q 581 976 688 976 q 383 940 474 976 q 224 836 292 903 q 119 681 157 769 q 82 486 82 592 q 119 292 82 381 q 224 136 157 203 q 383 33 292 69 q 581 -4 474 -4 m 581 22 q 394 57 481 22 q 244 155 308 92 q 145 302 181 218 q 110 486 110 386 q 145 670 110 586 q 244 817 181 754 q 394 915 308 881 q 581 950 481 950 q 767 915 681 950 q 917 817 853 881 q 1016 670 981 754 q 1051 486 1051 586 q 1016 302 1051 386 q 917 155 981 218 q 767 57 853 92 q 581 22 681 22 "},"Ố":{"ha":1161,"x_min":82,"x_max":1079,"o":"m 581 -4 q 778 33 688 -4 q 937 136 869 69 q 1042 292 1004 203 q 1079 486 1079 381 q 1042 681 1079 592 q 937 836 1004 769 q 778 940 869 903 q 581 976 688 976 q 383 940 474 976 q 224 836 292 903 q 119 681 157 769 q 82 486 82 592 q 119 292 82 381 q 224 136 157 203 q 383 33 292 69 q 581 -4 474 -4 m 581 22 q 394 57 481 22 q 244 155 308 92 q 145 302 181 218 q 110 486 110 386 q 145 670 110 586 q 244 817 181 754 q 394 915 308 881 q 581 950 481 950 q 767 915 681 950 q 917 817 853 881 q 1016 670 981 754 q 1051 486 1051 586 q 1016 302 1051 386 q 917 155 981 218 q 767 57 853 92 q 581 22 681 22 "},"Ộ":{"ha":1161,"x_min":82,"x_max":1079,"o":"m 581 -4 q 778 33 688 -4 q 937 136 869 69 q 1042 292 1004 203 q 1079 486 1079 381 q 1042 681 1079 592 q 937 836 1004 769 q 778 940 869 903 q 581 976 688 976 q 383 940 474 976 q 224 836 292 903 q 119 681 157 769 q 82 486 82 592 q 119 292 82 381 q 224 136 157 203 q 383 33 292 69 q 581 -4 474 -4 m 581 22 q 394 57 481 22 q 244 155 308 92 q 145 302 181 218 q 110 486 110 386 q 145 670 110 586 q 244 817 181 754 q 394 915 308 881 q 581 950 481 950 q 767 915 681 950 q 917 817 853 881 q 1016 670 981 754 q 1051 486 1051 586 q 1016 302 1051 386 q 917 155 981 218 q 767 57 853 92 q 581 22 681 22 m 581 -244 q 606 -233 596 -244 q 617 -208 617 -222 q 606 -183 617 -193 q 581 -172 596 -172 q 556 -183 567 -172 q 544 -208 544 -193 q 556 -233 544 -222 q 581 -244 567 -244 "},"Ồ":{"ha":1161,"x_min":82,"x_max":1079,"o":"m 581 -4 q 778 33 688 -4 q 937 136 869 69 q 1042 292 1004 203 q 1079 486 1079 381 q 1042 681 1079 592 q 937 836 1004 769 q 778 940 869 903 q 581 976 688 976 q 383 940 474 976 q 224 836 292 903 q 119 681 157 769 q 82 486 82 592 q 119 292 82 381 q 224 136 157 203 q 383 33 292 69 q 581 -4 474 -4 m 581 22 q 394 57 481 22 q 244 155 308 92 q 145 302 181 218 q 110 486 110 386 q 145 670 110 586 q 244 817 181 754 q 394 915 308 881 q 581 950 481 950 q 767 915 681 950 q 917 817 853 881 q 1016 670 981 754 q 1051 486 1051 586 q 1016 302 1051 386 q 917 155 981 218 q 767 57 853 92 q 581 22 681 22 "},"Ổ":{"ha":1161,"x_min":82,"x_max":1079,"o":"m 581 -4 q 778 33 688 -4 q 937 136 869 69 q 1042 292 1004 203 q 1079 486 1079 381 q 1042 681 1079 592 q 937 836 1004 769 q 778 940 869 903 q 581 976 688 976 q 383 940 474 976 q 224 836 292 903 q 119 681 157 769 q 82 486 82 592 q 119 292 82 381 q 224 136 157 203 q 383 33 292 69 q 581 -4 474 -4 m 581 22 q 394 57 481 22 q 244 155 308 92 q 145 302 181 218 q 110 486 110 386 q 145 670 110 586 q 244 817 181 754 q 394 915 308 881 q 581 950 481 950 q 767 915 681 950 q 917 817 853 881 q 1016 670 981 754 q 1051 486 1051 586 q 1016 302 1051 386 q 917 155 981 218 q 767 57 853 92 q 581 22 681 22 "},"Ỗ":{"ha":1161,"x_min":82,"x_max":1079,"o":"m 581 -4 q 778 33 688 -4 q 937 136 869 69 q 1042 292 1004 203 q 1079 486 1079 381 q 1042 681 1079 592 q 937 836 1004 769 q 778 940 869 903 q 581 976 688 976 q 383 940 474 976 q 224 836 292 903 q 119 681 157 769 q 82 486 82 592 q 119 292 82 381 q 224 136 157 203 q 383 33 292 69 q 581 -4 474 -4 m 581 22 q 394 57 481 22 q 244 155 308 92 q 145 302 181 218 q 110 486 110 386 q 145 670 110 586 q 244 817 181 754 q 394 915 308 881 q 581 950 481 950 q 767 915 681 950 q 917 817 853 881 q 1016 670 981 754 q 1051 486 1051 586 q 1016 302 1051 386 q 917 155 981 218 q 767 57 853 92 q 581 22 681 22 "},"Ȍ":{"ha":1161,"x_min":82,"x_max":1079,"o":"m 581 -4 q 778 33 688 -4 q 937 136 869 69 q 1042 292 1004 203 q 1079 486 1079 381 q 1042 681 1079 592 q 937 836 1004 769 q 778 940 869 903 q 581 976 688 976 q 383 940 474 976 q 224 836 292 903 q 119 681 157 769 q 82 486 82 592 q 119 292 82 381 q 224 136 157 203 q 383 33 292 69 q 581 -4 474 -4 m 581 22 q 394 57 481 22 q 244 155 308 92 q 145 302 181 218 q 110 486 110 386 q 145 670 110 586 q 244 817 181 754 q 394 915 308 881 q 581 950 481 950 q 767 915 681 950 q 917 817 853 881 q 1016 670 981 754 q 1051 486 1051 586 q 1016 302 1051 386 q 917 155 981 218 q 767 57 853 92 q 581 22 681 22 "},"Ö":{"ha":1161,"x_min":82,"x_max":1079,"o":"m 581 -4 q 778 33 688 -4 q 937 136 869 69 q 1042 292 1004 203 q 1079 486 1079 381 q 1042 681 1079 592 q 937 836 1004 769 q 778 940 869 903 q 581 976 688 976 q 383 940 474 976 q 224 836 292 903 q 119 681 157 769 q 82 486 82 592 q 119 292 82 381 q 224 136 157 203 q 383 33 292 69 q 581 -4 474 -4 m 581 22 q 394 57 481 22 q 244 155 308 92 q 145 302 181 218 q 110 486 110 386 q 145 670 110 586 q 244 817 181 754 q 394 915 308 881 q 581 950 481 950 q 767 915 681 950 q 917 817 853 881 q 1016 670 981 754 q 1051 486 1051 586 q 1016 302 1051 386 q 917 155 981 218 q 767 57 853 92 q 581 22 681 22 "},"Ȫ":{"ha":1161,"x_min":82,"x_max":1079,"o":"m 581 -4 q 778 33 688 -4 q 937 136 869 69 q 1042 292 1004 203 q 1079 486 1079 381 q 1042 681 1079 592 q 937 836 1004 769 q 778 940 869 903 q 581 976 688 976 q 383 940 474 976 q 224 836 292 903 q 119 681 157 769 q 82 486 82 592 q 119 292 82 381 q 224 136 157 203 q 383 33 292 69 q 581 -4 474 -4 m 581 22 q 394 57 481 22 q 244 155 308 92 q 145 302 181 218 q 110 486 110 386 q 145 670 110 586 q 244 817 181 754 q 394 915 308 881 q 581 950 481 950 q 767 915 681 950 q 917 817 853 881 q 1016 670 981 754 q 1051 486 1051 586 q 1016 302 1051 386 q 917 155 981 218 q 767 57 853 92 q 581 22 681 22 "},"Ȱ":{"ha":1161,"x_min":82,"x_max":1079,"o":"m 581 -4 q 778 33 688 -4 q 937 136 869 69 q 1042 292 1004 203 q 1079 486 1079 381 q 1042 681 1079 592 q 937 836 1004 769 q 778 940 869 903 q 581 976 688 976 q 383 940 474 976 q 224 836 292 903 q 119 681 157 769 q 82 486 82 592 q 119 292 82 381 q 224 136 157 203 q 383 33 292 69 q 581 -4 474 -4 m 581 22 q 394 57 481 22 q 244 155 308 92 q 145 302 181 218 q 110 486 110 386 q 145 670 110 586 q 244 817 181 754 q 394 915 308 881 q 581 950 481 950 q 767 915 681 950 q 917 817 853 881 q 1016 670 981 754 q 1051 486 1051 586 q 1016 302 1051 386 q 917 155 981 218 q 767 57 853 92 q 581 22 681 22 "},"Ọ":{"ha":1161,"x_min":82,"x_max":1079,"o":"m 581 -4 q 778 33 688 -4 q 937 136 869 69 q 1042 292 1004 203 q 1079 486 1079 381 q 1042 681 1079 592 q 937 836 1004 769 q 778 940 869 903 q 581 976 688 976 q 383 940 474 976 q 224 836 292 903 q 119 681 157 769 q 82 486 82 592 q 119 292 82 381 q 224 136 157 203 q 383 33 292 69 q 581 -4 474 -4 m 581 22 q 394 57 481 22 q 244 155 308 92 q 145 302 181 218 q 110 486 110 386 q 145 670 110 586 q 244 817 181 754 q 394 915 308 881 q 581 950 481 950 q 767 915 681 950 q 917 817 853 881 q 1016 670 981 754 q 1051 486 1051 586 q 1016 302 1051 386 q 917 155 981 218 q 767 57 853 92 q 581 22 681 22 m 581 -244 q 606 -233 596 -244 q 617 -208 617 -222 q 606 -183 617 -193 q 581 -172 596 -172 q 556 -183 567 -172 q 544 -208 544 -193 q 556 -233 544 -222 q 581 -244 567 -244 "},"Ò":{"ha":1161,"x_min":82,"x_max":1079,"o":"m 581 -4 q 778 33 688 -4 q 937 136 869 69 q 1042 292 1004 203 q 1079 486 1079 381 q 1042 681 1079 592 q 937 836 1004 769 q 778 940 869 903 q 581 976 688 976 q 383 940 474 976 q 224 836 292 903 q 119 681 157 769 q 82 486 82 592 q 119 292 82 381 q 224 136 157 203 q 383 33 292 69 q 581 -4 474 -4 m 581 22 q 394 57 481 22 q 244 155 308 92 q 145 302 181 218 q 110 486 110 386 q 145 670 110 586 q 244 817 181 754 q 394 915 308 881 q 581 950 481 950 q 767 915 681 950 q 917 817 853 881 q 1016 670 981 754 q 1051 486 1051 586 q 1016 302 1051 386 q 917 155 981 218 q 767 57 853 92 q 581 22 681 22 "},"Ỏ":{"ha":1161,"x_min":82,"x_max":1079,"o":"m 581 -4 q 778 33 688 -4 q 937 136 869 69 q 1042 292 1004 203 q 1079 486 1079 381 q 1042 681 1079 592 q 937 836 1004 769 q 778 940 869 903 q 581 976 688 976 q 383 940 474 976 q 224 836 292 903 q 119 681 157 769 q 82 486 82 592 q 119 292 82 381 q 224 136 157 203 q 383 33 292 69 q 581 -4 474 -4 m 581 22 q 394 57 481 22 q 244 155 308 92 q 145 302 181 218 q 110 486 110 386 q 145 670 110 586 q 244 817 181 754 q 394 915 308 881 q 581 950 481 950 q 767 915 681 950 q 917 817 853 881 q 1016 670 981 754 q 1051 486 1051 586 q 1016 302 1051 386 q 917 155 981 218 q 767 57 853 92 q 581 22 681 22 "},"Ơ":{"ha":1161,"x_min":82,"x_max":1079,"o":"m 581 -4 q 778 33 688 -4 q 937 136 869 69 q 1042 292 1004 203 q 1079 486 1079 381 q 1040 683 1079 592 q 930 843 1001 775 q 761 944 858 911 l 743 940 q 811 932 774 935 q 871 929 849 929 q 1006 965 961 929 q 1051 1071 1051 1000 q 1043 1126 1051 1099 q 1021 1174 1035 1153 l 996 1163 q 1015 1120 1007 1143 q 1024 1069 1024 1097 q 986 984 1024 1013 q 871 956 949 956 q 737 966 803 956 q 581 976 671 976 q 383 940 474 976 q 224 836 292 903 q 119 681 157 769 q 82 486 82 592 q 119 292 82 381 q 224 136 157 203 q 383 33 292 69 q 581 -4 474 -4 m 581 22 q 394 58 481 22 q 244 156 308 93 q 145 303 181 219 q 110 486 110 388 q 145 669 110 585 q 244 816 181 753 q 394 915 308 879 q 581 950 481 950 q 767 915 681 950 q 917 816 853 879 q 1016 669 981 753 q 1051 486 1051 585 q 1016 303 1051 388 q 917 156 981 219 q 767 58 853 93 q 581 22 681 22 "},"Ớ":{"ha":1161,"x_min":82,"x_max":1079,"o":"m 581 -4 q 778 33 688 -4 q 937 136 869 69 q 1042 292 1004 203 q 1079 486 1079 381 q 1040 683 1079 592 q 930 843 1001 775 q 761 944 858 911 l 743 940 q 811 932 774 935 q 871 929 849 929 q 1006 965 961 929 q 1051 1071 1051 1000 q 1043 1126 1051 1099 q 1021 1174 1035 1153 l 996 1163 q 1015 1120 1007 1143 q 1024 1069 1024 1097 q 986 984 1024 1013 q 871 956 949 956 q 737 966 803 956 q 581 976 671 976 q 383 940 474 976 q 224 836 292 903 q 119 681 157 769 q 82 486 82 592 q 119 292 82 381 q 224 136 157 203 q 383 33 292 69 q 581 -4 474 -4 m 581 22 q 394 58 481 22 q 244 156 308 93 q 145 303 181 219 q 110 486 110 388 q 145 669 110 585 q 244 816 181 753 q 394 915 308 879 q 581 950 481 950 q 767 915 681 950 q 917 816 853 879 q 1016 669 981 753 q 1051 486 1051 585 q 1016 303 1051 388 q 917 156 981 219 q 767 58 853 93 q 581 22 681 22 "},"Ợ":{"ha":1161,"x_min":82,"x_max":1079,"o":"m 581 -4 q 778 33 688 -4 q 937 136 869 69 q 1042 292 1004 203 q 1079 486 1079 381 q 1040 683 1079 592 q 930 843 1001 775 q 761 944 858 911 l 743 940 q 811 932 774 935 q 871 929 849 929 q 1006 965 961 929 q 1051 1071 1051 1000 q 1043 1126 1051 1099 q 1021 1174 1035 1153 l 996 1163 q 1015 1120 1007 1143 q 1024 1069 1024 1097 q 986 984 1024 1013 q 871 956 949 956 q 737 966 803 956 q 581 976 671 976 q 383 940 474 976 q 224 836 292 903 q 119 681 157 769 q 82 486 82 592 q 119 292 82 381 q 224 136 157 203 q 383 33 292 69 q 581 -4 474 -4 m 581 22 q 394 58 481 22 q 244 156 308 93 q 145 303 181 219 q 110 486 110 388 q 145 669 110 585 q 244 816 181 753 q 394 915 308 879 q 581 950 481 950 q 767 915 681 950 q 917 816 853 879 q 1016 669 981 753 q 1051 486 1051 585 q 1016 303 1051 388 q 917 156 981 219 q 767 58 853 93 q 581 22 681 22 m 581 -244 q 606 -233 596 -244 q 617 -208 617 -222 q 606 -183 617 -193 q 581 -172 596 -172 q 556 -183 567 -172 q 544 -208 544 -193 q 556 -233 544 -222 q 581 -244 567 -244 "},"Ờ":{"ha":1161,"x_min":82,"x_max":1079,"o":"m 581 -4 q 778 33 688 -4 q 937 136 869 69 q 1042 292 1004 203 q 1079 486 1079 381 q 1040 683 1079 592 q 930 843 1001 775 q 761 944 858 911 l 743 940 q 811 932 774 935 q 871 929 849 929 q 1006 965 961 929 q 1051 1071 1051 1000 q 1043 1126 1051 1099 q 1021 1174 1035 1153 l 996 1163 q 1015 1120 1007 1143 q 1024 1069 1024 1097 q 986 984 1024 1013 q 871 956 949 956 q 737 966 803 956 q 581 976 671 976 q 383 940 474 976 q 224 836 292 903 q 119 681 157 769 q 82 486 82 592 q 119 292 82 381 q 224 136 157 203 q 383 33 292 69 q 581 -4 474 -4 m 581 22 q 394 58 481 22 q 244 156 308 93 q 145 303 181 219 q 110 486 110 388 q 145 669 110 585 q 244 816 181 753 q 394 915 308 879 q 581 950 481 950 q 767 915 681 950 q 917 816 853 879 q 1016 669 981 753 q 1051 486 1051 585 q 1016 303 1051 388 q 917 156 981 219 q 767 58 853 93 q 581 22 681 22 "},"Ở":{"ha":1161,"x_min":82,"x_max":1079,"o":"m 581 -4 q 778 33 688 -4 q 937 136 869 69 q 1042 292 1004 203 q 1079 486 1079 381 q 1040 683 1079 592 q 930 843 1001 775 q 761 944 858 911 l 743 940 q 811 932 774 935 q 871 929 849 929 q 1006 965 961 929 q 1051 1071 1051 1000 q 1043 1126 1051 1099 q 1021 1174 1035 1153 l 996 1163 q 1015 1120 1007 1143 q 1024 1069 1024 1097 q 986 984 1024 1013 q 871 956 949 956 q 737 966 803 956 q 581 976 671 976 q 383 940 474 976 q 224 836 292 903 q 119 681 157 769 q 82 486 82 592 q 119 292 82 381 q 224 136 157 203 q 383 33 292 69 q 581 -4 474 -4 m 581 22 q 394 58 481 22 q 244 156 308 93 q 145 303 181 219 q 110 486 110 388 q 145 669 110 585 q 244 816 181 753 q 394 915 308 879 q 581 950 481 950 q 767 915 681 950 q 917 816 853 879 q 1016 669 981 753 q 1051 486 1051 585 q 1016 303 1051 388 q 917 156 981 219 q 767 58 853 93 q 581 22 681 22 "},"Ỡ":{"ha":1161,"x_min":82,"x_max":1079,"o":"m 581 -4 q 778 33 688 -4 q 937 136 869 69 q 1042 292 1004 203 q 1079 486 1079 381 q 1040 683 1079 592 q 930 843 1001 775 q 761 944 858 911 l 743 940 q 811 932 774 935 q 871 929 849 929 q 1006 965 961 929 q 1051 1071 1051 1000 q 1043 1126 1051 1099 q 1021 1174 1035 1153 l 996 1163 q 1015 1120 1007 1143 q 1024 1069 1024 1097 q 986 984 1024 1013 q 871 956 949 956 q 737 966 803 956 q 581 976 671 976 q 383 940 474 976 q 224 836 292 903 q 119 681 157 769 q 82 486 82 592 q 119 292 82 381 q 224 136 157 203 q 383 33 292 69 q 581 -4 474 -4 m 581 22 q 394 58 481 22 q 244 156 308 93 q 145 303 181 219 q 110 486 110 388 q 145 669 110 585 q 244 816 181 753 q 394 915 308 879 q 581 950 481 950 q 767 915 681 950 q 917 816 853 879 q 1016 669 981 753 q 1051 486 1051 585 q 1016 303 1051 388 q 917 156 981 219 q 767 58 853 93 q 581 22 681 22 "},"Ő":{"ha":1161,"x_min":82,"x_max":1079,"o":"m 581 -4 q 778 33 688 -4 q 937 136 869 69 q 1042 292 1004 203 q 1079 486 1079 381 q 1042 681 1079 592 q 937 836 1004 769 q 778 940 869 903 q 581 976 688 976 q 383 940 474 976 q 224 836 292 903 q 119 681 157 769 q 82 486 82 592 q 119 292 82 381 q 224 136 157 203 q 383 33 292 69 q 581 -4 474 -4 m 581 22 q 394 57 481 22 q 244 155 308 92 q 145 302 181 218 q 110 486 110 386 q 145 670 110 586 q 244 817 181 754 q 394 915 308 881 q 581 950 481 950 q 767 915 681 950 q 917 817 853 881 q 1016 670 981 754 q 1051 486 1051 586 q 1016 302 1051 386 q 917 155 981 218 q 767 57 853 92 q 581 22 681 22 "},"Ȏ":{"ha":1161,"x_min":82,"x_max":1079,"o":"m 581 -4 q 778 33 688 -4 q 937 136 869 69 q 1042 292 1004 203 q 1079 486 1079 381 q 1042 681 1079 592 q 937 836 1004 769 q 778 940 869 903 q 581 976 688 976 q 383 940 474 976 q 224 836 292 903 q 119 681 157 769 q 82 486 82 592 q 119 292 82 381 q 224 136 157 203 q 383 33 292 69 q 581 -4 474 -4 m 581 22 q 394 57 481 22 q 244 155 308 92 q 145 302 181 218 q 110 486 110 386 q 145 670 110 586 q 244 817 181 754 q 394 915 308 881 q 581 950 481 950 q 767 915 681 950 q 917 817 853 881 q 1016 670 981 754 q 1051 486 1051 586 q 1016 302 1051 386 q 917 155 981 218 q 767 57 853 92 q 581 22 681 22 "},"Ō":{"ha":1161,"x_min":82,"x_max":1079,"o":"m 581 -4 q 778 33 688 -4 q 937 136 869 69 q 1042 292 1004 203 q 1079 486 1079 381 q 1042 681 1079 592 q 937 836 1004 769 q 778 940 869 903 q 581 976 688 976 q 383 940 474 976 q 224 836 292 903 q 119 681 157 769 q 82 486 82 592 q 119 292 82 381 q 224 136 157 203 q 383 33 292 69 q 581 -4 474 -4 m 581 22 q 394 57 481 22 q 244 155 308 92 q 145 302 181 218 q 110 486 110 386 q 145 670 110 586 q 244 817 181 754 q 394 915 308 881 q 581 950 481 950 q 767 915 681 950 q 917 817 853 881 q 1016 670 981 754 q 1051 486 1051 586 q 1016 302 1051 386 q 917 155 981 218 q 767 57 853 92 q 581 22 681 22 "},"Ṓ":{"ha":1161,"x_min":82,"x_max":1079,"o":"m 581 -4 q 778 33 688 -4 q 937 136 869 69 q 1042 292 1004 203 q 1079 486 1079 381 q 1042 681 1079 592 q 937 836 1004 769 q 778 940 869 903 q 581 976 688 976 q 383 940 474 976 q 224 836 292 903 q 119 681 157 769 q 82 486 82 592 q 119 292 82 381 q 224 136 157 203 q 383 33 292 69 q 581 -4 474 -4 m 581 22 q 394 57 481 22 q 244 155 308 92 q 145 302 181 218 q 110 486 110 386 q 145 670 110 586 q 244 817 181 754 q 394 915 308 881 q 581 950 481 950 q 767 915 681 950 q 917 817 853 881 q 1016 670 981 754 q 1051 486 1051 586 q 1016 302 1051 386 q 917 155 981 218 q 767 57 853 92 q 581 22 681 22 "},"Ṑ":{"ha":1161,"x_min":82,"x_max":1079,"o":"m 581 -4 q 778 33 688 -4 q 937 136 869 69 q 1042 292 1004 203 q 1079 486 1079 381 q 1042 681 1079 592 q 937 836 1004 769 q 778 940 869 903 q 581 976 688 976 q 383 940 474 976 q 224 836 292 903 q 119 681 157 769 q 82 486 82 592 q 119 292 82 381 q 224 136 157 203 q 383 33 292 69 q 581 -4 474 -4 m 581 22 q 394 57 481 22 q 244 155 308 92 q 145 302 181 218 q 110 486 110 386 q 145 670 110 586 q 244 817 181 754 q 394 915 308 881 q 581 950 481 950 q 767 915 681 950 q 917 817 853 881 q 1016 670 981 754 q 1051 486 1051 586 q 1016 302 1051 386 q 917 155 981 218 q 767 57 853 92 q 581 22 681 22 "},"Ǫ":{"ha":1161,"x_min":82,"x_max":1079,"o":"m 574 -296 q 628 -287 603 -296 q 676 -258 654 -278 l 661 -237 q 622 -261 644 -253 q 575 -269 599 -269 q 503 -247 532 -269 q 475 -181 475 -225 q 506 -97 475 -135 q 588 -31 538 -58 q 694 8 638 -3 q 887 93 800 29 q 1026 258 974 157 q 1079 486 1079 358 q 1042 681 1079 592 q 937 836 1004 769 q 778 940 869 903 q 581 976 688 976 q 383 940 474 976 q 224 836 292 903 q 119 681 157 769 q 82 486 82 592 q 119 292 82 381 q 224 136 157 203 q 383 33 292 69 q 581 -4 474 -4 q 597 -3 589 -4 q 613 -1 604 -3 l 638 22 q 519 -47 561 -11 q 463 -117 478 -83 q 447 -181 447 -151 q 483 -265 447 -235 q 574 -296 519 -296 m 581 22 q 394 57 481 22 q 244 155 308 92 q 145 302 181 218 q 110 486 110 386 q 145 670 110 586 q 244 817 181 754 q 394 915 308 881 q 581 950 481 950 q 767 915 681 950 q 917 817 853 881 q 1016 670 981 754 q 1051 486 1051 586 q 1016 302 1051 386 q 917 155 981 218 q 767 57 853 92 q 581 22 681 22 "},"Ø":{"ha":1161,"x_min":82,"x_max":1079,"o":"m 581 -4 q 778 33 688 -4 q 937 136 869 69 q 1042 292 1004 203 q 1079 486 1079 381 q 1042 681 1079 592 q 937 836 1004 769 q 778 940 869 903 q 581 976 688 976 q 383 940 474 976 q 224 836 292 903 q 119 681 157 769 q 82 486 82 592 q 119 292 82 381 q 224 136 157 203 q 383 33 292 69 q 581 -4 474 -4 m 581 22 q 394 57 481 22 q 244 155 308 92 q 145 302 181 218 q 110 486 110 386 q 145 670 110 586 q 244 817 181 754 q 394 915 308 881 q 581 950 481 950 q 767 915 681 950 q 917 817 853 881 q 1016 670 981 754 q 1051 486 1051 586 q 1016 302 1051 386 q 917 155 981 218 q 767 57 853 92 q 581 22 681 22 m 138 -97 l 169 -97 l 1024 1069 l 992 1069 l 138 -97 "},"Ǿ":{"ha":1161,"x_min":82,"x_max":1079,"o":"m 581 -4 q 778 33 688 -4 q 937 136 869 69 q 1042 292 1004 203 q 1079 486 1079 381 q 1042 681 1079 592 q 937 836 1004 769 q 778 940 869 903 q 581 976 688 976 q 383 940 474 976 q 224 836 292 903 q 119 681 157 769 q 82 486 82 592 q 119 292 82 381 q 224 136 157 203 q 383 33 292 69 q 581 -4 474 -4 m 581 22 q 394 57 481 22 q 244 155 308 92 q 145 302 181 218 q 110 486 110 386 q 145 670 110 586 q 244 817 181 754 q 394 915 308 881 q 581 950 481 950 q 767 915 681 950 q 917 817 853 881 q 1016 670 981 754 q 1051 486 1051 586 q 1016 302 1051 386 q 917 155 981 218 q 767 57 853 92 q 581 22 681 22 m 138 -97 l 169 -97 l 1024 1069 l 992 1069 l 138 -97 "},"Õ":{"ha":1161,"x_min":82,"x_max":1079,"o":"m 581 -4 q 778 33 688 -4 q 937 136 869 69 q 1042 292 1004 203 q 1079 486 1079 381 q 1042 681 1079 592 q 937 836 1004 769 q 778 940 869 903 q 581 976 688 976 q 383 940 474 976 q 224 836 292 903 q 119 681 157 769 q 82 486 82 592 q 119 292 82 381 q 224 136 157 203 q 383 33 292 69 q 581 -4 474 -4 m 581 22 q 394 57 481 22 q 244 155 308 92 q 145 302 181 218 q 110 486 110 386 q 145 670 110 586 q 244 817 181 754 q 394 915 308 881 q 581 950 481 950 q 767 915 681 950 q 917 817 853 881 q 1016 670 981 754 q 1051 486 1051 586 q 1016 302 1051 386 q 917 155 981 218 q 767 57 853 92 q 581 22 681 22 "},"Ṍ":{"ha":1161,"x_min":82,"x_max":1079,"o":"m 581 -4 q 778 33 688 -4 q 937 136 869 69 q 1042 292 1004 203 q 1079 486 1079 381 q 1042 681 1079 592 q 937 836 1004 769 q 778 940 869 903 q 581 976 688 976 q 383 940 474 976 q 224 836 292 903 q 119 681 157 769 q 82 486 82 592 q 119 292 82 381 q 224 136 157 203 q 383 33 292 69 q 581 -4 474 -4 m 581 22 q 394 57 481 22 q 244 155 308 92 q 145 302 181 218 q 110 486 110 386 q 145 670 110 586 q 244 817 181 754 q 394 915 308 881 q 581 950 481 950 q 767 915 681 950 q 917 817 853 881 q 1016 670 981 754 q 1051 486 1051 586 q 1016 302 1051 386 q 917 155 981 218 q 767 57 853 92 q 581 22 681 22 "},"Ṏ":{"ha":1161,"x_min":82,"x_max":1079,"o":"m 581 -4 q 778 33 688 -4 q 937 136 869 69 q 1042 292 1004 203 q 1079 486 1079 381 q 1042 681 1079 592 q 937 836 1004 769 q 778 940 869 903 q 581 976 688 976 q 383 940 474 976 q 224 836 292 903 q 119 681 157 769 q 82 486 82 592 q 119 292 82 381 q 224 136 157 203 q 383 33 292 69 q 581 -4 474 -4 m 581 22 q 394 57 481 22 q 244 155 308 92 q 145 302 181 218 q 110 486 110 386 q 145 670 110 586 q 244 817 181 754 q 394 915 308 881 q 581 950 481 950 q 767 915 681 950 q 917 817 853 881 q 1016 670 981 754 q 1051 486 1051 586 q 1016 302 1051 386 q 917 155 981 218 q 767 57 853 92 q 581 22 681 22 "},"Ȭ":{"ha":1161,"x_min":82,"x_max":1079,"o":"m 581 -4 q 778 33 688 -4 q 937 136 869 69 q 1042 292 1004 203 q 1079 486 1079 381 q 1042 681 1079 592 q 937 836 1004 769 q 778 940 869 903 q 581 976 688 976 q 383 940 474 976 q 224 836 292 903 q 119 681 157 769 q 82 486 82 592 q 119 292 82 381 q 224 136 157 203 q 383 33 292 69 q 581 -4 474 -4 m 581 22 q 394 57 481 22 q 244 155 308 92 q 145 302 181 218 q 110 486 110 386 q 145 670 110 586 q 244 817 181 754 q 394 915 308 881 q 581 950 481 950 q 767 915 681 950 q 917 817 853 881 q 1016 670 981 754 q 1051 486 1051 586 q 1016 302 1051 386 q 917 155 981 218 q 767 57 853 92 q 581 22 681 22 "},"Œ":{"ha":1544,"x_min":82,"x_max":1449,"o":"m 594 0 l 810 0 l 810 26 l 594 26 q 340 85 449 26 q 170 248 231 144 q 110 485 110 351 q 170 722 110 618 q 340 886 231 826 q 594 946 449 946 l 810 946 l 810 972 l 594 972 q 326 909 442 972 q 147 735 211 846 q 82 485 82 625 q 147 235 82 344 q 326 63 211 125 q 594 0 442 0 m 822 507 l 822 481 l 1365 481 l 1365 507 l 822 507 m 829 26 l 829 946 l 1428 946 l 1428 972 l 801 972 l 801 0 l 1449 0 l 1449 26 l 829 26 "},"P":{"ha":986,"x_min":185,"x_max":896,"o":"m 185 0 l 213 0 l 213 346 l 200 333 l 514 333 q 719 372 633 333 q 850 481 804 410 q 896 653 896 553 q 850 825 896 754 q 719 934 804 896 q 514 972 633 972 l 185 972 l 185 0 m 213 349 l 213 957 l 200 946 l 517 946 q 778 869 688 946 q 868 653 868 793 q 778 437 868 514 q 517 360 688 360 l 200 360 l 213 349 "},"Þ":{"ha":986,"x_min":185,"x_max":896,"o":"m 200 193 l 514 193 q 719 231 633 193 q 850 341 804 269 q 896 514 896 413 q 850 686 896 615 q 719 795 804 757 q 514 833 633 833 l 200 833 l 200 807 l 517 807 q 778 731 688 807 q 868 514 868 654 q 778 297 868 374 q 517 219 688 219 l 200 219 l 200 193 m 185 0 l 213 0 l 213 972 l 185 972 l 185 0 "},"Q":{"ha":1161,"x_min":82,"x_max":1121,"o":"m 581 -4 q 778 33 688 -4 q 937 136 869 69 q 1042 292 1004 203 q 1079 486 1079 381 q 1042 681 1079 592 q 937 836 1004 769 q 778 940 869 903 q 581 976 688 976 q 383 940 474 976 q 224 836 292 903 q 119 681 157 769 q 82 486 82 592 q 119 292 82 381 q 224 136 157 203 q 383 33 292 69 q 581 -4 474 -4 m 900 -172 q 1121 -67 1035 -172 l 1101 -47 q 900 -146 1019 -146 q 812 -128 857 -146 q 720 -76 767 -111 q 626 11 674 -40 l 590 4 q 674 -75 635 -42 q 752 -130 714 -108 q 826 -162 790 -151 q 900 -172 863 -172 m 581 22 q 394 58 481 22 q 244 156 308 93 q 145 303 181 219 q 110 486 110 388 q 145 669 110 585 q 244 816 181 753 q 394 915 308 879 q 581 950 481 950 q 767 915 681 950 q 917 816 853 879 q 1016 669 981 753 q 1051 486 1051 585 q 1016 303 1051 388 q 917 156 981 219 q 767 58 853 93 q 581 22 681 22 "},"R":{"ha":994,"x_min":185,"x_max":910,"o":"m 185 0 l 213 0 l 213 346 l 200 333 l 514 333 q 719 372 633 333 q 850 481 804 410 q 896 653 896 553 q 850 825 896 754 q 719 934 804 896 q 514 972 633 972 l 185 972 l 185 0 m 875 0 l 910 0 l 656 353 l 621 353 l 875 0 m 213 349 l 213 957 l 200 946 l 517 946 q 778 869 688 946 q 868 653 868 793 q 778 437 868 514 q 517 360 688 360 l 200 360 l 213 349 "},"Ŕ":{"ha":994,"x_min":185,"x_max":910,"o":"m 185 0 l 213 0 l 213 346 l 200 333 l 514 333 q 719 372 633 333 q 850 481 804 410 q 896 653 896 553 q 850 825 896 754 q 719 934 804 896 q 514 972 633 972 l 185 972 l 185 0 m 875 0 l 910 0 l 656 353 l 621 353 l 875 0 m 213 349 l 213 957 l 200 946 l 517 946 q 778 869 688 946 q 868 653 868 793 q 778 437 868 514 q 517 360 688 360 l 200 360 l 213 349 "},"Ř":{"ha":994,"x_min":185,"x_max":910,"o":"m 185 0 l 213 0 l 213 346 l 200 333 l 514 333 q 719 372 633 333 q 850 481 804 410 q 896 653 896 553 q 850 825 896 754 q 719 934 804 896 q 514 972 633 972 l 185 972 l 185 0 m 875 0 l 910 0 l 656 353 l 621 353 l 875 0 m 213 349 l 213 957 l 200 946 l 517 946 q 778 869 688 946 q 868 653 868 793 q 778 437 868 514 q 517 360 688 360 l 200 360 l 213 349 "},"Ŗ":{"ha":994,"x_min":185,"x_max":910,"o":"m 185 0 l 213 0 l 213 346 l 200 333 l 514 333 q 719 372 633 333 q 850 481 804 410 q 896 653 896 553 q 850 825 896 754 q 719 934 804 896 q 514 972 633 972 l 185 972 l 185 0 m 875 0 l 910 0 l 656 353 l 621 353 l 875 0 m 213 349 l 213 957 l 200 946 l 517 946 q 778 869 688 946 q 868 653 868 793 q 778 437 868 514 q 517 360 688 360 l 200 360 l 213 349 m 479 -360 l 504 -360 l 536 -253 q 542 -231 539 -242 q 544 -208 544 -219 q 535 -184 544 -196 q 508 -172 525 -172 q 483 -183 493 -172 q 472 -208 472 -193 q 483 -233 472 -222 q 508 -244 494 -244 l 507 -229 l 479 -360 "},"Ȑ":{"ha":994,"x_min":185,"x_max":910,"o":"m 185 0 l 213 0 l 213 346 l 200 333 l 514 333 q 719 372 633 333 q 850 481 804 410 q 896 653 896 553 q 850 825 896 754 q 719 934 804 896 q 514 972 633 972 l 185 972 l 185 0 m 875 0 l 910 0 l 656 353 l 621 353 l 875 0 m 213 349 l 213 957 l 200 946 l 517 946 q 778 869 688 946 q 868 653 868 793 q 778 437 868 514 q 517 360 688 360 l 200 360 l 213 349 "},"Ṛ":{"ha":994,"x_min":185,"x_max":910,"o":"m 185 0 l 213 0 l 213 346 l 200 333 l 514 333 q 719 372 633 333 q 850 481 804 410 q 896 653 896 553 q 850 825 896 754 q 719 934 804 896 q 514 972 633 972 l 185 972 l 185 0 m 875 0 l 910 0 l 656 353 l 621 353 l 875 0 m 213 349 l 213 957 l 200 946 l 517 946 q 778 869 688 946 q 868 653 868 793 q 778 437 868 514 q 517 360 688 360 l 200 360 l 213 349 m 508 -244 q 534 -233 524 -244 q 544 -208 544 -222 q 534 -183 544 -193 q 508 -172 524 -172 q 483 -183 494 -172 q 472 -208 472 -193 q 483 -233 472 -222 q 508 -244 494 -244 "},"Ȓ":{"ha":994,"x_min":185,"x_max":910,"o":"m 185 0 l 213 0 l 213 346 l 200 333 l 514 333 q 719 372 633 333 q 850 481 804 410 q 896 653 896 553 q 850 825 896 754 q 719 934 804 896 q 514 972 633 972 l 185 972 l 185 0 m 875 0 l 910 0 l 656 353 l 621 353 l 875 0 m 213 349 l 213 957 l 200 946 l 517 946 q 778 869 688 946 q 868 653 868 793 q 778 437 868 514 q 517 360 688 360 l 200 360 l 213 349 "},"Ṟ":{"ha":994,"x_min":185,"x_max":910,"o":"m 185 0 l 213 0 l 213 346 l 200 333 l 514 333 q 719 372 633 333 q 850 481 804 410 q 896 653 896 553 q 850 825 896 754 q 719 934 804 896 q 514 972 633 972 l 185 972 l 185 0 m 875 0 l 910 0 l 656 353 l 621 353 l 875 0 m 213 349 l 213 957 l 200 946 l 517 946 q 778 869 688 946 q 868 653 868 793 q 778 437 868 514 q 517 360 688 360 l 200 360 l 213 349 m 319 -222 l 697 -222 l 697 -194 l 319 -194 l 319 -222 "},"S":{"ha":835,"x_min":81,"x_max":754,"o":"m 422 -4 q 611 30 538 -4 q 719 119 685 64 q 754 239 754 175 q 721 360 754 314 q 632 433 688 406 q 511 477 576 460 q 380 510 446 494 q 258 551 314 526 q 169 617 203 575 q 136 731 136 660 q 168 841 136 792 q 267 920 200 890 q 435 950 333 950 q 571 929 500 950 q 700 865 642 908 l 715 888 q 587 952 663 928 q 433 976 511 976 q 248 942 319 976 q 142 851 176 907 q 108 732 108 796 q 142 608 108 656 q 231 534 175 561 q 352 490 286 507 q 483 458 418 474 q 604 417 549 442 q 693 351 660 393 q 726 239 726 308 q 694 130 726 179 q 594 51 661 81 q 421 22 526 22 q 233 60 319 22 q 100 151 146 97 l 81 133 q 223 35 129 74 q 422 -4 317 -4 "},"Ś":{"ha":835,"x_min":81,"x_max":754,"o":"m 422 -4 q 611 30 538 -4 q 719 119 685 64 q 754 239 754 175 q 721 360 754 314 q 632 433 688 406 q 511 477 576 460 q 380 510 446 494 q 258 551 314 526 q 169 617 203 575 q 136 731 136 660 q 168 841 136 792 q 267 920 200 890 q 435 950 333 950 q 571 929 500 950 q 700 865 642 908 l 715 888 q 587 952 663 928 q 433 976 511 976 q 248 942 319 976 q 142 851 176 907 q 108 732 108 796 q 142 608 108 656 q 231 534 175 561 q 352 490 286 507 q 483 458 418 474 q 604 417 549 442 q 693 351 660 393 q 726 239 726 308 q 694 130 726 179 q 594 51 661 81 q 421 22 526 22 q 233 60 319 22 q 100 151 146 97 l 81 133 q 223 35 129 74 q 422 -4 317 -4 "},"Ṥ":{"ha":835,"x_min":81,"x_max":754,"o":"m 422 -4 q 611 30 538 -4 q 719 119 685 64 q 754 239 754 175 q 721 360 754 314 q 632 433 688 406 q 511 477 576 460 q 380 510 446 494 q 258 551 314 526 q 169 617 203 575 q 136 731 136 660 q 168 841 136 792 q 267 920 200 890 q 435 950 333 950 q 571 929 500 950 q 700 865 642 908 l 715 888 q 587 952 663 928 q 433 976 511 976 q 248 942 319 976 q 142 851 176 907 q 108 732 108 796 q 142 608 108 656 q 231 534 175 561 q 352 490 286 507 q 483 458 418 474 q 604 417 549 442 q 693 351 660 393 q 726 239 726 308 q 694 130 726 179 q 594 51 661 81 q 421 22 526 22 q 233 60 319 22 q 100 151 146 97 l 81 133 q 223 35 129 74 q 422 -4 317 -4 "},"Ꞌ":{"ha":289,"x_min":131,"x_max":158,"o":"m 131 415 l 158 415 l 158 972 l 131 972 l 131 415 "},"Š":{"ha":835,"x_min":81,"x_max":754,"o":"m 422 -4 q 611 30 538 -4 q 719 119 685 64 q 754 239 754 175 q 721 360 754 314 q 632 433 688 406 q 511 477 576 460 q 380 510 446 494 q 258 551 314 526 q 169 617 203 575 q 136 731 136 660 q 168 841 136 792 q 267 920 200 890 q 435 950 333 950 q 571 929 500 950 q 700 865 642 908 l 715 888 q 587 952 663 928 q 433 976 511 976 q 248 942 319 976 q 142 851 176 907 q 108 732 108 796 q 142 608 108 656 q 231 534 175 561 q 352 490 286 507 q 483 458 418 474 q 604 417 549 442 q 693 351 660 393 q 726 239 726 308 q 694 130 726 179 q 594 51 661 81 q 421 22 526 22 q 233 60 319 22 q 100 151 146 97 l 81 133 q 223 35 129 74 q 422 -4 317 -4 "},"Ṧ":{"ha":835,"x_min":81,"x_max":754,"o":"m 422 -4 q 611 30 538 -4 q 719 119 685 64 q 754 239 754 175 q 721 360 754 314 q 632 433 688 406 q 511 477 576 460 q 380 510 446 494 q 258 551 314 526 q 169 617 203 575 q 136 731 136 660 q 168 841 136 792 q 267 920 200 890 q 435 950 333 950 q 571 929 500 950 q 700 865 642 908 l 715 888 q 587 952 663 928 q 433 976 511 976 q 248 942 319 976 q 142 851 176 907 q 108 732 108 796 q 142 608 108 656 q 231 534 175 561 q 352 490 286 507 q 483 458 418 474 q 604 417 549 442 q 693 351 660 393 q 726 239 726 308 q 694 130 726 179 q 594 51 661 81 q 421 22 526 22 q 233 60 319 22 q 100 151 146 97 l 81 133 q 223 35 129 74 q 422 -4 317 -4 "},"Ş":{"ha":835,"x_min":81,"x_max":754,"o":"m 422 -4 q 611 30 538 -4 q 719 119 685 64 q 754 239 754 175 q 721 360 754 314 q 632 433 688 406 q 511 477 576 460 q 380 510 446 494 q 258 551 314 526 q 169 617 203 575 q 136 731 136 660 q 168 841 136 792 q 267 920 200 890 q 435 950 333 950 q 571 929 500 950 q 700 865 642 908 l 715 888 q 587 952 663 928 q 433 976 511 976 q 248 942 319 976 q 142 851 176 907 q 108 732 108 796 q 142 608 108 656 q 231 534 175 561 q 352 490 286 507 q 483 458 418 474 q 604 417 549 442 q 693 351 660 393 q 726 239 726 308 q 694 130 726 179 q 594 51 661 81 q 421 22 526 22 q 233 60 319 22 q 100 151 146 97 l 81 133 q 223 35 129 74 q 422 -4 317 -4 m 419 -296 q 510 -266 474 -296 q 546 -186 546 -236 q 515 -110 546 -139 q 431 -78 483 -81 l 454 7 l 428 7 l 397 -103 l 419 -103 q 492 -126 467 -103 q 518 -186 518 -150 q 490 -248 518 -226 q 418 -269 461 -269 q 372 -261 394 -269 q 332 -237 349 -253 l 317 -258 q 365 -287 340 -278 q 419 -296 390 -296 "},"Ŝ":{"ha":835,"x_min":81,"x_max":754,"o":"m 422 -4 q 611 30 538 -4 q 719 119 685 64 q 754 239 754 175 q 721 360 754 314 q 632 433 688 406 q 511 477 576 460 q 380 510 446 494 q 258 551 314 526 q 169 617 203 575 q 136 731 136 660 q 168 841 136 792 q 267 920 200 890 q 435 950 333 950 q 571 929 500 950 q 700 865 642 908 l 715 888 q 587 952 663 928 q 433 976 511 976 q 248 942 319 976 q 142 851 176 907 q 108 732 108 796 q 142 608 108 656 q 231 534 175 561 q 352 490 286 507 q 483 458 418 474 q 604 417 549 442 q 693 351 660 393 q 726 239 726 308 q 694 130 726 179 q 594 51 661 81 q 421 22 526 22 q 233 60 319 22 q 100 151 146 97 l 81 133 q 223 35 129 74 q 422 -4 317 -4 "},"Ș":{"ha":835,"x_min":81,"x_max":754,"o":"m 422 -4 q 611 30 538 -4 q 719 119 685 64 q 754 239 754 175 q 721 360 754 314 q 632 433 688 406 q 511 477 576 460 q 380 510 446 494 q 258 551 314 526 q 169 617 203 575 q 136 731 136 660 q 168 841 136 792 q 267 920 200 890 q 435 950 333 950 q 571 929 500 950 q 700 865 642 908 l 715 888 q 587 952 663 928 q 433 976 511 976 q 248 942 319 976 q 142 851 176 907 q 108 732 108 796 q 142 608 108 656 q 231 534 175 561 q 352 490 286 507 q 483 458 418 474 q 604 417 549 442 q 693 351 660 393 q 726 239 726 308 q 694 130 726 179 q 594 51 661 81 q 421 22 526 22 q 233 60 319 22 q 100 151 146 97 l 81 133 q 223 35 129 74 q 422 -4 317 -4 m 413 -360 l 438 -360 l 469 -253 q 475 -231 472 -242 q 478 -208 478 -219 q 468 -184 478 -196 q 442 -172 458 -172 q 416 -183 426 -172 q 406 -208 406 -193 q 417 -233 406 -222 q 442 -244 428 -244 l 440 -229 l 413 -360 "},"Ṡ":{"ha":835,"x_min":81,"x_max":754,"o":"m 422 -4 q 611 30 538 -4 q 719 119 685 64 q 754 239 754 175 q 721 360 754 314 q 632 433 688 406 q 511 477 576 460 q 380 510 446 494 q 258 551 314 526 q 169 617 203 575 q 136 731 136 660 q 168 841 136 792 q 267 920 200 890 q 435 950 333 950 q 571 929 500 950 q 700 865 642 908 l 715 888 q 587 952 663 928 q 433 976 511 976 q 248 942 319 976 q 142 851 176 907 q 108 732 108 796 q 142 608 108 656 q 231 534 175 561 q 352 490 286 507 q 483 458 418 474 q 604 417 549 442 q 693 351 660 393 q 726 239 726 308 q 694 130 726 179 q 594 51 661 81 q 421 22 526 22 q 233 60 319 22 q 100 151 146 97 l 81 133 q 223 35 129 74 q 422 -4 317 -4 "},"Ṣ":{"ha":835,"x_min":81,"x_max":754,"o":"m 422 -4 q 611 30 538 -4 q 719 119 685 64 q 754 239 754 175 q 721 360 754 314 q 632 433 688 406 q 511 477 576 460 q 380 510 446 494 q 258 551 314 526 q 169 617 203 575 q 136 731 136 660 q 168 841 136 792 q 267 920 200 890 q 435 950 333 950 q 571 929 500 950 q 700 865 642 908 l 715 888 q 587 952 663 928 q 433 976 511 976 q 248 942 319 976 q 142 851 176 907 q 108 732 108 796 q 142 608 108 656 q 231 534 175 561 q 352 490 286 507 q 483 458 418 474 q 604 417 549 442 q 693 351 660 393 q 726 239 726 308 q 694 130 726 179 q 594 51 661 81 q 421 22 526 22 q 233 60 319 22 q 100 151 146 97 l 81 133 q 223 35 129 74 q 422 -4 317 -4 m 442 -244 q 467 -233 457 -244 q 478 -208 478 -222 q 467 -183 478 -193 q 442 -172 457 -172 q 417 -183 428 -172 q 406 -208 406 -193 q 417 -233 406 -222 q 442 -244 428 -244 "},"Ṩ":{"ha":835,"x_min":81,"x_max":754,"o":"m 422 -4 q 611 30 538 -4 q 719 119 685 64 q 754 239 754 175 q 721 360 754 314 q 632 433 688 406 q 511 477 576 460 q 380 510 446 494 q 258 551 314 526 q 169 617 203 575 q 136 731 136 660 q 168 841 136 792 q 267 920 200 890 q 435 950 333 950 q 571 929 500 950 q 700 865 642 908 l 715 888 q 587 952 663 928 q 433 976 511 976 q 248 942 319 976 q 142 851 176 907 q 108 732 108 796 q 142 608 108 656 q 231 534 175 561 q 352 490 286 507 q 483 458 418 474 q 604 417 549 442 q 693 351 660 393 q 726 239 726 308 q 694 130 726 179 q 594 51 661 81 q 421 22 526 22 q 233 60 319 22 q 100 151 146 97 l 81 133 q 223 35 129 74 q 422 -4 317 -4 m 442 -244 q 467 -233 457 -244 q 478 -208 478 -222 q 467 -183 478 -193 q 442 -172 457 -172 q 417 -183 428 -172 q 406 -208 406 -193 q 417 -233 406 -222 q 442 -244 428 -244 "},"ẞ":{"ha":1031,"x_min":176,"x_max":940,"o":"m 628 -4 q 794 27 724 -4 q 902 119 864 58 q 940 268 940 179 q 901 417 940 357 q 793 508 863 478 q 631 539 724 539 q 573 535 601 539 q 519 524 544 532 l 521 510 l 856 854 l 856 876 q 769 933 817 911 q 669 965 722 954 q 558 976 615 976 q 352 930 438 976 q 222 797 267 883 q 176 589 176 710 l 176 0 l 204 0 l 204 586 q 296 856 204 763 q 561 950 388 950 q 711 928 639 950 q 838 858 783 907 l 842 875 l 494 518 l 504 496 q 565 508 532 504 q 631 513 597 513 q 835 451 758 513 q 913 268 913 390 q 837 85 913 147 q 636 22 761 22 q 540 32 585 22 q 454 61 494 42 l 443 35 q 531 6 488 15 q 628 -4 575 -4 "},"Ə":{"ha":1133,"x_min":82,"x_max":1051,"o":"m 567 -4 q 756 34 668 -4 q 910 140 843 72 q 1014 297 976 208 q 1051 488 1051 386 q 1014 681 1051 592 q 909 837 976 771 q 751 940 842 903 q 553 976 660 976 q 427 963 488 976 q 314 924 367 950 q 217 858 261 899 l 232 838 q 330 903 279 878 q 437 939 381 928 q 553 950 493 950 q 738 915 653 950 q 888 817 824 879 q 988 670 953 754 q 1024 488 1024 586 l 1024 485 q 988 303 1024 388 q 888 156 951 219 q 742 58 825 93 q 567 22 660 22 q 385 58 468 22 q 240 156 301 93 q 144 303 178 219 q 110 486 110 388 l 99 474 l 1031 474 l 1031 500 l 82 500 l 82 486 q 118 292 82 381 q 219 136 154 203 q 374 33 285 69 q 567 -4 463 -4 "},"T":{"ha":761,"x_min":6,"x_max":756,"o":"m 367 0 l 394 0 l 394 946 l 756 946 l 756 972 l 6 972 l 6 946 l 367 946 l 367 0 "},"Ŧ":{"ha":761,"x_min":6,"x_max":756,"o":"m 367 0 l 394 0 l 394 946 l 756 946 l 756 972 l 6 972 l 6 946 l 367 946 l 367 0 m 131 481 l 631 481 l 631 507 l 131 507 l 131 481 "},"Ť":{"ha":761,"x_min":6,"x_max":756,"o":"m 367 0 l 394 0 l 394 946 l 756 946 l 756 972 l 6 972 l 6 946 l 367 946 l 367 0 "},"Ţ":{"ha":761,"x_min":6,"x_max":756,"o":"m 367 0 l 394 0 l 394 946 l 756 946 l 756 972 l 6 972 l 6 946 l 367 946 l 367 0 m 358 -296 q 449 -266 413 -296 q 485 -186 485 -236 q 453 -110 485 -139 q 369 -78 422 -81 l 393 7 l 367 7 l 336 -103 l 358 -103 q 431 -126 406 -103 q 457 -186 457 -150 q 428 -248 457 -226 q 357 -269 400 -269 q 310 -261 333 -269 q 271 -237 288 -253 l 256 -258 q 304 -287 279 -278 q 358 -296 329 -296 "},"Ț":{"ha":761,"x_min":6,"x_max":756,"o":"m 367 0 l 394 0 l 394 946 l 756 946 l 756 972 l 6 972 l 6 946 l 367 946 l 367 0 m 351 -360 l 376 -360 l 408 -253 q 414 -231 411 -242 q 417 -208 417 -219 q 407 -184 417 -196 q 381 -172 397 -172 q 355 -183 365 -172 q 344 -208 344 -193 q 356 -233 344 -222 q 381 -244 367 -244 l 379 -229 l 351 -360 "},"Ṭ":{"ha":761,"x_min":6,"x_max":756,"o":"m 367 0 l 394 0 l 394 946 l 756 946 l 756 972 l 6 972 l 6 946 l 367 946 l 367 0 m 381 -244 q 406 -233 396 -244 q 417 -208 417 -222 q 406 -183 417 -193 q 381 -172 396 -172 q 356 -183 367 -172 q 344 -208 344 -193 q 356 -233 344 -222 q 381 -244 367 -244 "},"Ṯ":{"ha":761,"x_min":6,"x_max":756,"o":"m 367 0 l 394 0 l 394 946 l 756 946 l 756 972 l 6 972 l 6 946 l 367 946 l 367 0 m 192 -222 l 569 -222 l 569 -194 l 192 -194 l 192 -222 "},"U":{"ha":1103,"x_min":176,"x_max":926,"o":"m 551 -4 q 826 99 725 -4 q 926 407 926 201 l 926 972 l 899 972 l 899 408 q 808 118 899 214 q 551 22 717 22 q 295 118 386 22 q 204 408 204 214 l 204 972 l 176 972 l 176 407 q 277 99 176 201 q 551 -4 378 -4 "},"Ú":{"ha":1103,"x_min":176,"x_max":926,"o":"m 551 -4 q 826 99 725 -4 q 926 407 926 201 l 926 972 l 899 972 l 899 408 q 808 118 899 214 q 551 22 717 22 q 295 118 386 22 q 204 408 204 214 l 204 972 l 176 972 l 176 407 q 277 99 176 201 q 551 -4 378 -4 "},"Ŭ":{"ha":1103,"x_min":176,"x_max":926,"o":"m 551 -4 q 826 99 725 -4 q 926 407 926 201 l 926 972 l 899 972 l 899 408 q 808 118 899 214 q 551 22 717 22 q 295 118 386 22 q 204 408 204 214 l 204 972 l 176 972 l 176 407 q 277 99 176 201 q 551 -4 378 -4 "},"Ǔ":{"ha":1103,"x_min":176,"x_max":926,"o":"m 551 -4 q 826 99 725 -4 q 926 407 926 201 l 926 972 l 899 972 l 899 408 q 808 118 899 214 q 551 22 717 22 q 295 118 386 22 q 204 408 204 214 l 204 972 l 176 972 l 176 407 q 277 99 176 201 q 551 -4 378 -4 "},"Û":{"ha":1103,"x_min":176,"x_max":926,"o":"m 551 -4 q 826 99 725 -4 q 926 407 926 201 l 926 972 l 899 972 l 899 408 q 808 118 899 214 q 551 22 717 22 q 295 118 386 22 q 204 408 204 214 l 204 972 l 176 972 l 176 407 q 277 99 176 201 q 551 -4 378 -4 "},"Ȕ":{"ha":1103,"x_min":176,"x_max":926,"o":"m 551 -4 q 826 99 725 -4 q 926 407 926 201 l 926 972 l 899 972 l 899 408 q 808 118 899 214 q 551 22 717 22 q 295 118 386 22 q 204 408 204 214 l 204 972 l 176 972 l 176 407 q 277 99 176 201 q 551 -4 378 -4 "},"Ü":{"ha":1103,"x_min":176,"x_max":926,"o":"m 551 -4 q 826 99 725 -4 q 926 407 926 201 l 926 972 l 899 972 l 899 408 q 808 118 899 214 q 551 22 717 22 q 295 118 386 22 q 204 408 204 214 l 204 972 l 176 972 l 176 407 q 277 99 176 201 q 551 -4 378 -4 "},"Ụ":{"ha":1103,"x_min":176,"x_max":926,"o":"m 551 -4 q 826 99 725 -4 q 926 407 926 201 l 926 972 l 899 972 l 899 408 q 808 118 899 214 q 551 22 717 22 q 295 118 386 22 q 204 408 204 214 l 204 972 l 176 972 l 176 407 q 277 99 176 201 q 551 -4 378 -4 m 551 -244 q 577 -233 567 -244 q 588 -208 588 -222 q 577 -183 588 -193 q 551 -172 567 -172 q 526 -183 538 -172 q 515 -208 515 -193 q 526 -233 515 -222 q 551 -244 538 -244 "},"Ù":{"ha":1103,"x_min":176,"x_max":926,"o":"m 551 -4 q 826 99 725 -4 q 926 407 926 201 l 926 972 l 899 972 l 899 408 q 808 118 899 214 q 551 22 717 22 q 295 118 386 22 q 204 408 204 214 l 204 972 l 176 972 l 176 407 q 277 99 176 201 q 551 -4 378 -4 "},"Ủ":{"ha":1103,"x_min":176,"x_max":926,"o":"m 551 -4 q 826 99 725 -4 q 926 407 926 201 l 926 972 l 899 972 l 899 408 q 808 118 899 214 q 551 22 717 22 q 295 118 386 22 q 204 408 204 214 l 204 972 l 176 972 l 176 407 q 277 99 176 201 q 551 -4 378 -4 "},"Ư":{"ha":1103,"x_min":176,"x_max":1058,"o":"m 551 -4 q 826 99 725 -4 q 926 407 926 201 l 926 972 l 899 972 l 899 408 q 808 118 899 214 q 551 22 717 22 q 295 118 386 22 q 204 408 204 214 l 204 972 l 176 972 l 176 407 q 277 99 176 201 q 551 -4 378 -4 m 919 946 l 933 946 q 1030 983 1001 946 q 1058 1071 1058 1019 q 1050 1126 1058 1099 q 1028 1174 1042 1153 l 1003 1163 q 1022 1120 1014 1143 q 1031 1069 1031 1097 q 1009 1001 1031 1031 q 933 972 988 972 l 919 972 l 919 946 "},"Ứ":{"ha":1103,"x_min":176,"x_max":1058,"o":"m 551 -4 q 826 99 725 -4 q 926 407 926 201 l 926 972 l 899 972 l 899 408 q 808 118 899 214 q 551 22 717 22 q 295 118 386 22 q 204 408 204 214 l 204 972 l 176 972 l 176 407 q 277 99 176 201 q 551 -4 378 -4 m 919 946 l 933 946 q 1030 983 1001 946 q 1058 1071 1058 1019 q 1050 1126 1058 1099 q 1028 1174 1042 1153 l 1003 1163 q 1022 1120 1014 1143 q 1031 1069 1031 1097 q 1009 1001 1031 1031 q 933 972 988 972 l 919 972 l 919 946 "},"Ự":{"ha":1103,"x_min":176,"x_max":1058,"o":"m 551 -4 q 826 99 725 -4 q 926 407 926 201 l 926 972 l 899 972 l 899 408 q 808 118 899 214 q 551 22 717 22 q 295 118 386 22 q 204 408 204 214 l 204 972 l 176 972 l 176 407 q 277 99 176 201 q 551 -4 378 -4 m 919 946 l 933 946 q 1030 983 1001 946 q 1058 1071 1058 1019 q 1050 1126 1058 1099 q 1028 1174 1042 1153 l 1003 1163 q 1022 1120 1014 1143 q 1031 1069 1031 1097 q 1009 1001 1031 1031 q 933 972 988 972 l 919 972 l 919 946 m 551 -244 q 577 -233 567 -244 q 588 -208 588 -222 q 577 -183 588 -193 q 551 -172 567 -172 q 526 -183 538 -172 q 515 -208 515 -193 q 526 -233 515 -222 q 551 -244 538 -244 "},"Ừ":{"ha":1103,"x_min":176,"x_max":1058,"o":"m 551 -4 q 826 99 725 -4 q 926 407 926 201 l 926 972 l 899 972 l 899 408 q 808 118 899 214 q 551 22 717 22 q 295 118 386 22 q 204 408 204 214 l 204 972 l 176 972 l 176 407 q 277 99 176 201 q 551 -4 378 -4 m 919 946 l 933 946 q 1030 983 1001 946 q 1058 1071 1058 1019 q 1050 1126 1058 1099 q 1028 1174 1042 1153 l 1003 1163 q 1022 1120 1014 1143 q 1031 1069 1031 1097 q 1009 1001 1031 1031 q 933 972 988 972 l 919 972 l 919 946 "},"Ử":{"ha":1103,"x_min":176,"x_max":1058,"o":"m 551 -4 q 826 99 725 -4 q 926 407 926 201 l 926 972 l 899 972 l 899 408 q 808 118 899 214 q 551 22 717 22 q 295 118 386 22 q 204 408 204 214 l 204 972 l 176 972 l 176 407 q 277 99 176 201 q 551 -4 378 -4 m 919 946 l 933 946 q 1030 983 1001 946 q 1058 1071 1058 1019 q 1050 1126 1058 1099 q 1028 1174 1042 1153 l 1003 1163 q 1022 1120 1014 1143 q 1031 1069 1031 1097 q 1009 1001 1031 1031 q 933 972 988 972 l 919 972 l 919 946 "},"Ữ":{"ha":1103,"x_min":176,"x_max":1058,"o":"m 551 -4 q 826 99 725 -4 q 926 407 926 201 l 926 972 l 899 972 l 899 408 q 808 118 899 214 q 551 22 717 22 q 295 118 386 22 q 204 408 204 214 l 204 972 l 176 972 l 176 407 q 277 99 176 201 q 551 -4 378 -4 m 919 946 l 933 946 q 1030 983 1001 946 q 1058 1071 1058 1019 q 1050 1126 1058 1099 q 1028 1174 1042 1153 l 1003 1163 q 1022 1120 1014 1143 q 1031 1069 1031 1097 q 1009 1001 1031 1031 q 933 972 988 972 l 919 972 l 919 946 "},"Ű":{"ha":1103,"x_min":176,"x_max":926,"o":"m 551 -4 q 826 99 725 -4 q 926 407 926 201 l 926 972 l 899 972 l 899 408 q 808 118 899 214 q 551 22 717 22 q 295 118 386 22 q 204 408 204 214 l 204 972 l 176 972 l 176 407 q 277 99 176 201 q 551 -4 378 -4 "},"Ȗ":{"ha":1103,"x_min":176,"x_max":926,"o":"m 551 -4 q 826 99 725 -4 q 926 407 926 201 l 926 972 l 899 972 l 899 408 q 808 118 899 214 q 551 22 717 22 q 295 118 386 22 q 204 408 204 214 l 204 972 l 176 972 l 176 407 q 277 99 176 201 q 551 -4 378 -4 "},"Ū":{"ha":1103,"x_min":176,"x_max":926,"o":"m 551 -4 q 826 99 725 -4 q 926 407 926 201 l 926 972 l 899 972 l 899 408 q 808 118 899 214 q 551 22 717 22 q 295 118 386 22 q 204 408 204 214 l 204 972 l 176 972 l 176 407 q 277 99 176 201 q 551 -4 378 -4 "},"Ṻ":{"ha":1103,"x_min":176,"x_max":926,"o":"m 551 -4 q 826 99 725 -4 q 926 407 926 201 l 926 972 l 899 972 l 899 408 q 808 118 899 214 q 551 22 717 22 q 295 118 386 22 q 204 408 204 214 l 204 972 l 176 972 l 176 407 q 277 99 176 201 q 551 -4 378 -4 "},"Ų":{"ha":1103,"x_min":176,"x_max":926,"o":"m 899 972 l 899 408 q 808 118 899 214 q 551 22 717 22 q 295 118 386 22 q 204 408 204 214 l 204 972 l 176 972 l 176 407 q 277 99 176 201 q 551 -4 378 -4 q 578 -3 564 -4 q 604 -1 592 -3 l 626 19 q 506 -47 547 -11 q 451 -117 465 -83 q 436 -181 436 -151 q 472 -265 436 -235 q 563 -296 508 -296 q 617 -287 592 -296 q 665 -258 643 -278 l 650 -237 q 610 -261 633 -253 q 564 -269 588 -269 q 492 -247 521 -269 q 464 -181 464 -225 q 479 -122 464 -154 q 541 -54 494 -89 q 681 11 588 -19 q 862 144 797 49 q 926 407 926 239 l 926 972 l 899 972 "},"Ů":{"ha":1103,"x_min":176,"x_max":926,"o":"m 551 -4 q 826 99 725 -4 q 926 407 926 201 l 926 972 l 899 972 l 899 408 q 808 118 899 214 q 551 22 717 22 q 295 118 386 22 q 204 408 204 214 l 204 972 l 176 972 l 176 407 q 277 99 176 201 q 551 -4 378 -4 m 550 1083 q 617 1101 588 1083 q 663 1147 646 1118 q 679 1208 679 1175 q 663 1272 679 1243 q 617 1319 646 1301 q 550 1338 588 1338 q 485 1319 514 1338 q 439 1272 456 1301 q 422 1208 422 1243 q 439 1147 422 1175 q 484 1101 456 1118 q 550 1083 513 1083 m 550 1110 q 478 1138 506 1110 q 450 1208 450 1167 q 478 1281 450 1251 q 550 1311 507 1311 q 623 1281 594 1311 q 651 1208 651 1250 q 623 1139 651 1168 q 550 1110 594 1110 "},"Ũ":{"ha":1103,"x_min":176,"x_max":926,"o":"m 551 -4 q 826 99 725 -4 q 926 407 926 201 l 926 972 l 899 972 l 899 408 q 808 118 899 214 q 551 22 717 22 q 295 118 386 22 q 204 408 204 214 l 204 972 l 176 972 l 176 407 q 277 99 176 201 q 551 -4 378 -4 "},"Ṹ":{"ha":1103,"x_min":176,"x_max":926,"o":"m 551 -4 q 826 99 725 -4 q 926 407 926 201 l 926 972 l 899 972 l 899 408 q 808 118 899 214 q 551 22 717 22 q 295 118 386 22 q 204 408 204 214 l 204 972 l 176 972 l 176 407 q 277 99 176 201 q 551 -4 378 -4 "},"V":{"ha":931,"x_min":14,"x_max":917,"o":"m 451 0 l 479 0 l 917 972 l 885 972 l 458 22 l 472 22 l 46 972 l 14 972 l 451 0 "},"W":{"ha":1500,"x_min":63,"x_max":1438,"o":"m 396 0 l 424 0 l 753 942 l 747 942 l 1076 0 l 1104 0 l 1438 972 l 1408 972 l 1083 22 l 1097 22 l 764 972 l 736 972 l 403 22 l 418 22 l 93 972 l 63 972 l 396 0 "},"Ẃ":{"ha":1500,"x_min":63,"x_max":1438,"o":"m 396 0 l 424 0 l 753 942 l 747 942 l 1076 0 l 1104 0 l 1438 972 l 1408 972 l 1083 22 l 1097 22 l 764 972 l 736 972 l 403 22 l 418 22 l 93 972 l 63 972 l 396 0 "},"Ŵ":{"ha":1500,"x_min":63,"x_max":1438,"o":"m 396 0 l 424 0 l 753 942 l 747 942 l 1076 0 l 1104 0 l 1438 972 l 1408 972 l 1083 22 l 1097 22 l 764 972 l 736 972 l 403 22 l 418 22 l 93 972 l 63 972 l 396 0 "},"Ẅ":{"ha":1500,"x_min":63,"x_max":1438,"o":"m 396 0 l 424 0 l 753 942 l 747 942 l 1076 0 l 1104 0 l 1438 972 l 1408 972 l 1083 22 l 1097 22 l 764 972 l 736 972 l 403 22 l 418 22 l 93 972 l 63 972 l 396 0 "},"Ẁ":{"ha":1500,"x_min":63,"x_max":1438,"o":"m 396 0 l 424 0 l 753 942 l 747 942 l 1076 0 l 1104 0 l 1438 972 l 1408 972 l 1083 22 l 1097 22 l 764 972 l 736 972 l 403 22 l 418 22 l 93 972 l 63 972 l 396 0 "},"X":{"ha":863,"x_min":35,"x_max":828,"o":"m 35 0 l 68 0 l 435 488 l 426 488 l 793 0 l 828 0 l 444 508 l 444 497 l 800 972 l 767 972 l 428 518 l 436 518 l 97 972 l 63 972 l 422 492 l 422 514 l 35 0 "},"Y":{"ha":847,"x_min":14,"x_max":833,"o":"m 410 0 l 438 0 l 438 340 l 431 319 l 833 972 l 801 972 l 418 351 l 429 351 l 46 972 l 14 972 l 417 319 l 410 340 l 410 0 "},"Ý":{"ha":847,"x_min":14,"x_max":833,"o":"m 410 0 l 438 0 l 438 340 l 431 319 l 833 972 l 801 972 l 418 351 l 429 351 l 46 972 l 14 972 l 417 319 l 410 340 l 410 0 "},"Ŷ":{"ha":847,"x_min":14,"x_max":833,"o":"m 410 0 l 438 0 l 438 340 l 431 319 l 833 972 l 801 972 l 418 351 l 429 351 l 46 972 l 14 972 l 417 319 l 410 340 l 410 0 "},"Ÿ":{"ha":847,"x_min":14,"x_max":833,"o":"m 410 0 l 438 0 l 438 340 l 431 319 l 833 972 l 801 972 l 418 351 l 429 351 l 46 972 l 14 972 l 417 319 l 410 340 l 410 0 "},"Ẏ":{"ha":847,"x_min":14,"x_max":833,"o":"m 410 0 l 438 0 l 438 340 l 431 319 l 833 972 l 801 972 l 418 351 l 429 351 l 46 972 l 14 972 l 417 319 l 410 340 l 410 0 "},"Ỵ":{"ha":847,"x_min":14,"x_max":833,"o":"m 410 0 l 438 0 l 438 340 l 431 319 l 833 972 l 801 972 l 418 351 l 429 351 l 46 972 l 14 972 l 417 319 l 410 340 l 410 0 m 424 -244 q 449 -233 439 -244 q 460 -208 460 -222 q 449 -183 460 -193 q 424 -172 439 -172 q 399 -183 410 -172 q 388 -208 388 -193 q 399 -233 388 -222 q 424 -244 410 -244 "},"Ỳ":{"ha":847,"x_min":14,"x_max":833,"o":"m 410 0 l 438 0 l 438 340 l 431 319 l 833 972 l 801 972 l 418 351 l 429 351 l 46 972 l 14 972 l 417 319 l 410 340 l 410 0 "},"Ỷ":{"ha":847,"x_min":14,"x_max":833,"o":"m 410 0 l 438 0 l 438 340 l 431 319 l 833 972 l 801 972 l 418 351 l 429 351 l 46 972 l 14 972 l 417 319 l 410 340 l 410 0 "},"Ȳ":{"ha":847,"x_min":14,"x_max":833,"o":"m 410 0 l 438 0 l 438 340 l 431 319 l 833 972 l 801 972 l 418 351 l 429 351 l 46 972 l 14 972 l 417 319 l 410 340 l 410 0 "},"Ỹ":{"ha":847,"x_min":14,"x_max":833,"o":"m 410 0 l 438 0 l 438 340 l 431 319 l 833 972 l 801 972 l 418 351 l 429 351 l 46 972 l 14 972 l 417 319 l 410 340 l 410 0 "},"Z":{"ha":888,"x_min":69,"x_max":833,"o":"m 69 0 l 833 0 l 833 26 l 100 26 l 101 17 l 819 951 l 819 972 l 76 972 l 76 946 l 789 946 l 788 956 l 69 21 l 69 0 "},"Ź":{"ha":888,"x_min":69,"x_max":833,"o":"m 69 0 l 833 0 l 833 26 l 100 26 l 101 17 l 819 951 l 819 972 l 76 972 l 76 946 l 789 946 l 788 956 l 69 21 l 69 0 "},"Ž":{"ha":888,"x_min":69,"x_max":833,"o":"m 69 0 l 833 0 l 833 26 l 100 26 l 101 17 l 819 951 l 819 972 l 76 972 l 76 946 l 789 946 l 788 956 l 69 21 l 69 0 "},"Ż":{"ha":888,"x_min":69,"x_max":833,"o":"m 69 0 l 833 0 l 833 26 l 100 26 l 101 17 l 819 951 l 819 972 l 76 972 l 76 946 l 789 946 l 788 956 l 69 21 l 69 0 "},"Ẓ":{"ha":888,"x_min":69,"x_max":833,"o":"m 69 0 l 833 0 l 833 26 l 100 26 l 101 17 l 819 951 l 819 972 l 76 972 l 76 946 l 789 946 l 788 956 l 69 21 l 69 0 m 465 -244 q 491 -233 481 -244 q 501 -208 501 -222 q 491 -183 501 -193 q 465 -172 481 -172 q 440 -183 451 -172 q 429 -208 429 -193 q 440 -233 429 -222 q 465 -244 451 -244 "},"a":{"ha":797,"x_min":90,"x_max":646,"o":"m 618 0 l 646 0 l 646 471 q 580 658 646 594 q 389 722 514 722 q 235 693 308 722 q 110 615 161 664 l 129 596 q 243 668 176 640 q 390 696 310 696 q 560 639 501 696 q 618 469 618 582 l 618 194 l 618 171 l 618 0 m 344 -4 q 530 49 457 -4 q 632 188 603 101 l 618 206 q 516 70 583 118 q 344 22 449 22 q 178 70 238 22 q 118 199 118 118 q 170 317 118 271 q 344 364 222 364 l 633 364 l 633 390 l 346 390 q 194 363 250 390 q 115 292 139 336 q 90 197 90 249 q 120 92 90 138 q 207 21 150 46 q 344 -4 264 -4 "},"á":{"ha":797,"x_min":90,"x_max":646,"o":"m 618 0 l 646 0 l 646 471 q 580 658 646 594 q 389 722 514 722 q 235 693 308 722 q 110 615 161 664 l 129 596 q 243 668 176 640 q 390 696 310 696 q 560 639 501 696 q 618 469 618 582 l 618 194 l 618 171 l 618 0 m 344 -4 q 530 49 457 -4 q 632 188 603 101 l 618 206 q 516 70 583 118 q 344 22 449 22 q 178 70 238 22 q 118 199 118 118 q 170 317 118 271 q 344 364 222 364 l 633 364 l 633 390 l 346 390 q 194 363 250 390 q 115 292 139 336 q 90 197 90 249 q 120 92 90 138 q 207 21 150 46 q 344 -4 264 -4 m 317 843 l 358 843 l 567 996 l 511 996 l 317 843 "},"ă":{"ha":797,"x_min":90,"x_max":646,"o":"m 618 0 l 646 0 l 646 471 q 580 658 646 594 q 389 722 514 722 q 235 693 308 722 q 110 615 161 664 l 129 596 q 243 668 176 640 q 390 696 310 696 q 560 639 501 696 q 618 469 618 582 l 618 194 l 618 171 l 618 0 m 344 -4 q 530 49 457 -4 q 632 188 603 101 l 618 206 q 516 70 583 118 q 344 22 449 22 q 178 70 238 22 q 118 199 118 118 q 170 317 118 271 q 344 364 222 364 l 633 364 l 633 390 l 346 390 q 194 363 250 390 q 115 292 139 336 q 90 197 90 249 q 120 92 90 138 q 207 21 150 46 q 344 -4 264 -4 m 379 839 q 508 881 454 839 q 563 996 561 924 l 536 996 q 490 901 535 936 q 379 865 444 865 q 270 901 315 865 q 222 996 225 936 l 196 996 q 251 881 199 924 q 379 839 304 839 "},"ắ":{"ha":797,"x_min":90,"x_max":646,"o":"m 618 0 l 646 0 l 646 471 q 580 658 646 594 q 389 722 514 722 q 235 693 308 722 q 110 615 161 664 l 129 596 q 243 668 176 640 q 390 696 310 696 q 560 639 501 696 q 618 469 618 582 l 618 194 l 618 171 l 618 0 m 344 -4 q 530 49 457 -4 q 632 188 603 101 l 618 206 q 516 70 583 118 q 344 22 449 22 q 178 70 238 22 q 118 199 118 118 q 170 317 118 271 q 344 364 222 364 l 633 364 l 633 390 l 346 390 q 194 363 250 390 q 115 292 139 336 q 90 197 90 249 q 120 92 90 138 q 207 21 150 46 q 344 -4 264 -4 "},"ặ":{"ha":797,"x_min":90,"x_max":646,"o":"m 618 0 l 646 0 l 646 471 q 580 658 646 594 q 389 722 514 722 q 235 693 308 722 q 110 615 161 664 l 129 596 q 243 668 176 640 q 390 696 310 696 q 560 639 501 696 q 618 469 618 582 l 618 194 l 618 171 l 618 0 m 344 -4 q 530 49 457 -4 q 632 188 603 101 l 618 206 q 516 70 583 118 q 344 22 449 22 q 178 70 238 22 q 118 199 118 118 q 170 317 118 271 q 344 364 222 364 l 633 364 l 633 390 l 346 390 q 194 363 250 390 q 115 292 139 336 q 90 197 90 249 q 120 92 90 138 q 207 21 150 46 q 344 -4 264 -4 m 393 -244 q 419 -233 408 -244 q 429 -208 429 -222 q 419 -183 429 -193 q 393 -172 408 -172 q 368 -183 379 -172 q 357 -208 357 -193 q 368 -233 357 -222 q 393 -244 379 -244 m 379 839 q 508 881 454 839 q 563 996 561 924 l 536 996 q 490 901 535 936 q 379 865 444 865 q 270 901 315 865 q 222 996 225 936 l 196 996 q 251 881 199 924 q 379 839 304 839 "},"ằ":{"ha":797,"x_min":90,"x_max":646,"o":"m 618 0 l 646 0 l 646 471 q 580 658 646 594 q 389 722 514 722 q 235 693 308 722 q 110 615 161 664 l 129 596 q 243 668 176 640 q 390 696 310 696 q 560 639 501 696 q 618 469 618 582 l 618 194 l 618 171 l 618 0 m 344 -4 q 530 49 457 -4 q 632 188 603 101 l 618 206 q 516 70 583 118 q 344 22 449 22 q 178 70 238 22 q 118 199 118 118 q 170 317 118 271 q 344 364 222 364 l 633 364 l 633 390 l 346 390 q 194 363 250 390 q 115 292 139 336 q 90 197 90 249 q 120 92 90 138 q 207 21 150 46 q 344 -4 264 -4 "},"ẳ":{"ha":797,"x_min":90,"x_max":646,"o":"m 618 0 l 646 0 l 646 471 q 580 658 646 594 q 389 722 514 722 q 235 693 308 722 q 110 615 161 664 l 129 596 q 243 668 176 640 q 390 696 310 696 q 560 639 501 696 q 618 469 618 582 l 618 194 l 618 171 l 618 0 m 344 -4 q 530 49 457 -4 q 632 188 603 101 l 618 206 q 516 70 583 118 q 344 22 449 22 q 178 70 238 22 q 118 199 118 118 q 170 317 118 271 q 344 364 222 364 l 633 364 l 633 390 l 346 390 q 194 363 250 390 q 115 292 139 336 q 90 197 90 249 q 120 92 90 138 q 207 21 150 46 q 344 -4 264 -4 "},"ẵ":{"ha":797,"x_min":90,"x_max":646,"o":"m 618 0 l 646 0 l 646 471 q 580 658 646 594 q 389 722 514 722 q 235 693 308 722 q 110 615 161 664 l 129 596 q 243 668 176 640 q 390 696 310 696 q 560 639 501 696 q 618 469 618 582 l 618 194 l 618 171 l 618 0 m 344 -4 q 530 49 457 -4 q 632 188 603 101 l 618 206 q 516 70 583 118 q 344 22 449 22 q 178 70 238 22 q 118 199 118 118 q 170 317 118 271 q 344 364 222 364 l 633 364 l 633 390 l 346 390 q 194 363 250 390 q 115 292 139 336 q 90 197 90 249 q 120 92 90 138 q 207 21 150 46 q 344 -4 264 -4 "},"ǎ":{"ha":797,"x_min":90,"x_max":646,"o":"m 618 0 l 646 0 l 646 471 q 580 658 646 594 q 389 722 514 722 q 235 693 308 722 q 110 615 161 664 l 129 596 q 243 668 176 640 q 390 696 310 696 q 560 639 501 696 q 618 469 618 582 l 618 194 l 618 171 l 618 0 m 344 -4 q 530 49 457 -4 q 632 188 603 101 l 618 206 q 516 70 583 118 q 344 22 449 22 q 178 70 238 22 q 118 199 118 118 q 170 317 118 271 q 344 364 222 364 l 633 364 l 633 390 l 346 390 q 194 363 250 390 q 115 292 139 336 q 90 197 90 249 q 120 92 90 138 q 207 21 150 46 q 344 -4 264 -4 m 357 843 l 401 843 l 571 996 l 533 996 l 375 863 l 383 863 l 225 996 l 188 996 l 357 843 "},"â":{"ha":797,"x_min":90,"x_max":646,"o":"m 618 0 l 646 0 l 646 471 q 580 658 646 594 q 389 722 514 722 q 235 693 308 722 q 110 615 161 664 l 129 596 q 243 668 176 640 q 390 696 310 696 q 560 639 501 696 q 618 469 618 582 l 618 194 l 618 171 l 618 0 m 344 -4 q 530 49 457 -4 q 632 188 603 101 l 618 206 q 516 70 583 118 q 344 22 449 22 q 178 70 238 22 q 118 199 118 118 q 170 317 118 271 q 344 364 222 364 l 633 364 l 633 390 l 346 390 q 194 363 250 390 q 115 292 139 336 q 90 197 90 249 q 120 92 90 138 q 207 21 150 46 q 344 -4 264 -4 m 188 843 l 225 843 l 383 976 l 375 976 l 533 843 l 571 843 l 401 996 l 357 996 l 188 843 "},"ấ":{"ha":797,"x_min":90,"x_max":715,"o":"m 618 0 l 646 0 l 646 471 q 580 658 646 594 q 389 722 514 722 q 235 693 308 722 q 110 615 161 664 l 129 596 q 243 668 176 640 q 390 696 310 696 q 560 639 501 696 q 618 469 618 582 l 618 194 l 618 171 l 618 0 m 344 -4 q 530 49 457 -4 q 632 188 603 101 l 618 206 q 516 70 583 118 q 344 22 449 22 q 178 70 238 22 q 118 199 118 118 q 170 317 118 271 q 344 364 222 364 l 633 364 l 633 390 l 346 390 q 194 363 250 390 q 115 292 139 336 q 90 197 90 249 q 120 92 90 138 q 207 21 150 46 q 344 -4 264 -4 "},"ậ":{"ha":797,"x_min":90,"x_max":646,"o":"m 618 0 l 646 0 l 646 471 q 580 658 646 594 q 389 722 514 722 q 235 693 308 722 q 110 615 161 664 l 129 596 q 243 668 176 640 q 390 696 310 696 q 560 639 501 696 q 618 469 618 582 l 618 194 l 618 171 l 618 0 m 344 -4 q 530 49 457 -4 q 632 188 603 101 l 618 206 q 516 70 583 118 q 344 22 449 22 q 178 70 238 22 q 118 199 118 118 q 170 317 118 271 q 344 364 222 364 l 633 364 l 633 390 l 346 390 q 194 363 250 390 q 115 292 139 336 q 90 197 90 249 q 120 92 90 138 q 207 21 150 46 q 344 -4 264 -4 m 393 -244 q 419 -233 408 -244 q 429 -208 429 -222 q 419 -183 429 -193 q 393 -172 408 -172 q 368 -183 379 -172 q 357 -208 357 -193 q 368 -233 357 -222 q 393 -244 379 -244 m 188 843 l 225 843 l 383 976 l 375 976 l 533 843 l 571 843 l 401 996 l 357 996 l 188 843 "},"ầ":{"ha":797,"x_min":90,"x_max":646,"o":"m 618 0 l 646 0 l 646 471 q 580 658 646 594 q 389 722 514 722 q 235 693 308 722 q 110 615 161 664 l 129 596 q 243 668 176 640 q 390 696 310 696 q 560 639 501 696 q 618 469 618 582 l 618 194 l 618 171 l 618 0 m 344 -4 q 530 49 457 -4 q 632 188 603 101 l 618 206 q 516 70 583 118 q 344 22 449 22 q 178 70 238 22 q 118 199 118 118 q 170 317 118 271 q 344 364 222 364 l 633 364 l 633 390 l 346 390 q 194 363 250 390 q 115 292 139 336 q 90 197 90 249 q 120 92 90 138 q 207 21 150 46 q 344 -4 264 -4 "},"ẩ":{"ha":797,"x_min":90,"x_max":646,"o":"m 618 0 l 646 0 l 646 471 q 580 658 646 594 q 389 722 514 722 q 235 693 308 722 q 110 615 161 664 l 129 596 q 243 668 176 640 q 390 696 310 696 q 560 639 501 696 q 618 469 618 582 l 618 194 l 618 171 l 618 0 m 344 -4 q 530 49 457 -4 q 632 188 603 101 l 618 206 q 516 70 583 118 q 344 22 449 22 q 178 70 238 22 q 118 199 118 118 q 170 317 118 271 q 344 364 222 364 l 633 364 l 633 390 l 346 390 q 194 363 250 390 q 115 292 139 336 q 90 197 90 249 q 120 92 90 138 q 207 21 150 46 q 344 -4 264 -4 "},"ẫ":{"ha":797,"x_min":90,"x_max":646,"o":"m 618 0 l 646 0 l 646 471 q 580 658 646 594 q 389 722 514 722 q 235 693 308 722 q 110 615 161 664 l 129 596 q 243 668 176 640 q 390 696 310 696 q 560 639 501 696 q 618 469 618 582 l 618 194 l 618 171 l 618 0 m 344 -4 q 530 49 457 -4 q 632 188 603 101 l 618 206 q 516 70 583 118 q 344 22 449 22 q 178 70 238 22 q 118 199 118 118 q 170 317 118 271 q 344 364 222 364 l 633 364 l 633 390 l 346 390 q 194 363 250 390 q 115 292 139 336 q 90 197 90 249 q 120 92 90 138 q 207 21 150 46 q 344 -4 264 -4 "},"ȁ":{"ha":797,"x_min":90,"x_max":646,"o":"m 618 0 l 646 0 l 646 471 q 580 658 646 594 q 389 722 514 722 q 235 693 308 722 q 110 615 161 664 l 129 596 q 243 668 176 640 q 390 696 310 696 q 560 639 501 696 q 618 469 618 582 l 618 194 l 618 171 l 618 0 m 344 -4 q 530 49 457 -4 q 632 188 603 101 l 618 206 q 516 70 583 118 q 344 22 449 22 q 178 70 238 22 q 118 199 118 118 q 170 317 118 271 q 344 364 222 364 l 633 364 l 633 390 l 346 390 q 194 363 250 390 q 115 292 139 336 q 90 197 90 249 q 120 92 90 138 q 207 21 150 46 q 344 -4 264 -4 m 457 843 l 494 843 l 340 996 l 293 996 l 457 843 m 264 843 l 301 843 l 147 996 l 100 996 l 264 843 "},"ä":{"ha":797,"x_min":90,"x_max":646,"o":"m 618 0 l 646 0 l 646 471 q 580 658 646 594 q 389 722 514 722 q 235 693 308 722 q 110 615 161 664 l 129 596 q 243 668 176 640 q 390 696 310 696 q 560 639 501 696 q 618 469 618 582 l 618 194 l 618 171 l 618 0 m 344 -4 q 530 49 457 -4 q 632 188 603 101 l 618 206 q 516 70 583 118 q 344 22 449 22 q 178 70 238 22 q 118 199 118 118 q 170 317 118 271 q 344 364 222 364 l 633 364 l 633 390 l 346 390 q 194 363 250 390 q 115 292 139 336 q 90 197 90 249 q 120 92 90 138 q 207 21 150 46 q 344 -4 264 -4 m 493 890 q 519 901 508 890 q 529 926 529 913 q 519 952 529 942 q 493 963 508 963 q 468 952 479 963 q 457 926 457 942 q 468 901 457 913 q 493 890 479 890 m 265 890 q 291 901 281 890 q 301 926 301 913 q 291 952 301 942 q 265 963 281 963 q 240 952 251 963 q 229 926 229 942 q 240 901 229 913 q 265 890 251 890 "},"ạ":{"ha":797,"x_min":90,"x_max":646,"o":"m 618 0 l 646 0 l 646 471 q 580 658 646 594 q 389 722 514 722 q 235 693 308 722 q 110 615 161 664 l 129 596 q 243 668 176 640 q 390 696 310 696 q 560 639 501 696 q 618 469 618 582 l 618 194 l 618 171 l 618 0 m 344 -4 q 530 49 457 -4 q 632 188 603 101 l 618 206 q 516 70 583 118 q 344 22 449 22 q 178 70 238 22 q 118 199 118 118 q 170 317 118 271 q 344 364 222 364 l 633 364 l 633 390 l 346 390 q 194 363 250 390 q 115 292 139 336 q 90 197 90 249 q 120 92 90 138 q 207 21 150 46 q 344 -4 264 -4 m 393 -244 q 419 -233 408 -244 q 429 -208 429 -222 q 419 -183 429 -193 q 393 -172 408 -172 q 368 -183 379 -172 q 357 -208 357 -193 q 368 -233 357 -222 q 393 -244 379 -244 "},"à":{"ha":797,"x_min":90,"x_max":646,"o":"m 618 0 l 646 0 l 646 471 q 580 658 646 594 q 389 722 514 722 q 235 693 308 722 q 110 615 161 664 l 129 596 q 243 668 176 640 q 390 696 310 696 q 560 639 501 696 q 618 469 618 582 l 618 194 l 618 171 l 618 0 m 344 -4 q 530 49 457 -4 q 632 188 603 101 l 618 206 q 516 70 583 118 q 344 22 449 22 q 178 70 238 22 q 118 199 118 118 q 170 317 118 271 q 344 364 222 364 l 633 364 l 633 390 l 346 390 q 194 363 250 390 q 115 292 139 336 q 90 197 90 249 q 120 92 90 138 q 207 21 150 46 q 344 -4 264 -4 m 400 843 l 442 843 l 247 996 l 192 996 l 400 843 "},"ả":{"ha":797,"x_min":90,"x_max":646,"o":"m 618 0 l 646 0 l 646 471 q 580 658 646 594 q 389 722 514 722 q 235 693 308 722 q 110 615 161 664 l 129 596 q 243 668 176 640 q 390 696 310 696 q 560 639 501 696 q 618 469 618 582 l 618 194 l 618 171 l 618 0 m 344 -4 q 530 49 457 -4 q 632 188 603 101 l 618 206 q 516 70 583 118 q 344 22 449 22 q 178 70 238 22 q 118 199 118 118 q 170 317 118 271 q 344 364 222 364 l 633 364 l 633 390 l 346 390 q 194 363 250 390 q 115 292 139 336 q 90 197 90 249 q 120 92 90 138 q 207 21 150 46 q 344 -4 264 -4 m 382 838 q 459 894 435 863 q 483 968 483 926 q 453 1041 483 1014 q 374 1068 424 1068 q 324 1060 350 1068 q 278 1039 297 1053 l 289 1015 q 375 1042 329 1042 q 433 1020 411 1042 q 456 967 456 999 q 433 906 456 932 q 368 860 411 879 l 382 838 "},"ȃ":{"ha":797,"x_min":90,"x_max":646,"o":"m 618 0 l 646 0 l 646 471 q 580 658 646 594 q 389 722 514 722 q 235 693 308 722 q 110 615 161 664 l 129 596 q 243 668 176 640 q 390 696 310 696 q 560 639 501 696 q 618 469 618 582 l 618 194 l 618 171 l 618 0 m 344 -4 q 530 49 457 -4 q 632 188 603 101 l 618 206 q 516 70 583 118 q 344 22 449 22 q 178 70 238 22 q 118 199 118 118 q 170 317 118 271 q 344 364 222 364 l 633 364 l 633 390 l 346 390 q 194 363 250 390 q 115 292 139 336 q 90 197 90 249 q 120 92 90 138 q 207 21 150 46 q 344 -4 264 -4 m 196 843 l 222 843 q 270 939 225 904 q 379 974 315 974 q 490 939 444 974 q 536 843 535 904 l 563 843 q 508 958 561 917 q 379 1000 454 1000 q 251 958 304 1000 q 196 843 199 917 "},"ā":{"ha":797,"x_min":90,"x_max":646,"o":"m 618 0 l 646 0 l 646 471 q 580 658 646 594 q 389 722 514 722 q 235 693 308 722 q 110 615 161 664 l 129 596 q 243 668 176 640 q 390 696 310 696 q 560 639 501 696 q 618 469 618 582 l 618 194 l 618 171 l 618 0 m 344 -4 q 530 49 457 -4 q 632 188 603 101 l 618 206 q 516 70 583 118 q 344 22 449 22 q 178 70 238 22 q 118 199 118 118 q 170 317 118 271 q 344 364 222 364 l 633 364 l 633 390 l 346 390 q 194 363 250 390 q 115 292 139 336 q 90 197 90 249 q 120 92 90 138 q 207 21 150 46 q 344 -4 264 -4 m 190 906 l 568 906 l 568 933 l 190 933 l 190 906 "},"ą":{"ha":797,"x_min":90,"x_max":671,"o":"m 618 0 l 646 0 l 646 471 q 580 658 646 594 q 389 722 514 722 q 235 693 308 722 q 110 615 161 664 l 129 596 q 243 668 176 640 q 390 696 310 696 q 560 639 501 696 q 618 469 618 582 l 618 194 l 618 171 l 618 0 m 344 -4 q 530 49 457 -4 q 632 188 603 101 l 618 206 q 516 70 583 118 q 344 22 449 22 q 178 70 238 22 q 118 199 118 118 q 170 317 118 271 q 344 364 222 364 l 633 364 l 633 390 l 346 390 q 194 363 250 390 q 115 292 139 336 q 90 197 90 249 q 120 92 90 138 q 207 21 150 46 q 344 -4 264 -4 m 568 -296 q 623 -287 597 -296 q 671 -258 649 -278 l 656 -237 q 616 -261 639 -253 q 569 -269 593 -269 q 498 -247 526 -269 q 469 -181 469 -225 q 482 -126 469 -156 q 532 -65 494 -97 q 646 0 569 -32 l 632 22 q 512 -49 553 -12 q 456 -118 471 -85 q 442 -181 442 -151 q 478 -265 442 -235 q 568 -296 514 -296 "},"å":{"ha":797,"x_min":90,"x_max":646,"o":"m 618 0 l 646 0 l 646 471 q 580 658 646 594 q 389 722 514 722 q 235 693 308 722 q 110 615 161 664 l 129 596 q 243 668 176 640 q 390 696 310 696 q 560 639 501 696 q 618 469 618 582 l 618 194 l 618 171 l 618 0 m 344 -4 q 530 49 457 -4 q 632 188 603 101 l 618 206 q 516 70 583 118 q 344 22 449 22 q 178 70 238 22 q 118 199 118 118 q 170 317 118 271 q 344 364 222 364 l 633 364 l 633 390 l 346 390 q 194 363 250 390 q 115 292 139 336 q 90 197 90 249 q 120 92 90 138 q 207 21 150 46 q 344 -4 264 -4 m 378 829 q 444 847 415 829 q 490 892 474 864 q 507 954 507 921 q 490 1018 507 989 q 444 1065 474 1047 q 378 1083 415 1083 q 313 1065 342 1083 q 267 1018 283 1047 q 250 954 250 989 q 267 892 250 921 q 312 847 283 864 q 378 829 340 829 m 378 856 q 306 884 333 856 q 278 954 278 913 q 306 1027 278 997 q 378 1057 335 1057 q 451 1026 422 1057 q 479 954 479 996 q 451 885 479 914 q 378 856 422 856 "},"ǻ":{"ha":797,"x_min":90,"x_max":646,"o":"m 618 0 l 646 0 l 646 471 q 580 658 646 594 q 389 722 514 722 q 235 693 308 722 q 110 615 161 664 l 129 596 q 243 668 176 640 q 390 696 310 696 q 560 639 501 696 q 618 469 618 582 l 618 194 l 618 171 l 618 0 m 344 -4 q 530 49 457 -4 q 632 188 603 101 l 618 206 q 516 70 583 118 q 344 22 449 22 q 178 70 238 22 q 118 199 118 118 q 170 317 118 271 q 344 364 222 364 l 633 364 l 633 390 l 346 390 q 194 363 250 390 q 115 292 139 336 q 90 197 90 249 q 120 92 90 138 q 207 21 150 46 q 344 -4 264 -4 m 378 829 q 444 847 415 829 q 490 892 474 864 q 507 954 507 921 q 490 1018 507 989 q 444 1065 474 1047 q 378 1083 415 1083 q 313 1065 342 1083 q 267 1018 283 1047 q 250 954 250 989 q 267 892 250 921 q 312 847 283 864 q 378 829 340 829 m 378 856 q 306 884 333 856 q 278 954 278 913 q 306 1027 278 997 q 378 1057 335 1057 q 451 1026 422 1057 q 479 954 479 996 q 451 885 479 914 q 378 856 422 856 m 472 1035 l 590 1146 l 567 1164 l 443 1047 l 472 1035 "},"ã":{"ha":797,"x_min":90,"x_max":646,"o":"m 618 0 l 646 0 l 646 471 q 580 658 646 594 q 389 722 514 722 q 235 693 308 722 q 110 615 161 664 l 129 596 q 243 668 176 640 q 390 696 310 696 q 560 639 501 696 q 618 469 618 582 l 618 194 l 618 171 l 618 0 m 344 -4 q 530 49 457 -4 q 632 188 603 101 l 618 206 q 516 70 583 118 q 344 22 449 22 q 178 70 238 22 q 118 199 118 118 q 170 317 118 271 q 344 364 222 364 l 633 364 l 633 390 l 346 390 q 194 363 250 390 q 115 292 139 336 q 90 197 90 249 q 120 92 90 138 q 207 21 150 46 q 344 -4 264 -4 m 467 860 q 539 892 511 860 q 568 976 567 925 l 542 976 q 520 911 540 936 q 467 886 500 886 q 424 901 443 886 q 385 934 404 915 q 344 967 367 953 q 292 982 321 982 q 220 949 247 982 q 190 863 193 917 l 217 863 q 239 931 219 906 q 292 956 258 956 q 335 941 315 956 q 373 908 354 926 q 415 874 392 889 q 467 860 438 860 "},"æ":{"ha":1360,"x_min":90,"x_max":1285,"o":"m 344 -4 q 488 24 422 -4 q 597 109 554 51 q 647 260 640 167 l 629 263 q 706 115 654 174 q 829 26 758 56 q 978 -4 900 -4 q 1125 26 1056 -4 q 1242 114 1194 56 l 1222 133 q 1115 50 1179 78 q 978 22 1050 22 q 807 65 882 22 q 689 185 732 108 q 646 360 646 261 l 646 365 q 685 535 646 460 q 794 653 725 610 q 951 696 863 696 q 1109 653 1040 696 q 1218 535 1178 610 q 1258 365 1258 460 l 1269 389 l 640 389 l 640 363 l 1285 363 q 1285 367 1285 365 q 1285 369 1285 368 q 1260 511 1285 447 q 1189 623 1235 575 q 1083 697 1143 671 q 951 722 1022 722 q 760 661 842 722 q 642 499 678 600 l 646 486 q 574 664 639 606 q 389 722 510 722 q 235 693 308 722 q 110 615 161 664 l 129 596 q 243 668 176 640 q 390 696 310 696 q 560 639 501 696 q 618 469 618 582 l 618 281 q 542 89 618 156 q 344 22 465 22 q 178 70 238 22 q 118 199 118 118 q 170 316 118 269 q 344 363 222 363 l 626 363 l 626 389 l 346 389 q 194 362 250 389 q 115 292 139 335 q 90 197 90 249 q 157 51 90 107 q 344 -4 224 -4 "},"ǽ":{"ha":1360,"x_min":90,"x_max":1285,"o":"m 344 -4 q 488 24 422 -4 q 597 109 554 51 q 647 260 640 167 l 629 263 q 706 115 654 174 q 829 26 758 56 q 978 -4 900 -4 q 1125 26 1056 -4 q 1242 114 1194 56 l 1222 133 q 1115 50 1179 78 q 978 22 1050 22 q 807 65 882 22 q 689 185 732 108 q 646 360 646 261 l 646 365 q 685 535 646 460 q 794 653 725 610 q 951 696 863 696 q 1109 653 1040 696 q 1218 535 1178 610 q 1258 365 1258 460 l 1269 389 l 640 389 l 640 363 l 1285 363 q 1285 367 1285 365 q 1285 369 1285 368 q 1260 511 1285 447 q 1189 623 1235 575 q 1083 697 1143 671 q 951 722 1022 722 q 760 661 842 722 q 642 499 678 600 l 646 486 q 574 664 639 606 q 389 722 510 722 q 235 693 308 722 q 110 615 161 664 l 129 596 q 243 668 176 640 q 390 696 310 696 q 560 639 501 696 q 618 469 618 582 l 618 281 q 542 89 618 156 q 344 22 465 22 q 178 70 238 22 q 118 199 118 118 q 170 316 118 269 q 344 363 222 363 l 626 363 l 626 389 l 346 389 q 194 362 250 389 q 115 292 139 335 q 90 197 90 249 q 157 51 90 107 q 344 -4 224 -4 m 569 843 l 611 843 l 819 996 l 764 996 l 569 843 "},"b":{"ha":932,"x_min":160,"x_max":857,"o":"m 508 -4 q 686 42 607 -4 q 811 172 765 89 q 857 360 857 254 q 811 548 857 467 q 686 676 765 629 q 508 722 607 722 q 332 676 410 722 q 209 548 254 629 q 164 360 164 467 q 209 172 164 254 q 332 42 254 89 q 508 -4 410 -4 m 160 0 l 188 0 l 188 264 l 174 361 l 188 458 l 188 1031 l 160 1031 l 160 0 m 508 22 q 344 65 417 22 q 229 185 271 108 q 188 360 188 261 q 229 535 188 460 q 344 653 271 611 q 508 696 417 696 q 673 653 600 696 q 788 535 746 611 q 829 360 829 460 q 788 185 829 261 q 673 65 746 108 q 508 22 600 22 "},"c":{"ha":757,"x_min":75,"x_max":686,"o":"m 428 -4 q 573 25 506 -4 q 686 113 640 54 l 667 133 q 563 50 625 78 q 428 22 500 22 q 261 65 335 22 q 145 184 188 108 q 103 360 103 260 q 145 535 103 460 q 261 653 188 611 q 428 696 335 696 q 563 669 500 696 q 667 585 625 642 l 686 606 q 573 693 640 664 q 428 722 506 722 q 247 676 326 722 q 121 549 167 631 q 75 360 75 467 q 121 171 75 253 q 247 42 167 89 q 428 -4 326 -4 "},"ć":{"ha":757,"x_min":75,"x_max":686,"o":"m 428 -4 q 573 25 506 -4 q 686 113 640 54 l 667 133 q 563 50 625 78 q 428 22 500 22 q 261 65 335 22 q 145 184 188 108 q 103 360 103 260 q 145 535 103 460 q 261 653 188 611 q 428 696 335 696 q 563 669 500 696 q 667 585 625 642 l 686 606 q 573 693 640 664 q 428 722 506 722 q 247 676 326 722 q 121 549 167 631 q 75 360 75 467 q 121 171 75 253 q 247 42 167 89 q 428 -4 326 -4 m 342 843 l 383 843 l 592 996 l 536 996 l 342 843 "},"č":{"ha":757,"x_min":75,"x_max":686,"o":"m 428 -4 q 573 25 506 -4 q 686 113 640 54 l 667 133 q 563 50 625 78 q 428 22 500 22 q 261 65 335 22 q 145 184 188 108 q 103 360 103 260 q 145 535 103 460 q 261 653 188 611 q 428 696 335 696 q 563 669 500 696 q 667 585 625 642 l 686 606 q 573 693 640 664 q 428 722 506 722 q 247 676 326 722 q 121 549 167 631 q 75 360 75 467 q 121 171 75 253 q 247 42 167 89 q 428 -4 326 -4 m 382 843 l 426 843 l 596 996 l 558 996 l 400 863 l 408 863 l 250 996 l 213 996 l 382 843 "},"ç":{"ha":757,"x_min":75,"x_max":686,"o":"m 428 -4 q 573 25 506 -4 q 686 113 640 54 l 667 133 q 563 50 625 78 q 428 22 500 22 q 261 65 335 22 q 145 184 188 108 q 103 360 103 260 q 145 535 103 460 q 261 653 188 611 q 428 696 335 696 q 563 669 500 696 q 667 585 625 642 l 686 606 q 573 693 640 664 q 428 722 506 722 q 247 676 326 722 q 121 549 167 631 q 75 360 75 467 q 121 171 75 253 q 247 42 167 89 q 428 -4 326 -4 m 382 -296 q 472 -266 436 -296 q 508 -186 508 -236 q 477 -110 508 -139 q 393 -78 446 -81 l 417 7 l 390 7 l 360 -103 l 382 -103 q 455 -126 429 -103 q 481 -186 481 -150 q 452 -248 481 -226 q 381 -269 424 -269 q 334 -261 357 -269 q 294 -237 311 -253 l 279 -258 q 328 -287 303 -278 q 382 -296 353 -296 "},"ḉ":{"ha":757,"x_min":75,"x_max":686,"o":"m 428 -4 q 573 25 506 -4 q 686 113 640 54 l 667 133 q 563 50 625 78 q 428 22 500 22 q 261 65 335 22 q 145 184 188 108 q 103 360 103 260 q 145 535 103 460 q 261 653 188 611 q 428 696 335 696 q 563 669 500 696 q 667 585 625 642 l 686 606 q 573 693 640 664 q 428 722 506 722 q 247 676 326 722 q 121 549 167 631 q 75 360 75 467 q 121 171 75 253 q 247 42 167 89 q 428 -4 326 -4 m 382 -296 q 472 -266 436 -296 q 508 -186 508 -236 q 477 -110 508 -139 q 393 -78 446 -81 l 417 7 l 390 7 l 360 -103 l 382 -103 q 455 -126 429 -103 q 481 -186 481 -150 q 452 -248 481 -226 q 381 -269 424 -269 q 334 -261 357 -269 q 294 -237 311 -253 l 279 -258 q 328 -287 303 -278 q 382 -296 353 -296 m 342 843 l 383 843 l 592 996 l 536 996 l 342 843 "},"ĉ":{"ha":757,"x_min":75,"x_max":686,"o":"m 428 -4 q 573 25 506 -4 q 686 113 640 54 l 667 133 q 563 50 625 78 q 428 22 500 22 q 261 65 335 22 q 145 184 188 108 q 103 360 103 260 q 145 535 103 460 q 261 653 188 611 q 428 696 335 696 q 563 669 500 696 q 667 585 625 642 l 686 606 q 573 693 640 664 q 428 722 506 722 q 247 676 326 722 q 121 549 167 631 q 75 360 75 467 q 121 171 75 253 q 247 42 167 89 q 428 -4 326 -4 m 213 843 l 250 843 l 408 976 l 400 976 l 558 843 l 596 843 l 426 996 l 382 996 l 213 843 "},"ċ":{"ha":757,"x_min":75,"x_max":686,"o":"m 428 -4 q 573 25 506 -4 q 686 113 640 54 l 667 133 q 563 50 625 78 q 428 22 500 22 q 261 65 335 22 q 145 184 188 108 q 103 360 103 260 q 145 535 103 460 q 261 653 188 611 q 428 696 335 696 q 563 669 500 696 q 667 585 625 642 l 686 606 q 573 693 640 664 q 428 722 506 722 q 247 676 326 722 q 121 549 167 631 q 75 360 75 467 q 121 171 75 253 q 247 42 167 89 q 428 -4 326 -4 m 404 890 q 430 901 419 890 q 440 926 440 913 q 430 952 440 942 q 404 963 419 963 q 379 952 390 963 q 368 926 368 942 q 379 901 368 913 q 404 890 390 890 "},"d":{"ha":932,"x_min":75,"x_max":772,"o":"m 424 -4 q 600 42 522 -4 q 723 172 678 89 q 768 360 768 254 q 723 548 768 467 q 600 676 678 629 q 424 722 522 722 q 246 676 325 722 q 121 548 167 629 q 75 360 75 467 q 121 172 75 254 q 246 42 167 89 q 424 -4 325 -4 m 424 22 q 260 65 332 22 q 145 185 188 108 q 103 360 103 261 q 145 535 103 460 q 260 653 188 611 q 424 696 332 696 q 588 653 515 696 q 703 535 661 611 q 744 360 744 460 q 703 185 744 261 q 588 65 661 108 q 424 22 515 22 m 744 0 l 772 0 l 772 1031 l 744 1031 l 744 458 l 758 361 l 744 264 l 744 0 "},"ð":{"ha":858,"x_min":75,"x_max":783,"o":"m 397 -4 q 611 57 525 -4 q 740 228 697 118 q 783 486 783 339 q 730 756 783 647 q 581 921 676 865 q 357 976 485 976 q 238 967 294 976 q 142 947 181 958 l 149 921 q 245 942 192 933 q 357 950 299 950 q 567 897 478 950 q 706 742 657 844 q 756 489 756 639 q 751 399 756 454 q 729 292 746 344 l 740 290 q 692 457 738 389 q 573 561 647 525 q 408 597 499 597 q 232 560 307 597 q 116 455 157 522 q 75 297 75 388 q 116 139 75 207 q 230 33 157 71 q 397 -4 303 -4 m 397 22 q 243 57 310 22 q 140 154 176 92 q 103 297 103 217 q 184 495 103 419 q 408 571 265 571 q 567 534 499 571 q 674 435 635 497 q 713 297 713 374 q 676 167 713 231 q 570 63 640 104 q 397 22 500 22 m 206 724 l 713 950 l 701 976 l 194 750 l 206 724 "},"ď":{"ha":932,"x_min":75,"x_max":939,"o":"m 424 -4 q 600 42 522 -4 q 723 172 678 89 q 768 360 768 254 q 723 548 768 467 q 600 676 678 629 q 424 722 522 722 q 246 676 325 722 q 121 548 167 629 q 75 360 75 467 q 121 172 75 254 q 246 42 167 89 q 424 -4 325 -4 m 424 22 q 260 65 332 22 q 145 185 188 108 q 103 360 103 261 q 145 535 103 460 q 260 653 188 611 q 424 696 332 696 q 588 653 515 696 q 703 535 661 611 q 744 360 744 460 q 703 185 744 261 q 588 65 661 108 q 424 22 515 22 m 744 0 l 772 0 l 772 1031 l 744 1031 l 744 458 l 758 361 l 744 264 l 744 0 m 911 808 l 936 808 l 939 1058 l 911 1058 l 911 808 "},"đ":{"ha":932,"x_min":75,"x_max":932,"o":"m 424 -4 q 600 42 522 -4 q 723 172 678 89 q 768 360 768 254 q 723 548 768 467 q 600 676 678 629 q 424 722 522 722 q 246 676 325 722 q 121 548 167 629 q 75 360 75 467 q 121 172 75 254 q 246 42 167 89 q 424 -4 325 -4 m 424 22 q 260 65 332 22 q 145 185 188 108 q 103 360 103 261 q 145 535 103 460 q 260 653 188 611 q 424 696 332 696 q 588 653 515 696 q 703 535 661 611 q 744 360 744 460 q 703 185 744 261 q 588 65 661 108 q 424 22 515 22 m 744 0 l 772 0 l 772 1031 l 744 1031 l 744 458 l 758 361 l 744 264 l 744 0 m 407 863 l 932 863 l 932 889 l 407 889 l 407 863 "},"ḍ":{"ha":932,"x_min":75,"x_max":772,"o":"m 424 -4 q 600 42 522 -4 q 723 172 678 89 q 768 360 768 254 q 723 548 768 467 q 600 676 678 629 q 424 722 522 722 q 246 676 325 722 q 121 548 167 629 q 75 360 75 467 q 121 172 75 254 q 246 42 167 89 q 424 -4 325 -4 m 424 22 q 260 65 332 22 q 145 185 188 108 q 103 360 103 261 q 145 535 103 460 q 260 653 188 611 q 424 696 332 696 q 588 653 515 696 q 703 535 661 611 q 744 360 744 460 q 703 185 744 261 q 588 65 661 108 q 424 22 515 22 m 744 0 l 772 0 l 772 1031 l 744 1031 l 744 458 l 758 361 l 744 264 l 744 0 m 456 -244 q 481 -233 471 -244 q 492 -208 492 -222 q 481 -183 492 -193 q 456 -172 471 -172 q 431 -183 442 -172 q 419 -208 419 -193 q 431 -233 419 -222 q 456 -244 442 -244 "},"ḏ":{"ha":932,"x_min":75,"x_max":772,"o":"m 424 -4 q 600 42 522 -4 q 723 172 678 89 q 768 360 768 254 q 723 548 768 467 q 600 676 678 629 q 424 722 522 722 q 246 676 325 722 q 121 548 167 629 q 75 360 75 467 q 121 172 75 254 q 246 42 167 89 q 424 -4 325 -4 m 424 22 q 260 65 332 22 q 145 185 188 108 q 103 360 103 261 q 145 535 103 460 q 260 653 188 611 q 424 696 332 696 q 588 653 515 696 q 703 535 661 611 q 744 360 744 460 q 703 185 744 261 q 588 65 661 108 q 424 22 515 22 m 744 0 l 772 0 l 772 1031 l 744 1031 l 744 458 l 758 361 l 744 264 l 744 0 m 267 -222 l 644 -222 l 644 -194 l 267 -194 l 267 -222 "},"ǆ":{"ha":1643,"x_min":75,"x_max":1550,"o":"m 424 -4 q 600 42 522 -4 q 723 172 678 89 q 768 360 768 254 q 723 548 768 467 q 600 676 678 629 q 424 722 522 722 q 246 676 325 722 q 121 548 167 629 q 75 360 75 467 q 121 172 75 254 q 246 42 167 89 q 424 -4 325 -4 m 424 22 q 260 65 332 22 q 145 185 188 108 q 103 360 103 261 q 145 535 103 460 q 260 653 188 611 q 424 696 332 696 q 588 653 515 696 q 703 535 661 611 q 744 360 744 460 q 703 185 744 261 q 588 65 661 108 q 424 22 515 22 m 744 0 l 772 0 l 772 1031 l 744 1031 l 744 458 l 758 361 l 744 264 l 744 0 "},"e":{"ha":815,"x_min":75,"x_max":740,"o":"m 433 -4 q 581 26 511 -4 q 697 114 650 56 l 678 133 q 570 50 635 78 q 433 22 506 22 q 263 65 338 22 q 144 185 188 108 q 101 360 101 261 l 101 365 q 141 535 101 460 q 250 653 181 610 q 407 696 319 696 q 565 653 496 696 q 674 535 633 610 q 714 365 714 460 l 725 386 l 90 386 l 90 360 l 740 360 q 740 364 740 363 q 740 367 740 365 q 697 551 740 471 q 577 677 653 632 q 407 722 501 722 q 237 676 313 722 q 118 548 161 629 q 75 360 75 467 q 122 172 75 254 q 249 42 168 89 q 433 -4 329 -4 "},"é":{"ha":815,"x_min":75,"x_max":740,"o":"m 433 -4 q 581 26 511 -4 q 697 114 650 56 l 678 133 q 570 50 635 78 q 433 22 506 22 q 263 65 338 22 q 144 185 188 108 q 101 360 101 261 l 101 365 q 141 535 101 460 q 250 653 181 610 q 407 696 319 696 q 565 653 496 696 q 674 535 633 610 q 714 365 714 460 l 725 386 l 90 386 l 90 360 l 740 360 q 740 364 740 363 q 740 367 740 365 q 697 551 740 471 q 577 677 653 632 q 407 722 501 722 q 237 676 313 722 q 118 548 161 629 q 75 360 75 467 q 122 172 75 254 q 249 42 168 89 q 433 -4 329 -4 m 346 843 l 388 843 l 596 996 l 540 996 l 346 843 "},"ĕ":{"ha":815,"x_min":75,"x_max":740,"o":"m 433 -4 q 581 26 511 -4 q 697 114 650 56 l 678 133 q 570 50 635 78 q 433 22 506 22 q 263 65 338 22 q 144 185 188 108 q 101 360 101 261 l 101 365 q 141 535 101 460 q 250 653 181 610 q 407 696 319 696 q 565 653 496 696 q 674 535 633 610 q 714 365 714 460 l 725 386 l 90 386 l 90 360 l 740 360 q 740 364 740 363 q 740 367 740 365 q 697 551 740 471 q 577 677 653 632 q 407 722 501 722 q 237 676 313 722 q 118 548 161 629 q 75 360 75 467 q 122 172 75 254 q 249 42 168 89 q 433 -4 329 -4 m 408 839 q 537 881 483 839 q 592 996 590 924 l 565 996 q 519 901 564 936 q 408 865 474 865 q 299 901 344 865 q 251 996 254 936 l 225 996 q 281 881 228 924 q 408 839 333 839 "},"ě":{"ha":815,"x_min":75,"x_max":740,"o":"m 433 -4 q 581 26 511 -4 q 697 114 650 56 l 678 133 q 570 50 635 78 q 433 22 506 22 q 263 65 338 22 q 144 185 188 108 q 101 360 101 261 l 101 365 q 141 535 101 460 q 250 653 181 610 q 407 696 319 696 q 565 653 496 696 q 674 535 633 610 q 714 365 714 460 l 725 386 l 90 386 l 90 360 l 740 360 q 740 364 740 363 q 740 367 740 365 q 697 551 740 471 q 577 677 653 632 q 407 722 501 722 q 237 676 313 722 q 118 548 161 629 q 75 360 75 467 q 122 172 75 254 q 249 42 168 89 q 433 -4 329 -4 m 386 843 l 431 843 l 600 996 l 563 996 l 404 863 l 413 863 l 254 996 l 217 996 l 386 843 "},"ḝ":{"ha":815,"x_min":75,"x_max":740,"o":"m 433 -4 q 581 26 511 -4 q 697 114 650 56 l 678 133 q 570 50 635 78 q 433 22 506 22 q 263 65 338 22 q 144 185 188 108 q 101 360 101 261 l 101 365 q 141 535 101 460 q 250 653 181 610 q 407 696 319 696 q 565 653 496 696 q 674 535 633 610 q 714 365 714 460 l 725 386 l 90 386 l 90 360 l 740 360 q 740 364 740 363 q 740 367 740 365 q 697 551 740 471 q 577 677 653 632 q 407 722 501 722 q 237 676 313 722 q 118 548 161 629 q 75 360 75 467 q 122 172 75 254 q 249 42 168 89 q 433 -4 329 -4 m 386 -296 q 476 -266 440 -296 q 513 -186 513 -236 q 481 -110 513 -139 q 397 -78 450 -81 l 421 7 l 394 7 l 364 -103 l 386 -103 q 459 -126 433 -103 q 485 -186 485 -150 q 456 -248 485 -226 q 385 -269 428 -269 q 338 -261 361 -269 q 299 -237 315 -253 l 283 -258 q 332 -287 307 -278 q 386 -296 357 -296 m 408 839 q 537 881 483 839 q 592 996 590 924 l 565 996 q 519 901 564 936 q 408 865 474 865 q 299 901 344 865 q 251 996 254 936 l 225 996 q 281 881 228 924 q 408 839 333 839 "},"ê":{"ha":815,"x_min":75,"x_max":740,"o":"m 433 -4 q 581 26 511 -4 q 697 114 650 56 l 678 133 q 570 50 635 78 q 433 22 506 22 q 263 65 338 22 q 144 185 188 108 q 101 360 101 261 l 101 365 q 141 535 101 460 q 250 653 181 610 q 407 696 319 696 q 565 653 496 696 q 674 535 633 610 q 714 365 714 460 l 725 386 l 90 386 l 90 360 l 740 360 q 740 364 740 363 q 740 367 740 365 q 697 551 740 471 q 577 677 653 632 q 407 722 501 722 q 237 676 313 722 q 118 548 161 629 q 75 360 75 467 q 122 172 75 254 q 249 42 168 89 q 433 -4 329 -4 m 217 843 l 254 843 l 413 976 l 404 976 l 563 843 l 600 843 l 431 996 l 386 996 l 217 843 "},"ế":{"ha":815,"x_min":75,"x_max":744,"o":"m 433 -4 q 581 26 511 -4 q 697 114 650 56 l 678 133 q 570 50 635 78 q 433 22 506 22 q 263 65 338 22 q 144 185 188 108 q 101 360 101 261 l 101 365 q 141 535 101 460 q 250 653 181 610 q 407 696 319 696 q 565 653 496 696 q 674 535 633 610 q 714 365 714 460 l 725 386 l 90 386 l 90 360 l 740 360 q 740 364 740 363 q 740 367 740 365 q 697 551 740 471 q 577 677 653 632 q 407 722 501 722 q 237 676 313 722 q 118 548 161 629 q 75 360 75 467 q 122 172 75 254 q 249 42 168 89 q 433 -4 329 -4 "},"ệ":{"ha":815,"x_min":75,"x_max":740,"o":"m 433 -4 q 581 26 511 -4 q 697 114 650 56 l 678 133 q 570 50 635 78 q 433 22 506 22 q 263 65 338 22 q 144 185 188 108 q 101 360 101 261 l 101 365 q 141 535 101 460 q 250 653 181 610 q 407 696 319 696 q 565 653 496 696 q 674 535 633 610 q 714 365 714 460 l 725 386 l 90 386 l 90 360 l 740 360 q 740 364 740 363 q 740 367 740 365 q 697 551 740 471 q 577 677 653 632 q 407 722 501 722 q 237 676 313 722 q 118 548 161 629 q 75 360 75 467 q 122 172 75 254 q 249 42 168 89 q 433 -4 329 -4 m 408 -244 q 434 -233 424 -244 q 444 -208 444 -222 q 434 -183 444 -193 q 408 -172 424 -172 q 383 -183 394 -172 q 372 -208 372 -193 q 383 -233 372 -222 q 408 -244 394 -244 m 217 843 l 254 843 l 413 976 l 404 976 l 563 843 l 600 843 l 431 996 l 386 996 l 217 843 "},"ề":{"ha":815,"x_min":75,"x_max":740,"o":"m 433 -4 q 581 26 511 -4 q 697 114 650 56 l 678 133 q 570 50 635 78 q 433 22 506 22 q 263 65 338 22 q 144 185 188 108 q 101 360 101 261 l 101 365 q 141 535 101 460 q 250 653 181 610 q 407 696 319 696 q 565 653 496 696 q 674 535 633 610 q 714 365 714 460 l 725 386 l 90 386 l 90 360 l 740 360 q 740 364 740 363 q 740 367 740 365 q 697 551 740 471 q 577 677 653 632 q 407 722 501 722 q 237 676 313 722 q 118 548 161 629 q 75 360 75 467 q 122 172 75 254 q 249 42 168 89 q 433 -4 329 -4 "},"ể":{"ha":815,"x_min":75,"x_max":740,"o":"m 433 -4 q 581 26 511 -4 q 697 114 650 56 l 678 133 q 570 50 635 78 q 433 22 506 22 q 263 65 338 22 q 144 185 188 108 q 101 360 101 261 l 101 365 q 141 535 101 460 q 250 653 181 610 q 407 696 319 696 q 565 653 496 696 q 674 535 633 610 q 714 365 714 460 l 725 386 l 90 386 l 90 360 l 740 360 q 740 364 740 363 q 740 367 740 365 q 697 551 740 471 q 577 677 653 632 q 407 722 501 722 q 237 676 313 722 q 118 548 161 629 q 75 360 75 467 q 122 172 75 254 q 249 42 168 89 q 433 -4 329 -4 "},"ễ":{"ha":815,"x_min":75,"x_max":740,"o":"m 433 -4 q 581 26 511 -4 q 697 114 650 56 l 678 133 q 570 50 635 78 q 433 22 506 22 q 263 65 338 22 q 144 185 188 108 q 101 360 101 261 l 101 365 q 141 535 101 460 q 250 653 181 610 q 407 696 319 696 q 565 653 496 696 q 674 535 633 610 q 714 365 714 460 l 725 386 l 90 386 l 90 360 l 740 360 q 740 364 740 363 q 740 367 740 365 q 697 551 740 471 q 577 677 653 632 q 407 722 501 722 q 237 676 313 722 q 118 548 161 629 q 75 360 75 467 q 122 172 75 254 q 249 42 168 89 q 433 -4 329 -4 "},"ȅ":{"ha":815,"x_min":75,"x_max":740,"o":"m 433 -4 q 581 26 511 -4 q 697 114 650 56 l 678 133 q 570 50 635 78 q 433 22 506 22 q 263 65 338 22 q 144 185 188 108 q 101 360 101 261 l 101 365 q 141 535 101 460 q 250 653 181 610 q 407 696 319 696 q 565 653 496 696 q 674 535 633 610 q 714 365 714 460 l 725 386 l 90 386 l 90 360 l 740 360 q 740 364 740 363 q 740 367 740 365 q 697 551 740 471 q 577 677 653 632 q 407 722 501 722 q 237 676 313 722 q 118 548 161 629 q 75 360 75 467 q 122 172 75 254 q 249 42 168 89 q 433 -4 329 -4 m 486 843 l 524 843 l 369 996 l 322 996 l 486 843 m 293 843 l 331 843 l 176 996 l 129 996 l 293 843 "},"ë":{"ha":815,"x_min":75,"x_max":740,"o":"m 433 -4 q 581 26 511 -4 q 697 114 650 56 l 678 133 q 570 50 635 78 q 433 22 506 22 q 263 65 338 22 q 144 185 188 108 q 101 360 101 261 l 101 365 q 141 535 101 460 q 250 653 181 610 q 407 696 319 696 q 565 653 496 696 q 674 535 633 610 q 714 365 714 460 l 725 386 l 90 386 l 90 360 l 740 360 q 740 364 740 363 q 740 367 740 365 q 697 551 740 471 q 577 677 653 632 q 407 722 501 722 q 237 676 313 722 q 118 548 161 629 q 75 360 75 467 q 122 172 75 254 q 249 42 168 89 q 433 -4 329 -4 m 522 890 q 548 901 538 890 q 558 926 558 913 q 548 952 558 942 q 522 963 538 963 q 497 952 508 963 q 486 926 486 942 q 497 901 486 913 q 522 890 508 890 m 294 890 q 320 901 310 890 q 331 926 331 913 q 320 952 331 942 q 294 963 310 963 q 269 952 281 963 q 258 926 258 942 q 269 901 258 913 q 294 890 281 890 "},"ė":{"ha":815,"x_min":75,"x_max":740,"o":"m 433 -4 q 581 26 511 -4 q 697 114 650 56 l 678 133 q 570 50 635 78 q 433 22 506 22 q 263 65 338 22 q 144 185 188 108 q 101 360 101 261 l 101 365 q 141 535 101 460 q 250 653 181 610 q 407 696 319 696 q 565 653 496 696 q 674 535 633 610 q 714 365 714 460 l 725 386 l 90 386 l 90 360 l 740 360 q 740 364 740 363 q 740 367 740 365 q 697 551 740 471 q 577 677 653 632 q 407 722 501 722 q 237 676 313 722 q 118 548 161 629 q 75 360 75 467 q 122 172 75 254 q 249 42 168 89 q 433 -4 329 -4 m 408 890 q 434 901 424 890 q 444 926 444 913 q 434 952 444 942 q 408 963 424 963 q 383 952 394 963 q 372 926 372 942 q 383 901 372 913 q 408 890 394 890 "},"ẹ":{"ha":815,"x_min":75,"x_max":740,"o":"m 433 -4 q 581 26 511 -4 q 697 114 650 56 l 678 133 q 570 50 635 78 q 433 22 506 22 q 263 65 338 22 q 144 185 188 108 q 101 360 101 261 l 101 365 q 141 535 101 460 q 250 653 181 610 q 407 696 319 696 q 565 653 496 696 q 674 535 633 610 q 714 365 714 460 l 725 386 l 90 386 l 90 360 l 740 360 q 740 364 740 363 q 740 367 740 365 q 697 551 740 471 q 577 677 653 632 q 407 722 501 722 q 237 676 313 722 q 118 548 161 629 q 75 360 75 467 q 122 172 75 254 q 249 42 168 89 q 433 -4 329 -4 m 408 -244 q 434 -233 424 -244 q 444 -208 444 -222 q 434 -183 444 -193 q 408 -172 424 -172 q 383 -183 394 -172 q 372 -208 372 -193 q 383 -233 372 -222 q 408 -244 394 -244 "},"è":{"ha":815,"x_min":75,"x_max":740,"o":"m 433 -4 q 581 26 511 -4 q 697 114 650 56 l 678 133 q 570 50 635 78 q 433 22 506 22 q 263 65 338 22 q 144 185 188 108 q 101 360 101 261 l 101 365 q 141 535 101 460 q 250 653 181 610 q 407 696 319 696 q 565 653 496 696 q 674 535 633 610 q 714 365 714 460 l 725 386 l 90 386 l 90 360 l 740 360 q 740 364 740 363 q 740 367 740 365 q 697 551 740 471 q 577 677 653 632 q 407 722 501 722 q 237 676 313 722 q 118 548 161 629 q 75 360 75 467 q 122 172 75 254 q 249 42 168 89 q 433 -4 329 -4 m 429 843 l 471 843 l 276 996 l 221 996 l 429 843 "},"ẻ":{"ha":815,"x_min":75,"x_max":740,"o":"m 433 -4 q 581 26 511 -4 q 697 114 650 56 l 678 133 q 570 50 635 78 q 433 22 506 22 q 263 65 338 22 q 144 185 188 108 q 101 360 101 261 l 101 365 q 141 535 101 460 q 250 653 181 610 q 407 696 319 696 q 565 653 496 696 q 674 535 633 610 q 714 365 714 460 l 725 386 l 90 386 l 90 360 l 740 360 q 740 364 740 363 q 740 367 740 365 q 697 551 740 471 q 577 677 653 632 q 407 722 501 722 q 237 676 313 722 q 118 548 161 629 q 75 360 75 467 q 122 172 75 254 q 249 42 168 89 q 433 -4 329 -4 m 411 838 q 488 894 464 863 q 513 968 513 926 q 483 1041 513 1014 q 403 1068 453 1068 q 353 1060 379 1068 q 307 1039 326 1053 l 318 1015 q 404 1042 358 1042 q 463 1020 440 1042 q 485 967 485 999 q 463 906 485 932 q 397 860 440 879 l 411 838 "},"ȇ":{"ha":815,"x_min":75,"x_max":740,"o":"m 433 -4 q 581 26 511 -4 q 697 114 650 56 l 678 133 q 570 50 635 78 q 433 22 506 22 q 263 65 338 22 q 144 185 188 108 q 101 360 101 261 l 101 365 q 141 535 101 460 q 250 653 181 610 q 407 696 319 696 q 565 653 496 696 q 674 535 633 610 q 714 365 714 460 l 725 386 l 90 386 l 90 360 l 740 360 q 740 364 740 363 q 740 367 740 365 q 697 551 740 471 q 577 677 653 632 q 407 722 501 722 q 237 676 313 722 q 118 548 161 629 q 75 360 75 467 q 122 172 75 254 q 249 42 168 89 q 433 -4 329 -4 m 225 843 l 251 843 q 299 939 254 904 q 408 974 344 974 q 519 939 474 974 q 565 843 564 904 l 592 843 q 537 958 590 917 q 408 1000 483 1000 q 281 958 333 1000 q 225 843 228 917 "},"ē":{"ha":815,"x_min":75,"x_max":740,"o":"m 433 -4 q 581 26 511 -4 q 697 114 650 56 l 678 133 q 570 50 635 78 q 433 22 506 22 q 263 65 338 22 q 144 185 188 108 q 101 360 101 261 l 101 365 q 141 535 101 460 q 250 653 181 610 q 407 696 319 696 q 565 653 496 696 q 674 535 633 610 q 714 365 714 460 l 725 386 l 90 386 l 90 360 l 740 360 q 740 364 740 363 q 740 367 740 365 q 697 551 740 471 q 577 677 653 632 q 407 722 501 722 q 237 676 313 722 q 118 548 161 629 q 75 360 75 467 q 122 172 75 254 q 249 42 168 89 q 433 -4 329 -4 m 219 906 l 597 906 l 597 933 l 219 933 l 219 906 "},"ḗ":{"ha":815,"x_min":75,"x_max":740,"o":"m 433 -4 q 581 26 511 -4 q 697 114 650 56 l 678 133 q 570 50 635 78 q 433 22 506 22 q 263 65 338 22 q 144 185 188 108 q 101 360 101 261 l 101 365 q 141 535 101 460 q 250 653 181 610 q 407 696 319 696 q 565 653 496 696 q 674 535 633 610 q 714 365 714 460 l 725 386 l 90 386 l 90 360 l 740 360 q 740 364 740 363 q 740 367 740 365 q 697 551 740 471 q 577 677 653 632 q 407 722 501 722 q 237 676 313 722 q 118 548 161 629 q 75 360 75 467 q 122 172 75 254 q 249 42 168 89 q 433 -4 329 -4 "},"ḕ":{"ha":815,"x_min":75,"x_max":740,"o":"m 433 -4 q 581 26 511 -4 q 697 114 650 56 l 678 133 q 570 50 635 78 q 433 22 506 22 q 263 65 338 22 q 144 185 188 108 q 101 360 101 261 l 101 365 q 141 535 101 460 q 250 653 181 610 q 407 696 319 696 q 565 653 496 696 q 674 535 633 610 q 714 365 714 460 l 725 386 l 90 386 l 90 360 l 740 360 q 740 364 740 363 q 740 367 740 365 q 697 551 740 471 q 577 677 653 632 q 407 722 501 722 q 237 676 313 722 q 118 548 161 629 q 75 360 75 467 q 122 172 75 254 q 249 42 168 89 q 433 -4 329 -4 "},"ę":{"ha":815,"x_min":75,"x_max":740,"o":"m 582 -296 q 637 -287 611 -296 q 685 -258 663 -278 l 669 -237 q 630 -261 653 -253 q 583 -269 607 -269 q 512 -247 540 -269 q 483 -179 483 -225 q 494 -119 483 -150 q 540 -45 506 -89 q 647 65 575 -1 q 675 90 663 79 q 697 114 688 101 l 678 133 q 570 50 635 78 q 433 22 506 22 q 263 65 338 22 q 144 185 188 108 q 101 360 101 261 l 101 365 q 141 535 101 460 q 250 653 181 610 q 407 696 319 696 q 565 653 496 696 q 674 535 633 610 q 714 365 714 460 l 725 386 l 90 386 l 90 360 l 740 360 q 740 364 740 363 q 740 367 740 365 q 697 551 740 471 q 577 677 653 632 q 407 722 501 722 q 237 676 313 722 q 118 548 161 629 q 75 360 75 467 q 122 172 75 254 q 249 42 168 89 q 433 -4 329 -4 q 512 4 474 -4 q 585 28 550 13 l 585 35 q 480 -86 504 -33 q 456 -179 456 -139 q 492 -265 456 -235 q 582 -296 528 -296 "},"ẽ":{"ha":815,"x_min":75,"x_max":740,"o":"m 433 -4 q 581 26 511 -4 q 697 114 650 56 l 678 133 q 570 50 635 78 q 433 22 506 22 q 263 65 338 22 q 144 185 188 108 q 101 360 101 261 l 101 365 q 141 535 101 460 q 250 653 181 610 q 407 696 319 696 q 565 653 496 696 q 674 535 633 610 q 714 365 714 460 l 725 386 l 90 386 l 90 360 l 740 360 q 740 364 740 363 q 740 367 740 365 q 697 551 740 471 q 577 677 653 632 q 407 722 501 722 q 237 676 313 722 q 118 548 161 629 q 75 360 75 467 q 122 172 75 254 q 249 42 168 89 q 433 -4 329 -4 m 496 860 q 568 892 540 860 q 597 976 596 925 l 571 976 q 549 911 569 936 q 496 886 529 886 q 453 901 472 886 q 415 934 433 915 q 373 967 396 953 q 321 982 350 982 q 249 949 276 982 q 219 863 222 917 l 246 863 q 268 931 249 906 q 321 956 288 956 q 364 941 344 956 q 402 908 383 926 q 444 874 421 889 q 496 860 467 860 "},"ə":{"ha":815,"x_min":75,"x_max":740,"o":"m 382 722 q 236 692 306 722 q 118 604 167 663 l 138 585 q 245 669 181 642 q 382 696 310 696 q 553 653 478 696 q 671 534 628 610 q 714 358 714 458 l 714 353 q 674 183 714 258 q 566 65 635 108 q 408 22 497 22 q 251 65 321 22 q 142 183 182 108 q 101 353 101 258 l 90 332 l 725 332 l 725 358 l 75 358 q 75 356 75 357 q 75 351 75 354 q 119 167 75 247 q 238 42 163 88 q 408 -4 314 -4 q 579 42 504 -4 q 697 171 654 89 q 740 358 740 253 q 694 547 740 465 q 567 676 647 629 q 382 722 486 722 "},"ʒ":{"ha":676,"x_min":-36,"x_max":618,"o":"m 297 -275 q 473 -240 401 -275 q 581 -144 544 -206 q 618 0 618 -82 q 534 199 618 124 q 278 275 450 275 l 257 275 l 260 265 l 582 697 l 582 718 l -6 718 l -6 692 l 554 692 l 551 701 l 229 269 l 229 249 l 279 249 q 515 181 439 249 q 590 0 590 114 q 516 -181 590 -114 q 297 -249 442 -249 q 106 -210 190 -249 q -18 -117 22 -172 l -36 -135 q 98 -235 8 -196 q 297 -275 188 -275 "},"ǯ":{"ha":676,"x_min":-36,"x_max":618,"o":"m 297 -275 q 473 -240 401 -275 q 581 -144 544 -206 q 618 0 618 -82 q 534 199 618 124 q 278 275 450 275 l 257 275 l 260 265 l 582 697 l 582 718 l -6 718 l -6 692 l 554 692 l 551 701 l 229 269 l 229 249 l 279 249 q 515 181 439 249 q 590 0 590 114 q 516 -181 590 -114 q 297 -249 442 -249 q 106 -210 190 -249 q -18 -117 22 -172 l -36 -135 q 98 -235 8 -196 q 297 -275 188 -275 m 274 843 l 318 843 l 488 996 l 450 996 l 292 863 l 300 863 l 142 996 l 104 996 l 274 843 "},"f":{"ha":432,"x_min":32,"x_max":485,"o":"m 171 0 l 199 0 l 199 699 l 199 714 l 199 851 q 236 968 199 928 q 346 1008 274 1008 q 412 997 381 1008 q 465 964 443 986 l 485 983 q 422 1022 460 1010 q 344 1035 383 1035 q 216 986 261 1035 q 171 858 171 938 l 171 0 m 32 692 l 442 692 l 442 718 l 32 718 l 32 692 "},"g":{"ha":940,"x_min":75,"x_max":781,"o":"m 449 -274 q 698 -192 615 -274 q 781 64 781 -110 l 781 718 l 753 718 l 753 457 l 767 374 l 753 290 l 753 60 q 678 -174 753 -100 q 449 -247 604 -247 q 282 -218 358 -247 q 150 -135 206 -189 l 131 -154 q 267 -242 182 -210 q 449 -274 351 -274 m 428 24 q 608 69 529 24 q 731 193 686 114 q 776 374 776 272 q 731 555 776 476 q 608 678 686 633 q 428 722 529 722 q 248 678 328 722 q 122 555 168 633 q 75 374 75 476 q 122 193 75 272 q 248 69 168 114 q 428 24 328 24 m 428 50 q 261 91 335 50 q 145 206 188 132 q 103 374 103 279 q 145 542 103 469 q 261 655 188 614 q 428 696 335 696 q 595 655 522 696 q 710 542 668 614 q 753 374 753 469 q 710 206 753 279 q 595 91 668 132 q 428 50 522 50 "},"ğ":{"ha":940,"x_min":75,"x_max":781,"o":"m 449 -274 q 698 -192 615 -274 q 781 64 781 -110 l 781 718 l 753 718 l 753 457 l 767 374 l 753 290 l 753 60 q 678 -174 753 -100 q 449 -247 604 -247 q 282 -218 358 -247 q 150 -135 206 -189 l 131 -154 q 267 -242 182 -210 q 449 -274 351 -274 m 428 24 q 608 69 529 24 q 731 193 686 114 q 776 374 776 272 q 731 555 776 476 q 608 678 686 633 q 428 722 529 722 q 248 678 328 722 q 122 555 168 633 q 75 374 75 476 q 122 193 75 272 q 248 69 168 114 q 428 24 328 24 m 428 50 q 261 91 335 50 q 145 206 188 132 q 103 374 103 279 q 145 542 103 469 q 261 655 188 614 q 428 696 335 696 q 595 655 522 696 q 710 542 668 614 q 753 374 753 469 q 710 206 753 279 q 595 91 668 132 q 428 50 522 50 m 438 839 q 566 881 513 839 q 621 996 619 924 l 594 996 q 548 901 593 936 q 438 865 503 865 q 328 901 374 865 q 281 996 283 936 l 254 996 q 310 881 257 924 q 438 839 363 839 "},"ǧ":{"ha":940,"x_min":75,"x_max":781,"o":"m 449 -274 q 698 -192 615 -274 q 781 64 781 -110 l 781 718 l 753 718 l 753 457 l 767 374 l 753 290 l 753 60 q 678 -174 753 -100 q 449 -247 604 -247 q 282 -218 358 -247 q 150 -135 206 -189 l 131 -154 q 267 -242 182 -210 q 449 -274 351 -274 m 428 24 q 608 69 529 24 q 731 193 686 114 q 776 374 776 272 q 731 555 776 476 q 608 678 686 633 q 428 722 529 722 q 248 678 328 722 q 122 555 168 633 q 75 374 75 476 q 122 193 75 272 q 248 69 168 114 q 428 24 328 24 m 428 50 q 261 91 335 50 q 145 206 188 132 q 103 374 103 279 q 145 542 103 469 q 261 655 188 614 q 428 696 335 696 q 595 655 522 696 q 710 542 668 614 q 753 374 753 469 q 710 206 753 279 q 595 91 668 132 q 428 50 522 50 m 415 843 l 460 843 l 629 996 l 592 996 l 433 863 l 442 863 l 283 996 l 246 996 l 415 843 "},"ĝ":{"ha":940,"x_min":75,"x_max":781,"o":"m 449 -274 q 698 -192 615 -274 q 781 64 781 -110 l 781 718 l 753 718 l 753 457 l 767 374 l 753 290 l 753 60 q 678 -174 753 -100 q 449 -247 604 -247 q 282 -218 358 -247 q 150 -135 206 -189 l 131 -154 q 267 -242 182 -210 q 449 -274 351 -274 m 428 24 q 608 69 529 24 q 731 193 686 114 q 776 374 776 272 q 731 555 776 476 q 608 678 686 633 q 428 722 529 722 q 248 678 328 722 q 122 555 168 633 q 75 374 75 476 q 122 193 75 272 q 248 69 168 114 q 428 24 328 24 m 428 50 q 261 91 335 50 q 145 206 188 132 q 103 374 103 279 q 145 542 103 469 q 261 655 188 614 q 428 696 335 696 q 595 655 522 696 q 710 542 668 614 q 753 374 753 469 q 710 206 753 279 q 595 91 668 132 q 428 50 522 50 m 246 843 l 283 843 l 442 976 l 433 976 l 592 843 l 629 843 l 460 996 l 415 996 l 246 843 "},"ģ":{"ha":940,"x_min":75,"x_max":781,"o":"m 449 -274 q 698 -192 615 -274 q 781 64 781 -110 l 781 718 l 753 718 l 753 457 l 767 374 l 753 290 l 753 60 q 678 -174 753 -100 q 449 -247 604 -247 q 282 -218 358 -247 q 150 -135 206 -189 l 131 -154 q 267 -242 182 -210 q 449 -274 351 -274 m 428 24 q 608 69 529 24 q 731 193 686 114 q 776 374 776 272 q 731 555 776 476 q 608 678 686 633 q 428 722 529 722 q 248 678 328 722 q 122 555 168 633 q 75 374 75 476 q 122 193 75 272 q 248 69 168 114 q 428 24 328 24 m 428 50 q 261 91 335 50 q 145 206 188 132 q 103 374 103 279 q 145 542 103 469 q 261 655 188 614 q 428 696 335 696 q 595 655 522 696 q 710 542 668 614 q 753 374 753 469 q 710 206 753 279 q 595 91 668 132 q 428 50 522 50 m 438 839 q 463 850 453 839 q 474 875 474 861 q 463 901 474 890 q 438 911 453 911 l 439 896 l 472 1054 l 447 1054 l 408 915 q 404 895 407 904 q 401 875 401 886 q 411 851 401 863 q 438 839 421 839 "},"ġ":{"ha":940,"x_min":75,"x_max":781,"o":"m 449 -274 q 698 -192 615 -274 q 781 64 781 -110 l 781 718 l 753 718 l 753 457 l 767 374 l 753 290 l 753 60 q 678 -174 753 -100 q 449 -247 604 -247 q 282 -218 358 -247 q 150 -135 206 -189 l 131 -154 q 267 -242 182 -210 q 449 -274 351 -274 m 428 24 q 608 69 529 24 q 731 193 686 114 q 776 374 776 272 q 731 555 776 476 q 608 678 686 633 q 428 722 529 722 q 248 678 328 722 q 122 555 168 633 q 75 374 75 476 q 122 193 75 272 q 248 69 168 114 q 428 24 328 24 m 428 50 q 261 91 335 50 q 145 206 188 132 q 103 374 103 279 q 145 542 103 469 q 261 655 188 614 q 428 696 335 696 q 595 655 522 696 q 710 542 668 614 q 753 374 753 469 q 710 206 753 279 q 595 91 668 132 q 428 50 522 50 m 438 890 q 463 901 453 890 q 474 926 474 913 q 463 952 474 942 q 438 963 453 963 q 413 952 424 963 q 401 926 401 942 q 413 901 401 913 q 438 890 424 890 "},"ḡ":{"ha":940,"x_min":75,"x_max":781,"o":"m 449 -274 q 698 -192 615 -274 q 781 64 781 -110 l 781 718 l 753 718 l 753 457 l 767 374 l 753 290 l 753 60 q 678 -174 753 -100 q 449 -247 604 -247 q 282 -218 358 -247 q 150 -135 206 -189 l 131 -154 q 267 -242 182 -210 q 449 -274 351 -274 m 428 24 q 608 69 529 24 q 731 193 686 114 q 776 374 776 272 q 731 555 776 476 q 608 678 686 633 q 428 722 529 722 q 248 678 328 722 q 122 555 168 633 q 75 374 75 476 q 122 193 75 272 q 248 69 168 114 q 428 24 328 24 m 428 50 q 261 91 335 50 q 145 206 188 132 q 103 374 103 279 q 145 542 103 469 q 261 655 188 614 q 428 696 335 696 q 595 655 522 696 q 710 542 668 614 q 753 374 753 469 q 710 206 753 279 q 595 91 668 132 q 428 50 522 50 m 249 906 l 626 906 l 626 933 l 249 933 l 249 906 "},"ǥ":{"ha":943,"x_min":75,"x_max":869,"o":"m 449 -274 q 698 -192 615 -274 q 781 64 781 -110 l 781 718 l 753 718 l 753 457 l 767 374 l 753 290 l 753 60 q 678 -174 753 -100 q 449 -247 604 -247 q 282 -218 358 -247 q 150 -135 206 -189 l 131 -154 q 267 -242 182 -210 q 449 -274 351 -274 m 414 -96 l 869 -96 l 869 -69 l 414 -69 l 414 -96 m 428 24 q 608 69 529 24 q 731 193 686 114 q 776 374 776 272 q 731 555 776 476 q 608 678 686 633 q 428 722 529 722 q 248 678 328 722 q 122 555 168 633 q 75 374 75 476 q 122 193 75 272 q 248 69 168 114 q 428 24 328 24 m 428 50 q 261 91 335 50 q 145 206 188 132 q 103 374 103 279 q 145 542 103 469 q 261 655 188 614 q 428 696 335 696 q 595 655 522 696 q 710 542 668 614 q 753 374 753 469 q 710 206 753 279 q 595 91 668 132 q 428 50 522 50 "},"h":{"ha":928,"x_min":160,"x_max":776,"o":"m 489 722 q 294 667 372 722 q 185 518 217 613 l 188 514 l 188 1031 l 160 1031 l 160 0 l 188 0 l 188 390 q 224 551 188 482 q 328 658 260 619 q 490 696 396 696 q 681 626 613 696 q 749 424 749 557 l 749 0 l 776 0 l 776 424 q 741 588 776 521 q 642 688 706 654 q 489 722 578 722 "},"ħ":{"ha":928,"x_min":0,"x_max":776,"o":"m 489 722 q 294 667 372 722 q 185 518 217 613 l 188 514 l 188 1031 l 160 1031 l 160 0 l 188 0 l 188 390 q 224 551 188 482 q 328 658 260 619 q 490 696 396 696 q 681 626 613 696 q 749 424 749 557 l 749 0 l 776 0 l 776 424 q 741 588 776 521 q 642 688 706 654 q 489 722 578 722 m 0 863 l 525 863 l 525 889 l 0 889 l 0 863 "},"ḫ":{"ha":928,"x_min":160,"x_max":776,"o":"m 489 722 q 294 667 372 722 q 185 518 217 613 l 188 514 l 188 1031 l 160 1031 l 160 0 l 188 0 l 188 390 q 224 551 188 482 q 328 658 260 619 q 490 696 396 696 q 681 626 613 696 q 749 424 749 557 l 749 0 l 776 0 l 776 424 q 741 588 776 521 q 642 688 706 654 q 489 722 578 722 m 465 -275 q 594 -235 540 -275 q 649 -125 647 -194 l 622 -125 q 576 -215 621 -182 q 465 -249 531 -249 q 356 -215 401 -249 q 308 -125 311 -182 l 282 -125 q 338 -235 285 -194 q 465 -275 390 -275 "},"ȟ":{"ha":928,"x_min":-18,"x_max":776,"o":"m 489 722 q 294 667 372 722 q 185 518 217 613 l 188 514 l 188 1031 l 160 1031 l 160 0 l 188 0 l 188 390 q 224 551 188 482 q 328 658 260 619 q 490 696 396 696 q 681 626 613 696 q 749 424 749 557 l 749 0 l 776 0 l 776 424 q 741 588 776 521 q 642 688 706 654 q 489 722 578 722 m 151 1156 l 196 1156 l 365 1308 l 328 1308 l 169 1175 l 178 1175 l 19 1308 l -18 1308 l 151 1156 "},"ĥ":{"ha":928,"x_min":-18,"x_max":776,"o":"m 489 722 q 294 667 372 722 q 185 518 217 613 l 188 514 l 188 1031 l 160 1031 l 160 0 l 188 0 l 188 390 q 224 551 188 482 q 328 658 260 619 q 490 696 396 696 q 681 626 613 696 q 749 424 749 557 l 749 0 l 776 0 l 776 424 q 741 588 776 521 q 642 688 706 654 q 489 722 578 722 "},"ḥ":{"ha":928,"x_min":160,"x_max":776,"o":"m 489 722 q 294 667 372 722 q 185 518 217 613 l 188 514 l 188 1031 l 160 1031 l 160 0 l 188 0 l 188 390 q 224 551 188 482 q 328 658 260 619 q 490 696 396 696 q 681 626 613 696 q 749 424 749 557 l 749 0 l 776 0 l 776 424 q 741 588 776 521 q 642 688 706 654 q 489 722 578 722 m 465 -244 q 491 -233 481 -244 q 501 -208 501 -222 q 491 -183 501 -193 q 465 -172 481 -172 q 440 -183 451 -172 q 429 -208 429 -193 q 440 -233 429 -222 q 465 -244 451 -244 "},"i":{"ha":347,"x_min":138,"x_max":210,"o":"m 160 0 l 188 0 l 188 718 l 160 718 l 160 0 m 174 917 q 199 928 189 917 q 210 953 210 939 q 199 978 210 968 q 174 989 189 989 q 149 978 160 989 q 138 953 138 968 q 149 928 138 939 q 174 917 160 917 "},"ı":{"ha":347,"x_min":160,"x_max":188,"o":"m 160 0 l 188 0 l 188 718 l 160 718 l 160 0 "},"í":{"ha":347,"x_min":111,"x_max":361,"o":"m 160 0 l 188 0 l 188 718 l 160 718 l 160 0 m 111 843 l 153 843 l 361 996 l 306 996 l 111 843 "},"ĭ":{"ha":347,"x_min":25,"x_max":322,"o":"m 160 0 l 188 0 l 188 718 l 160 718 l 160 0 m 174 839 q 281 881 239 839 q 322 996 322 924 l 296 996 q 262 901 296 936 q 174 865 228 865 q 85 901 119 865 q 51 996 51 936 l 25 996 q 67 881 25 924 q 174 839 110 839 "},"î":{"ha":347,"x_min":17,"x_max":331,"o":"m 160 0 l 188 0 l 188 718 l 160 718 l 160 0 m 17 843 l 54 843 l 176 976 l 171 976 l 293 843 l 331 843 l 194 996 l 153 996 l 17 843 "},"ȉ":{"ha":347,"x_min":-106,"x_max":289,"o":"m 160 0 l 188 0 l 188 718 l 160 718 l 160 0 m 251 843 l 289 843 l 135 996 l 88 996 l 251 843 m 58 843 l 96 843 l -58 996 l -106 996 l 58 843 "},"ï":{"ha":347,"x_min":61,"x_max":286,"o":"m 160 0 l 188 0 l 188 718 l 160 718 l 160 0 m 251 890 q 276 901 267 890 q 286 926 286 913 q 276 952 286 942 q 251 963 267 963 q 227 952 238 963 q 217 926 217 942 q 227 901 217 913 q 251 890 238 890 m 96 890 q 121 901 111 890 q 131 926 131 913 q 121 952 131 942 q 96 963 111 963 q 72 952 82 963 q 61 926 61 942 q 72 901 61 913 q 96 890 82 890 "},"ḯ":{"ha":347,"x_min":24,"x_max":343,"o":"m 160 0 l 188 0 l 188 718 l 160 718 l 160 0 "},"ị":{"ha":347,"x_min":138,"x_max":210,"o":"m 160 0 l 188 0 l 188 718 l 160 718 l 160 0 m 174 917 q 199 928 189 917 q 210 953 210 939 q 199 978 210 968 q 174 989 189 989 q 149 978 160 989 q 138 953 138 968 q 149 928 138 939 q 174 917 160 917 m 174 -244 q 199 -233 189 -244 q 210 -208 210 -222 q 199 -183 210 -193 q 174 -172 189 -172 q 149 -183 160 -172 q 138 -208 138 -193 q 149 -233 138 -222 q 174 -244 160 -244 "},"ì":{"ha":347,"x_min":-14,"x_max":236,"o":"m 160 0 l 188 0 l 188 718 l 160 718 l 160 0 m 194 843 l 236 843 l 42 996 l -14 996 l 194 843 "},"ỉ":{"ha":347,"x_min":72,"x_max":278,"o":"m 160 0 l 188 0 l 188 718 l 160 718 l 160 0 m 176 838 q 253 894 229 863 q 278 968 278 926 q 248 1041 278 1014 q 168 1068 218 1068 q 118 1060 144 1068 q 72 1039 92 1053 l 83 1015 q 169 1042 124 1042 q 228 1020 206 1042 q 250 967 250 999 q 228 906 250 932 q 163 860 206 879 l 176 838 "},"ȋ":{"ha":347,"x_min":25,"x_max":322,"o":"m 160 0 l 188 0 l 188 718 l 160 718 l 160 0 m 25 843 l 51 843 q 85 939 51 904 q 174 974 119 974 q 262 939 228 974 q 296 843 296 904 l 322 843 q 281 958 322 917 q 174 1000 239 1000 q 67 958 110 1000 q 25 843 25 917 "},"ĳ":{"ha":701,"x_min":138,"x_max":564,"o":"m 160 0 l 188 0 l 188 718 l 160 718 l 160 0 m 174 917 q 199 928 189 917 q 210 953 210 939 q 199 978 210 968 q 174 989 189 989 q 149 978 160 989 q 138 953 138 968 q 149 928 138 939 q 174 917 160 917 "},"ī":{"ha":347,"x_min":19,"x_max":328,"o":"m 160 0 l 188 0 l 188 718 l 160 718 l 160 0 m 19 906 l 328 906 l 328 933 l 19 933 l 19 906 "},"į":{"ha":347,"x_min":83,"x_max":247,"o":"m 160 0 l 188 0 l 188 718 l 160 718 l 160 0 m 174 917 q 199 928 189 917 q 210 953 210 939 q 199 978 210 968 q 174 989 189 989 q 149 978 160 989 q 138 953 138 968 q 149 928 138 939 q 174 917 160 917 m 176 -296 q 247 -262 221 -296 l 232 -243 q 208 -263 222 -256 q 176 -271 194 -271 q 131 -249 150 -271 q 111 -186 111 -228 q 122 -106 111 -151 q 188 0 133 -61 l 176 24 q 100 -93 117 -37 q 83 -187 83 -149 q 109 -265 83 -235 q 176 -296 135 -296 "},"ĩ":{"ha":347,"x_min":19,"x_max":328,"o":"m 160 0 l 188 0 l 188 718 l 160 718 l 160 0 m 246 860 q 307 892 286 860 q 328 976 328 925 l 301 976 q 286 911 301 936 q 246 886 271 886 q 212 901 226 886 q 182 934 197 915 q 148 967 167 953 q 101 982 129 982 q 41 949 63 982 q 19 863 19 917 l 46 863 q 61 931 46 906 q 101 956 76 956 q 135 941 121 956 q 165 908 150 926 q 199 874 181 889 q 246 860 218 860 "},"j":{"ha":354,"x_min":-119,"x_max":217,"o":"m 25 -274 q 151 -225 107 -274 q 194 -97 194 -176 l 194 718 l 167 718 l 167 -90 q 130 -207 167 -167 q 24 -247 93 -247 q -100 -203 -53 -247 l -119 -222 q -56 -261 -94 -249 q 25 -274 -17 -274 m 181 917 q 206 928 196 917 q 217 953 217 939 q 206 978 217 968 q 181 989 196 989 q 156 978 167 989 q 144 953 144 968 q 156 928 144 939 q 181 917 167 917 "},"ȷ":{"ha":354,"x_min":-119,"x_max":194,"o":"m 25 -274 q 151 -225 107 -274 q 194 -97 194 -176 l 194 718 l 167 718 l 167 -90 q 130 -207 167 -167 q 24 -247 93 -247 q -100 -203 -53 -247 l -119 -222 q -56 -261 -94 -249 q 25 -274 -17 -274 "},"ĵ":{"ha":354,"x_min":-119,"x_max":338,"o":"m 25 -274 q 151 -225 107 -274 q 194 -97 194 -176 l 194 718 l 167 718 l 167 -90 q 130 -207 167 -167 q 24 -247 93 -247 q -100 -203 -53 -247 l -119 -222 q -56 -261 -94 -249 q 25 -274 -17 -274 m 24 843 l 61 843 l 183 976 l 178 976 l 300 843 l 338 843 l 201 996 l 160 996 l 24 843 "},"k":{"ha":792,"x_min":160,"x_max":767,"o":"m 178 214 l 400 415 l 422 432 l 735 718 l 694 718 l 178 247 l 178 214 m 160 0 l 188 0 l 188 1031 l 160 1031 l 160 0 m 731 0 l 767 0 l 417 439 l 394 422 l 731 0 "},"ǩ":{"ha":792,"x_min":-18,"x_max":767,"o":"m 178 214 l 400 415 l 422 432 l 735 718 l 694 718 l 178 247 l 178 214 m 160 0 l 188 0 l 188 1031 l 160 1031 l 160 0 m 731 0 l 767 0 l 417 439 l 394 422 l 731 0 m 151 1156 l 196 1156 l 365 1308 l 328 1308 l 169 1175 l 178 1175 l 19 1308 l -18 1308 l 151 1156 "},"ķ":{"ha":792,"x_min":160,"x_max":767,"o":"m 178 214 l 400 415 l 422 432 l 735 718 l 694 718 l 178 247 l 178 214 m 160 0 l 188 0 l 188 1031 l 160 1031 l 160 0 m 731 0 l 767 0 l 417 439 l 394 422 l 731 0 m 397 -360 l 422 -360 l 454 -253 q 460 -231 457 -242 q 463 -208 463 -219 q 453 -184 463 -196 q 426 -172 443 -172 q 401 -183 411 -172 q 390 -208 390 -193 q 401 -233 390 -222 q 426 -244 413 -244 l 425 -229 l 397 -360 "},"ĸ":{"ha":774,"x_min":160,"x_max":767,"o":"m 178 214 l 400 415 l 422 432 l 735 718 l 694 718 l 178 247 l 178 214 m 160 0 l 188 0 l 188 718 l 160 718 l 160 0 m 731 0 l 767 0 l 417 439 l 394 422 l 731 0 "},"l":{"ha":347,"x_min":160,"x_max":188,"o":"m 160 0 l 188 0 l 188 1031 l 160 1031 l 160 0 "},"ĺ":{"ha":347,"x_min":111,"x_max":361,"o":"m 160 0 l 188 0 l 188 1031 l 160 1031 l 160 0 m 111 1156 l 153 1156 l 361 1308 l 306 1308 l 111 1156 "},"ľ":{"ha":347,"x_min":160,"x_max":354,"o":"m 160 0 l 188 0 l 188 1031 l 160 1031 l 160 0 m 326 808 l 351 808 l 354 1058 l 326 1058 l 326 808 "},"ļ":{"ha":347,"x_min":138,"x_max":210,"o":"m 160 0 l 188 0 l 188 1031 l 160 1031 l 160 0 m 144 -360 l 169 -360 l 201 -253 q 207 -231 204 -242 q 210 -208 210 -219 q 200 -184 210 -196 q 174 -172 190 -172 q 148 -183 158 -172 q 138 -208 138 -193 q 149 -233 138 -222 q 174 -244 160 -244 l 172 -229 l 144 -360 "},"ŀ":{"ha":347,"x_min":160,"x_max":383,"o":"m 160 0 l 188 0 l 188 1031 l 160 1031 l 160 0 m 347 449 q 373 460 363 449 q 383 485 383 471 q 373 510 383 500 q 347 521 363 521 q 322 510 333 521 q 311 485 311 500 q 322 460 311 471 q 347 449 333 449 "},"ḷ":{"ha":347,"x_min":138,"x_max":210,"o":"m 160 0 l 188 0 l 188 1031 l 160 1031 l 160 0 m 174 -244 q 199 -233 189 -244 q 210 -208 210 -222 q 199 -183 210 -193 q 174 -172 189 -172 q 149 -183 160 -172 q 138 -208 138 -193 q 149 -233 138 -222 q 174 -244 160 -244 "},"ǉ":{"ha":701,"x_min":160,"x_max":564,"o":"m 160 0 l 188 0 l 188 1031 l 160 1031 l 160 0 m 372 -274 q 498 -225 454 -274 q 542 -97 542 -176 l 542 718 l 514 718 l 514 -90 q 477 -207 514 -167 q 371 -247 440 -247 q 247 -203 294 -247 l 228 -222 q 292 -261 253 -249 q 372 -274 331 -274 m 528 917 q 553 928 543 917 q 564 953 564 939 q 553 978 564 968 q 528 989 543 989 q 503 978 514 989 q 492 953 492 968 q 503 928 492 939 q 528 917 514 917 "},"ḻ":{"ha":347,"x_min":-15,"x_max":363,"o":"m 160 0 l 188 0 l 188 1031 l 160 1031 l 160 0 m -15 -222 l 363 -222 l 363 -194 l -15 -194 l -15 -222 "},"ł":{"ha":347,"x_min":32,"x_max":315,"o":"m 160 0 l 188 0 l 188 1031 l 160 1031 l 160 0 m 47 378 l 315 575 l 300 594 l 32 397 l 47 378 "},"m":{"ha":1483,"x_min":160,"x_max":1332,"o":"m 1053 722 q 855 660 933 722 q 750 500 776 599 l 754 499 q 664 666 736 610 q 481 722 592 722 q 292 667 368 722 q 185 519 215 613 l 188 515 l 188 718 l 160 718 l 160 0 l 188 0 l 188 390 q 223 551 188 482 q 324 658 258 619 q 482 696 390 696 q 666 626 600 696 q 732 424 732 557 l 732 0 l 760 0 l 760 390 q 795 551 760 482 q 897 658 831 619 q 1054 696 963 696 q 1238 626 1172 696 q 1304 424 1304 557 l 1304 0 l 1332 0 l 1332 424 q 1298 588 1332 521 q 1201 688 1264 654 q 1053 722 1139 722 "},"ṃ":{"ha":1483,"x_min":160,"x_max":1332,"o":"m 1053 722 q 855 660 933 722 q 750 500 776 599 l 754 499 q 664 666 736 610 q 481 722 592 722 q 292 667 368 722 q 185 519 215 613 l 188 515 l 188 718 l 160 718 l 160 0 l 188 0 l 188 390 q 223 551 188 482 q 324 658 258 619 q 482 696 390 696 q 666 626 600 696 q 732 424 732 557 l 732 0 l 760 0 l 760 390 q 795 551 760 482 q 897 658 831 619 q 1054 696 963 696 q 1238 626 1172 696 q 1304 424 1304 557 l 1304 0 l 1332 0 l 1332 424 q 1298 588 1332 521 q 1201 688 1264 654 q 1053 722 1139 722 m 746 -244 q 772 -233 761 -244 q 782 -208 782 -222 q 772 -183 782 -193 q 746 -172 761 -172 q 721 -183 732 -172 q 710 -208 710 -193 q 721 -233 710 -222 q 746 -244 732 -244 "},"n":{"ha":928,"x_min":160,"x_max":776,"o":"m 489 722 q 294 667 372 722 q 185 518 217 613 l 188 514 l 188 718 l 160 718 l 160 0 l 188 0 l 188 390 q 224 551 188 482 q 328 658 260 619 q 490 696 396 696 q 681 626 613 696 q 749 424 749 557 l 749 0 l 776 0 l 776 424 q 741 588 776 521 q 642 688 706 654 q 489 722 578 722 "},"ń":{"ha":928,"x_min":160,"x_max":776,"o":"m 489 722 q 294 667 372 722 q 185 518 217 613 l 188 514 l 188 718 l 160 718 l 160 0 l 188 0 l 188 390 q 224 551 188 482 q 328 658 260 619 q 490 696 396 696 q 681 626 613 696 q 749 424 749 557 l 749 0 l 776 0 l 776 424 q 741 588 776 521 q 642 688 706 654 q 489 722 578 722 m 403 843 l 444 843 l 653 996 l 597 996 l 403 843 "},"ŉ":{"ha":982,"x_min":88,"x_max":831,"o":"m 543 722 q 349 667 426 722 q 239 518 271 613 l 242 514 l 242 718 l 214 718 l 214 0 l 242 0 l 242 390 q 278 551 242 482 q 382 658 314 619 q 544 696 450 696 q 735 626 667 696 q 803 424 803 557 l 803 0 l 831 0 l 831 424 q 795 588 831 521 q 696 688 760 654 q 543 722 632 722 "},"ň":{"ha":928,"x_min":160,"x_max":776,"o":"m 489 722 q 294 667 372 722 q 185 518 217 613 l 188 514 l 188 718 l 160 718 l 160 0 l 188 0 l 188 390 q 224 551 188 482 q 328 658 260 619 q 490 696 396 696 q 681 626 613 696 q 749 424 749 557 l 749 0 l 776 0 l 776 424 q 741 588 776 521 q 642 688 706 654 q 489 722 578 722 m 443 843 l 488 843 l 657 996 l 619 996 l 461 863 l 469 863 l 311 996 l 274 996 l 443 843 "},"ņ":{"ha":928,"x_min":160,"x_max":776,"o":"m 489 722 q 294 667 372 722 q 185 518 217 613 l 188 514 l 188 718 l 160 718 l 160 0 l 188 0 l 188 390 q 224 551 188 482 q 328 658 260 619 q 490 696 396 696 q 681 626 613 696 q 749 424 749 557 l 749 0 l 776 0 l 776 424 q 741 588 776 521 q 642 688 706 654 q 489 722 578 722 m 436 -360 l 461 -360 l 493 -253 q 499 -231 496 -242 q 501 -208 501 -219 q 492 -184 501 -196 q 465 -172 482 -172 q 440 -183 450 -172 q 429 -208 429 -193 q 440 -233 429 -222 q 465 -244 451 -244 l 464 -229 l 436 -360 "},"ṅ":{"ha":928,"x_min":160,"x_max":776,"o":"m 489 722 q 294 667 372 722 q 185 518 217 613 l 188 514 l 188 718 l 160 718 l 160 0 l 188 0 l 188 390 q 224 551 188 482 q 328 658 260 619 q 490 696 396 696 q 681 626 613 696 q 749 424 749 557 l 749 0 l 776 0 l 776 424 q 741 588 776 521 q 642 688 706 654 q 489 722 578 722 m 465 890 q 491 901 481 890 q 501 926 501 913 q 491 952 501 942 q 465 963 481 963 q 440 952 451 963 q 429 926 429 942 q 440 901 429 913 q 465 890 451 890 "},"ṇ":{"ha":928,"x_min":160,"x_max":776,"o":"m 489 722 q 294 667 372 722 q 185 518 217 613 l 188 514 l 188 718 l 160 718 l 160 0 l 188 0 l 188 390 q 224 551 188 482 q 328 658 260 619 q 490 696 396 696 q 681 626 613 696 q 749 424 749 557 l 749 0 l 776 0 l 776 424 q 741 588 776 521 q 642 688 706 654 q 489 722 578 722 m 465 -244 q 491 -233 481 -244 q 501 -208 501 -222 q 491 -183 501 -193 q 465 -172 481 -172 q 440 -183 451 -172 q 429 -208 429 -193 q 440 -233 429 -222 q 465 -244 451 -244 "},"ŋ":{"ha":928,"x_min":160,"x_max":776,"o":"m 489 722 q 294 667 372 722 q 185 518 217 613 l 188 514 l 188 718 l 160 718 l 160 0 l 188 0 l 188 390 q 224 551 188 482 q 328 658 260 619 q 490 696 396 696 q 681 626 613 696 q 749 424 749 557 l 749 -90 q 712 -207 749 -167 q 606 -247 675 -247 q 482 -203 529 -247 l 463 -222 q 526 -261 488 -249 q 607 -274 565 -274 q 733 -225 689 -274 q 776 -97 776 -176 l 776 424 q 741 588 776 521 q 642 688 706 654 q 489 722 578 722 "},"ǌ":{"ha":1282,"x_min":160,"x_max":1144,"o":"m 489 722 q 294 667 372 722 q 185 518 217 613 l 188 514 l 188 718 l 160 718 l 160 0 l 188 0 l 188 390 q 224 551 188 482 q 328 658 260 619 q 490 696 396 696 q 681 626 613 696 q 749 424 749 557 l 749 0 l 776 0 l 776 424 q 741 588 776 521 q 642 688 706 654 q 489 722 578 722 m 953 -274 q 1078 -225 1035 -274 q 1122 -97 1122 -176 l 1122 718 l 1094 718 l 1094 -90 q 1058 -207 1094 -167 q 951 -247 1021 -247 q 828 -203 875 -247 l 808 -222 q 872 -261 833 -249 q 953 -274 911 -274 m 1108 917 q 1134 928 1124 917 q 1144 953 1144 939 q 1134 978 1144 968 q 1108 989 1124 989 q 1083 978 1094 989 q 1072 953 1072 968 q 1083 928 1072 939 q 1108 917 1094 917 "},"ṉ":{"ha":928,"x_min":160,"x_max":776,"o":"m 489 722 q 294 667 372 722 q 185 518 217 613 l 188 514 l 188 718 l 160 718 l 160 0 l 188 0 l 188 390 q 224 551 188 482 q 328 658 260 619 q 490 696 396 696 q 681 626 613 696 q 749 424 749 557 l 749 0 l 776 0 l 776 424 q 741 588 776 521 q 642 688 706 654 q 489 722 578 722 m 276 -222 l 654 -222 l 654 -194 l 276 -194 l 276 -222 "},"ñ":{"ha":928,"x_min":160,"x_max":776,"o":"m 489 722 q 294 667 372 722 q 185 518 217 613 l 188 514 l 188 718 l 160 718 l 160 0 l 188 0 l 188 390 q 224 551 188 482 q 328 658 260 619 q 490 696 396 696 q 681 626 613 696 q 749 424 749 557 l 749 0 l 776 0 l 776 424 q 741 588 776 521 q 642 688 706 654 q 489 722 578 722 m 553 860 q 625 892 597 860 q 654 976 653 925 l 628 976 q 606 911 626 936 q 553 886 586 886 q 510 901 529 886 q 472 934 490 915 q 430 967 453 953 q 378 982 407 982 q 306 949 333 982 q 276 863 279 917 l 303 863 q 325 931 306 906 q 378 956 344 956 q 421 941 401 956 q 459 908 440 926 q 501 874 478 889 q 553 860 524 860 "},"o":{"ha":847,"x_min":75,"x_max":772,"o":"m 424 -4 q 603 42 524 -4 q 727 172 682 89 q 772 360 772 254 q 727 548 772 467 q 603 676 682 629 q 424 722 524 722 q 245 676 324 722 q 121 548 167 629 q 75 360 75 467 q 121 172 75 254 q 245 42 167 89 q 424 -4 324 -4 m 424 22 q 260 65 332 22 q 145 185 188 108 q 103 360 103 261 q 145 535 103 460 q 260 653 188 611 q 424 696 332 696 q 588 653 515 696 q 703 535 661 611 q 744 360 744 460 q 703 185 744 261 q 588 65 661 108 q 424 22 515 22 "},"ó":{"ha":847,"x_min":75,"x_max":772,"o":"m 424 -4 q 603 42 524 -4 q 727 172 682 89 q 772 360 772 254 q 727 548 772 467 q 603 676 682 629 q 424 722 524 722 q 245 676 324 722 q 121 548 167 629 q 75 360 75 467 q 121 172 75 254 q 245 42 167 89 q 424 -4 324 -4 m 424 22 q 260 65 332 22 q 145 185 188 108 q 103 360 103 261 q 145 535 103 460 q 260 653 188 611 q 424 696 332 696 q 588 653 515 696 q 703 535 661 611 q 744 360 744 460 q 703 185 744 261 q 588 65 661 108 q 424 22 515 22 m 361 843 l 403 843 l 611 996 l 556 996 l 361 843 "},"ŏ":{"ha":847,"x_min":75,"x_max":772,"o":"m 424 -4 q 603 42 524 -4 q 727 172 682 89 q 772 360 772 254 q 727 548 772 467 q 603 676 682 629 q 424 722 524 722 q 245 676 324 722 q 121 548 167 629 q 75 360 75 467 q 121 172 75 254 q 245 42 167 89 q 424 -4 324 -4 m 424 22 q 260 65 332 22 q 145 185 188 108 q 103 360 103 261 q 145 535 103 460 q 260 653 188 611 q 424 696 332 696 q 588 653 515 696 q 703 535 661 611 q 744 360 744 460 q 703 185 744 261 q 588 65 661 108 q 424 22 515 22 m 424 839 q 552 881 499 839 q 607 996 606 924 l 581 996 q 534 901 579 936 q 424 865 489 865 q 315 901 360 865 q 267 996 269 936 l 240 996 q 296 881 243 924 q 424 839 349 839 "},"ô":{"ha":847,"x_min":75,"x_max":772,"o":"m 424 -4 q 603 42 524 -4 q 727 172 682 89 q 772 360 772 254 q 727 548 772 467 q 603 676 682 629 q 424 722 524 722 q 245 676 324 722 q 121 548 167 629 q 75 360 75 467 q 121 172 75 254 q 245 42 167 89 q 424 -4 324 -4 m 424 22 q 260 65 332 22 q 145 185 188 108 q 103 360 103 261 q 145 535 103 460 q 260 653 188 611 q 424 696 332 696 q 588 653 515 696 q 703 535 661 611 q 744 360 744 460 q 703 185 744 261 q 588 65 661 108 q 424 22 515 22 m 232 843 l 269 843 l 428 976 l 419 976 l 578 843 l 615 843 l 446 996 l 401 996 l 232 843 "},"ố":{"ha":847,"x_min":75,"x_max":772,"o":"m 424 -4 q 603 42 524 -4 q 727 172 682 89 q 772 360 772 254 q 727 548 772 467 q 603 676 682 629 q 424 722 524 722 q 245 676 324 722 q 121 548 167 629 q 75 360 75 467 q 121 172 75 254 q 245 42 167 89 q 424 -4 324 -4 m 424 22 q 260 65 332 22 q 145 185 188 108 q 103 360 103 261 q 145 535 103 460 q 260 653 188 611 q 424 696 332 696 q 588 653 515 696 q 703 535 661 611 q 744 360 744 460 q 703 185 744 261 q 588 65 661 108 q 424 22 515 22 "},"ộ":{"ha":847,"x_min":75,"x_max":772,"o":"m 424 -4 q 603 42 524 -4 q 727 172 682 89 q 772 360 772 254 q 727 548 772 467 q 603 676 682 629 q 424 722 524 722 q 245 676 324 722 q 121 548 167 629 q 75 360 75 467 q 121 172 75 254 q 245 42 167 89 q 424 -4 324 -4 m 424 22 q 260 65 332 22 q 145 185 188 108 q 103 360 103 261 q 145 535 103 460 q 260 653 188 611 q 424 696 332 696 q 588 653 515 696 q 703 535 661 611 q 744 360 744 460 q 703 185 744 261 q 588 65 661 108 q 424 22 515 22 m 424 -244 q 449 -233 439 -244 q 460 -208 460 -222 q 449 -183 460 -193 q 424 -172 439 -172 q 399 -183 410 -172 q 388 -208 388 -193 q 399 -233 388 -222 q 424 -244 410 -244 m 232 843 l 269 843 l 428 976 l 419 976 l 578 843 l 615 843 l 446 996 l 401 996 l 232 843 "},"ồ":{"ha":847,"x_min":75,"x_max":772,"o":"m 424 -4 q 603 42 524 -4 q 727 172 682 89 q 772 360 772 254 q 727 548 772 467 q 603 676 682 629 q 424 722 524 722 q 245 676 324 722 q 121 548 167 629 q 75 360 75 467 q 121 172 75 254 q 245 42 167 89 q 424 -4 324 -4 m 424 22 q 260 65 332 22 q 145 185 188 108 q 103 360 103 261 q 145 535 103 460 q 260 653 188 611 q 424 696 332 696 q 588 653 515 696 q 703 535 661 611 q 744 360 744 460 q 703 185 744 261 q 588 65 661 108 q 424 22 515 22 "},"ổ":{"ha":847,"x_min":75,"x_max":772,"o":"m 424 -4 q 603 42 524 -4 q 727 172 682 89 q 772 360 772 254 q 727 548 772 467 q 603 676 682 629 q 424 722 524 722 q 245 676 324 722 q 121 548 167 629 q 75 360 75 467 q 121 172 75 254 q 245 42 167 89 q 424 -4 324 -4 m 424 22 q 260 65 332 22 q 145 185 188 108 q 103 360 103 261 q 145 535 103 460 q 260 653 188 611 q 424 696 332 696 q 588 653 515 696 q 703 535 661 611 q 744 360 744 460 q 703 185 744 261 q 588 65 661 108 q 424 22 515 22 "},"ỗ":{"ha":847,"x_min":75,"x_max":772,"o":"m 424 -4 q 603 42 524 -4 q 727 172 682 89 q 772 360 772 254 q 727 548 772 467 q 603 676 682 629 q 424 722 524 722 q 245 676 324 722 q 121 548 167 629 q 75 360 75 467 q 121 172 75 254 q 245 42 167 89 q 424 -4 324 -4 m 424 22 q 260 65 332 22 q 145 185 188 108 q 103 360 103 261 q 145 535 103 460 q 260 653 188 611 q 424 696 332 696 q 588 653 515 696 q 703 535 661 611 q 744 360 744 460 q 703 185 744 261 q 588 65 661 108 q 424 22 515 22 "},"ȍ":{"ha":847,"x_min":75,"x_max":772,"o":"m 424 -4 q 603 42 524 -4 q 727 172 682 89 q 772 360 772 254 q 727 548 772 467 q 603 676 682 629 q 424 722 524 722 q 245 676 324 722 q 121 548 167 629 q 75 360 75 467 q 121 172 75 254 q 245 42 167 89 q 424 -4 324 -4 m 424 22 q 260 65 332 22 q 145 185 188 108 q 103 360 103 261 q 145 535 103 460 q 260 653 188 611 q 424 696 332 696 q 588 653 515 696 q 703 535 661 611 q 744 360 744 460 q 703 185 744 261 q 588 65 661 108 q 424 22 515 22 m 501 843 l 539 843 l 385 996 l 338 996 l 501 843 m 308 843 l 346 843 l 192 996 l 144 996 l 308 843 "},"ö":{"ha":847,"x_min":75,"x_max":772,"o":"m 424 -4 q 603 42 524 -4 q 727 172 682 89 q 772 360 772 254 q 727 548 772 467 q 603 676 682 629 q 424 722 524 722 q 245 676 324 722 q 121 548 167 629 q 75 360 75 467 q 121 172 75 254 q 245 42 167 89 q 424 -4 324 -4 m 424 22 q 260 65 332 22 q 145 185 188 108 q 103 360 103 261 q 145 535 103 460 q 260 653 188 611 q 424 696 332 696 q 588 653 515 696 q 703 535 661 611 q 744 360 744 460 q 703 185 744 261 q 588 65 661 108 q 424 22 515 22 m 538 890 q 563 901 553 890 q 574 926 574 913 q 563 952 574 942 q 538 963 553 963 q 513 952 524 963 q 501 926 501 942 q 513 901 501 913 q 538 890 524 890 m 310 890 q 335 901 325 890 q 346 926 346 913 q 335 952 346 942 q 310 963 325 963 q 285 952 296 963 q 274 926 274 942 q 285 901 274 913 q 310 890 296 890 "},"ȫ":{"ha":847,"x_min":75,"x_max":772,"o":"m 424 -4 q 603 42 524 -4 q 727 172 682 89 q 772 360 772 254 q 727 548 772 467 q 603 676 682 629 q 424 722 524 722 q 245 676 324 722 q 121 548 167 629 q 75 360 75 467 q 121 172 75 254 q 245 42 167 89 q 424 -4 324 -4 m 424 22 q 260 65 332 22 q 145 185 188 108 q 103 360 103 261 q 145 535 103 460 q 260 653 188 611 q 424 696 332 696 q 588 653 515 696 q 703 535 661 611 q 744 360 744 460 q 703 185 744 261 q 588 65 661 108 q 424 22 515 22 "},"ȱ":{"ha":847,"x_min":75,"x_max":772,"o":"m 424 -4 q 603 42 524 -4 q 727 172 682 89 q 772 360 772 254 q 727 548 772 467 q 603 676 682 629 q 424 722 524 722 q 245 676 324 722 q 121 548 167 629 q 75 360 75 467 q 121 172 75 254 q 245 42 167 89 q 424 -4 324 -4 m 424 22 q 260 65 332 22 q 145 185 188 108 q 103 360 103 261 q 145 535 103 460 q 260 653 188 611 q 424 696 332 696 q 588 653 515 696 q 703 535 661 611 q 744 360 744 460 q 703 185 744 261 q 588 65 661 108 q 424 22 515 22 "},"ọ":{"ha":847,"x_min":75,"x_max":772,"o":"m 424 -4 q 603 42 524 -4 q 727 172 682 89 q 772 360 772 254 q 727 548 772 467 q 603 676 682 629 q 424 722 524 722 q 245 676 324 722 q 121 548 167 629 q 75 360 75 467 q 121 172 75 254 q 245 42 167 89 q 424 -4 324 -4 m 424 22 q 260 65 332 22 q 145 185 188 108 q 103 360 103 261 q 145 535 103 460 q 260 653 188 611 q 424 696 332 696 q 588 653 515 696 q 703 535 661 611 q 744 360 744 460 q 703 185 744 261 q 588 65 661 108 q 424 22 515 22 m 424 -244 q 449 -233 439 -244 q 460 -208 460 -222 q 449 -183 460 -193 q 424 -172 439 -172 q 399 -183 410 -172 q 388 -208 388 -193 q 399 -233 388 -222 q 424 -244 410 -244 "},"ò":{"ha":847,"x_min":75,"x_max":772,"o":"m 424 -4 q 603 42 524 -4 q 727 172 682 89 q 772 360 772 254 q 727 548 772 467 q 603 676 682 629 q 424 722 524 722 q 245 676 324 722 q 121 548 167 629 q 75 360 75 467 q 121 172 75 254 q 245 42 167 89 q 424 -4 324 -4 m 424 22 q 260 65 332 22 q 145 185 188 108 q 103 360 103 261 q 145 535 103 460 q 260 653 188 611 q 424 696 332 696 q 588 653 515 696 q 703 535 661 611 q 744 360 744 460 q 703 185 744 261 q 588 65 661 108 q 424 22 515 22 m 444 843 l 486 843 l 292 996 l 236 996 l 444 843 "},"ỏ":{"ha":847,"x_min":75,"x_max":772,"o":"m 424 -4 q 603 42 524 -4 q 727 172 682 89 q 772 360 772 254 q 727 548 772 467 q 603 676 682 629 q 424 722 524 722 q 245 676 324 722 q 121 548 167 629 q 75 360 75 467 q 121 172 75 254 q 245 42 167 89 q 424 -4 324 -4 m 424 22 q 260 65 332 22 q 145 185 188 108 q 103 360 103 261 q 145 535 103 460 q 260 653 188 611 q 424 696 332 696 q 588 653 515 696 q 703 535 661 611 q 744 360 744 460 q 703 185 744 261 q 588 65 661 108 q 424 22 515 22 m 426 838 q 503 894 479 863 q 528 968 528 926 q 498 1041 528 1014 q 418 1068 468 1068 q 368 1060 394 1068 q 322 1039 342 1053 l 333 1015 q 419 1042 374 1042 q 478 1020 456 1042 q 500 967 500 999 q 478 906 500 932 q 413 860 456 879 l 426 838 "},"ơ":{"ha":847,"x_min":75,"x_max":772,"o":"m 424 -4 q 603 42 524 -4 q 727 172 682 89 q 772 360 772 254 q 708 577 772 486 q 542 703 644 668 l 554 692 q 585 690 574 690 q 606 689 596 689 q 692 707 658 689 q 742 755 725 725 q 758 818 758 785 q 750 873 758 846 q 728 921 742 900 l 703 910 q 722 867 714 890 q 731 817 731 844 q 700 747 731 778 q 604 715 669 715 q 540 717 567 715 q 488 721 514 719 q 424 722 463 722 q 245 676 324 722 q 121 548 167 629 q 75 360 75 467 q 121 172 75 254 q 245 42 167 89 q 424 -4 324 -4 m 424 22 q 260 65 332 22 q 145 185 188 108 q 103 360 103 261 q 145 535 103 460 q 260 653 188 611 q 424 696 332 696 q 588 653 515 696 q 703 535 661 611 q 744 360 744 460 q 703 185 744 261 q 588 65 661 108 q 424 22 515 22 "},"ớ":{"ha":847,"x_min":75,"x_max":772,"o":"m 424 -4 q 603 42 524 -4 q 727 172 682 89 q 772 360 772 254 q 708 577 772 486 q 542 703 644 668 l 554 692 q 585 690 574 690 q 606 689 596 689 q 692 707 658 689 q 742 755 725 725 q 758 818 758 785 q 750 873 758 846 q 728 921 742 900 l 703 910 q 722 867 714 890 q 731 817 731 844 q 700 747 731 778 q 604 715 669 715 q 540 717 567 715 q 488 721 514 719 q 424 722 463 722 q 245 676 324 722 q 121 548 167 629 q 75 360 75 467 q 121 172 75 254 q 245 42 167 89 q 424 -4 324 -4 m 424 22 q 260 65 332 22 q 145 185 188 108 q 103 360 103 261 q 145 535 103 460 q 260 653 188 611 q 424 696 332 696 q 588 653 515 696 q 703 535 661 611 q 744 360 744 460 q 703 185 744 261 q 588 65 661 108 q 424 22 515 22 m 361 843 l 403 843 l 611 996 l 556 996 l 361 843 "},"ợ":{"ha":847,"x_min":75,"x_max":772,"o":"m 424 -4 q 603 42 524 -4 q 727 172 682 89 q 772 360 772 254 q 708 577 772 486 q 542 703 644 668 l 554 692 q 585 690 574 690 q 606 689 596 689 q 692 707 658 689 q 742 755 725 725 q 758 818 758 785 q 750 873 758 846 q 728 921 742 900 l 703 910 q 722 867 714 890 q 731 817 731 844 q 700 747 731 778 q 604 715 669 715 q 540 717 567 715 q 488 721 514 719 q 424 722 463 722 q 245 676 324 722 q 121 548 167 629 q 75 360 75 467 q 121 172 75 254 q 245 42 167 89 q 424 -4 324 -4 m 424 22 q 260 65 332 22 q 145 185 188 108 q 103 360 103 261 q 145 535 103 460 q 260 653 188 611 q 424 696 332 696 q 588 653 515 696 q 703 535 661 611 q 744 360 744 460 q 703 185 744 261 q 588 65 661 108 q 424 22 515 22 m 424 -244 q 449 -233 439 -244 q 460 -208 460 -222 q 449 -183 460 -193 q 424 -172 439 -172 q 399 -183 410 -172 q 388 -208 388 -193 q 399 -233 388 -222 q 424 -244 410 -244 "},"ờ":{"ha":847,"x_min":75,"x_max":772,"o":"m 424 -4 q 603 42 524 -4 q 727 172 682 89 q 772 360 772 254 q 708 577 772 486 q 542 703 644 668 l 554 692 q 585 690 574 690 q 606 689 596 689 q 692 707 658 689 q 742 755 725 725 q 758 818 758 785 q 750 873 758 846 q 728 921 742 900 l 703 910 q 722 867 714 890 q 731 817 731 844 q 700 747 731 778 q 604 715 669 715 q 540 717 567 715 q 488 721 514 719 q 424 722 463 722 q 245 676 324 722 q 121 548 167 629 q 75 360 75 467 q 121 172 75 254 q 245 42 167 89 q 424 -4 324 -4 m 424 22 q 260 65 332 22 q 145 185 188 108 q 103 360 103 261 q 145 535 103 460 q 260 653 188 611 q 424 696 332 696 q 588 653 515 696 q 703 535 661 611 q 744 360 744 460 q 703 185 744 261 q 588 65 661 108 q 424 22 515 22 m 444 843 l 486 843 l 292 996 l 236 996 l 444 843 "},"ở":{"ha":847,"x_min":75,"x_max":772,"o":"m 424 -4 q 603 42 524 -4 q 727 172 682 89 q 772 360 772 254 q 708 577 772 486 q 542 703 644 668 l 554 692 q 585 690 574 690 q 606 689 596 689 q 692 707 658 689 q 742 755 725 725 q 758 818 758 785 q 750 873 758 846 q 728 921 742 900 l 703 910 q 722 867 714 890 q 731 817 731 844 q 700 747 731 778 q 604 715 669 715 q 540 717 567 715 q 488 721 514 719 q 424 722 463 722 q 245 676 324 722 q 121 548 167 629 q 75 360 75 467 q 121 172 75 254 q 245 42 167 89 q 424 -4 324 -4 m 424 22 q 260 65 332 22 q 145 185 188 108 q 103 360 103 261 q 145 535 103 460 q 260 653 188 611 q 424 696 332 696 q 588 653 515 696 q 703 535 661 611 q 744 360 744 460 q 703 185 744 261 q 588 65 661 108 q 424 22 515 22 m 426 838 q 503 894 479 863 q 528 968 528 926 q 498 1041 528 1014 q 418 1068 468 1068 q 368 1060 394 1068 q 322 1039 342 1053 l 333 1015 q 419 1042 374 1042 q 478 1020 456 1042 q 500 967 500 999 q 478 906 500 932 q 413 860 456 879 l 426 838 "},"ỡ":{"ha":853,"x_min":75,"x_max":772,"o":"m 517 860 q 589 892 561 860 q 618 976 617 925 l 592 976 q 570 911 590 936 q 517 886 550 886 q 474 901 493 886 q 435 934 454 915 q 394 967 417 953 q 342 982 371 982 q 270 949 297 982 q 240 863 243 917 l 267 863 q 289 931 269 906 q 342 956 308 956 q 385 941 365 956 q 423 908 404 926 q 465 874 442 889 q 517 860 488 860 m 424 -4 q 603 42 524 -4 q 727 172 682 89 q 772 360 772 254 q 708 577 772 486 q 542 703 644 668 l 554 692 q 585 690 574 690 q 606 689 596 689 q 692 707 658 689 q 742 755 725 725 q 758 818 758 785 q 750 873 758 846 q 728 921 742 900 l 703 910 q 722 867 714 890 q 731 817 731 844 q 700 747 731 778 q 604 715 669 715 q 540 717 567 715 q 488 721 514 719 q 424 722 463 722 q 245 676 324 722 q 121 548 167 629 q 75 360 75 467 q 121 172 75 254 q 245 42 167 89 q 424 -4 324 -4 m 424 22 q 260 65 332 22 q 145 185 188 108 q 103 360 103 261 q 145 535 103 460 q 260 653 188 611 q 424 696 332 696 q 588 653 515 696 q 703 535 661 611 q 744 360 744 460 q 703 185 744 261 q 588 65 661 108 q 424 22 515 22 "},"ő":{"ha":847,"x_min":75,"x_max":772,"o":"m 424 -4 q 603 42 524 -4 q 727 172 682 89 q 772 360 772 254 q 727 548 772 467 q 603 676 682 629 q 424 722 524 722 q 245 676 324 722 q 121 548 167 629 q 75 360 75 467 q 121 172 75 254 q 245 42 167 89 q 424 -4 324 -4 m 424 22 q 260 65 332 22 q 145 185 188 108 q 103 360 103 261 q 145 535 103 460 q 260 653 188 611 q 424 696 332 696 q 588 653 515 696 q 703 535 661 611 q 744 360 744 460 q 703 185 744 261 q 588 65 661 108 q 424 22 515 22 m 501 843 l 539 843 l 703 996 l 656 996 l 501 843 m 308 843 l 346 843 l 510 996 l 463 996 l 308 843 "},"ȏ":{"ha":847,"x_min":75,"x_max":772,"o":"m 424 -4 q 603 42 524 -4 q 727 172 682 89 q 772 360 772 254 q 727 548 772 467 q 603 676 682 629 q 424 722 524 722 q 245 676 324 722 q 121 548 167 629 q 75 360 75 467 q 121 172 75 254 q 245 42 167 89 q 424 -4 324 -4 m 424 22 q 260 65 332 22 q 145 185 188 108 q 103 360 103 261 q 145 535 103 460 q 260 653 188 611 q 424 696 332 696 q 588 653 515 696 q 703 535 661 611 q 744 360 744 460 q 703 185 744 261 q 588 65 661 108 q 424 22 515 22 m 240 843 l 267 843 q 315 939 269 904 q 424 974 360 974 q 534 939 489 974 q 581 843 579 904 l 607 843 q 552 958 606 917 q 424 1000 499 1000 q 296 958 349 1000 q 240 843 243 917 "},"ō":{"ha":847,"x_min":75,"x_max":772,"o":"m 424 -4 q 603 42 524 -4 q 727 172 682 89 q 772 360 772 254 q 727 548 772 467 q 603 676 682 629 q 424 722 524 722 q 245 676 324 722 q 121 548 167 629 q 75 360 75 467 q 121 172 75 254 q 245 42 167 89 q 424 -4 324 -4 m 424 22 q 260 65 332 22 q 145 185 188 108 q 103 360 103 261 q 145 535 103 460 q 260 653 188 611 q 424 696 332 696 q 588 653 515 696 q 703 535 661 611 q 744 360 744 460 q 703 185 744 261 q 588 65 661 108 q 424 22 515 22 m 235 906 l 613 906 l 613 933 l 235 933 l 235 906 "},"ṓ":{"ha":847,"x_min":75,"x_max":772,"o":"m 424 -4 q 603 42 524 -4 q 727 172 682 89 q 772 360 772 254 q 727 548 772 467 q 603 676 682 629 q 424 722 524 722 q 245 676 324 722 q 121 548 167 629 q 75 360 75 467 q 121 172 75 254 q 245 42 167 89 q 424 -4 324 -4 m 424 22 q 260 65 332 22 q 145 185 188 108 q 103 360 103 261 q 145 535 103 460 q 260 653 188 611 q 424 696 332 696 q 588 653 515 696 q 703 535 661 611 q 744 360 744 460 q 703 185 744 261 q 588 65 661 108 q 424 22 515 22 "},"ṑ":{"ha":847,"x_min":75,"x_max":772,"o":"m 424 -4 q 603 42 524 -4 q 727 172 682 89 q 772 360 772 254 q 727 548 772 467 q 603 676 682 629 q 424 722 524 722 q 245 676 324 722 q 121 548 167 629 q 75 360 75 467 q 121 172 75 254 q 245 42 167 89 q 424 -4 324 -4 m 424 22 q 260 65 332 22 q 145 185 188 108 q 103 360 103 261 q 145 535 103 460 q 260 653 188 611 q 424 696 332 696 q 588 653 515 696 q 703 535 661 611 q 744 360 744 460 q 703 185 744 261 q 588 65 661 108 q 424 22 515 22 "},"ǫ":{"ha":847,"x_min":75,"x_max":772,"o":"m 464 -296 q 519 -287 493 -296 q 567 -258 544 -278 l 551 -237 q 512 -261 535 -253 q 465 -269 489 -269 q 394 -247 422 -269 q 365 -181 365 -225 q 378 -122 365 -153 q 436 -53 392 -90 q 572 26 481 -17 q 719 157 665 71 q 772 360 772 243 q 727 548 772 467 q 603 676 682 629 q 424 722 524 722 q 245 676 324 722 q 121 548 167 629 q 75 360 75 467 q 121 172 75 254 q 245 42 167 89 q 424 -4 324 -4 q 460 -3 442 -4 q 504 3 478 -1 l 519 22 q 404 -49 443 -12 q 351 -118 365 -85 q 338 -181 338 -151 q 374 -265 338 -235 q 464 -296 410 -296 m 424 22 q 260 65 332 22 q 145 185 188 108 q 103 360 103 261 q 145 535 103 460 q 260 653 188 611 q 424 696 332 696 q 588 653 515 696 q 703 535 661 611 q 744 360 744 460 q 703 185 744 261 q 588 65 661 108 q 424 22 515 22 "},"ø":{"ha":847,"x_min":75,"x_max":772,"o":"m 424 -4 q 603 42 524 -4 q 727 172 682 89 q 772 360 772 254 q 727 548 772 467 q 603 676 682 629 q 424 722 524 722 q 245 676 324 722 q 121 548 167 629 q 75 360 75 467 q 121 172 75 254 q 245 42 167 89 q 424 -4 324 -4 m 424 22 q 260 65 332 22 q 145 185 188 108 q 103 360 103 261 q 145 535 103 460 q 260 653 188 611 q 424 696 332 696 q 588 653 515 696 q 703 535 661 611 q 744 360 744 460 q 703 185 744 261 q 588 65 661 108 q 424 22 515 22 m 97 -97 l 129 -97 l 749 815 l 717 815 l 97 -97 "},"ǿ":{"ha":847,"x_min":75,"x_max":772,"o":"m 424 -4 q 603 42 524 -4 q 727 172 682 89 q 772 360 772 254 q 727 548 772 467 q 603 676 682 629 q 424 722 524 722 q 245 676 324 722 q 121 548 167 629 q 75 360 75 467 q 121 172 75 254 q 245 42 167 89 q 424 -4 324 -4 m 424 22 q 260 65 332 22 q 145 185 188 108 q 103 360 103 261 q 145 535 103 460 q 260 653 188 611 q 424 696 332 696 q 588 653 515 696 q 703 535 661 611 q 744 360 744 460 q 703 185 744 261 q 588 65 661 108 q 424 22 515 22 m 97 -97 l 129 -97 l 749 815 l 717 815 l 97 -97 m 361 843 l 403 843 l 611 996 l 556 996 l 361 843 "},"õ":{"ha":847,"x_min":75,"x_max":772,"o":"m 424 -4 q 603 42 524 -4 q 727 172 682 89 q 772 360 772 254 q 727 548 772 467 q 603 676 682 629 q 424 722 524 722 q 245 676 324 722 q 121 548 167 629 q 75 360 75 467 q 121 172 75 254 q 245 42 167 89 q 424 -4 324 -4 m 424 22 q 260 65 332 22 q 145 185 188 108 q 103 360 103 261 q 145 535 103 460 q 260 653 188 611 q 424 696 332 696 q 588 653 515 696 q 703 535 661 611 q 744 360 744 460 q 703 185 744 261 q 588 65 661 108 q 424 22 515 22 m 511 860 q 583 892 556 860 q 613 976 611 925 l 586 976 q 565 911 585 936 q 511 886 544 886 q 468 901 488 886 q 430 934 449 915 q 388 967 411 953 q 336 982 365 982 q 265 949 292 982 q 235 863 238 917 l 261 863 q 283 931 264 906 q 336 956 303 956 q 379 941 360 956 q 417 908 399 926 q 459 874 436 889 q 511 860 482 860 "},"ṍ":{"ha":847,"x_min":75,"x_max":772,"o":"m 424 -4 q 603 42 524 -4 q 727 172 682 89 q 772 360 772 254 q 727 548 772 467 q 603 676 682 629 q 424 722 524 722 q 245 676 324 722 q 121 548 167 629 q 75 360 75 467 q 121 172 75 254 q 245 42 167 89 q 424 -4 324 -4 m 424 22 q 260 65 332 22 q 145 185 188 108 q 103 360 103 261 q 145 535 103 460 q 260 653 188 611 q 424 696 332 696 q 588 653 515 696 q 703 535 661 611 q 744 360 744 460 q 703 185 744 261 q 588 65 661 108 q 424 22 515 22 "},"ṏ":{"ha":847,"x_min":75,"x_max":772,"o":"m 424 -4 q 603 42 524 -4 q 727 172 682 89 q 772 360 772 254 q 727 548 772 467 q 603 676 682 629 q 424 722 524 722 q 245 676 324 722 q 121 548 167 629 q 75 360 75 467 q 121 172 75 254 q 245 42 167 89 q 424 -4 324 -4 m 424 22 q 260 65 332 22 q 145 185 188 108 q 103 360 103 261 q 145 535 103 460 q 260 653 188 611 q 424 696 332 696 q 588 653 515 696 q 703 535 661 611 q 744 360 744 460 q 703 185 744 261 q 588 65 661 108 q 424 22 515 22 "},"ȭ":{"ha":847,"x_min":75,"x_max":772,"o":"m 424 -4 q 603 42 524 -4 q 727 172 682 89 q 772 360 772 254 q 727 548 772 467 q 603 676 682 629 q 424 722 524 722 q 245 676 324 722 q 121 548 167 629 q 75 360 75 467 q 121 172 75 254 q 245 42 167 89 q 424 -4 324 -4 m 424 22 q 260 65 332 22 q 145 185 188 108 q 103 360 103 261 q 145 535 103 460 q 260 653 188 611 q 424 696 332 696 q 588 653 515 696 q 703 535 661 611 q 744 360 744 460 q 703 185 744 261 q 588 65 661 108 q 424 22 515 22 "},"œ":{"ha":1486,"x_min":75,"x_max":1411,"o":"m 424 -4 q 601 42 524 -4 q 724 172 679 89 q 769 360 769 254 q 724 548 769 467 q 601 676 679 629 q 424 722 524 722 q 245 676 324 722 q 121 548 167 629 q 75 360 75 467 q 121 172 75 254 q 245 42 167 89 q 424 -4 324 -4 m 424 22 q 260 65 332 22 q 145 185 188 108 q 103 360 103 261 q 145 535 103 460 q 260 653 188 611 q 424 696 332 696 q 588 653 515 696 q 703 535 661 611 q 744 360 744 460 q 703 185 744 261 q 588 65 661 108 q 424 22 515 22 m 1104 -4 q 1251 26 1182 -4 q 1368 114 1321 56 l 1349 133 q 1241 50 1306 78 q 1104 22 1176 22 q 934 65 1010 22 q 815 185 858 108 q 772 360 772 261 l 772 365 q 812 535 772 460 q 921 653 851 610 q 1078 696 990 696 q 1235 653 1167 696 q 1344 535 1304 610 q 1385 365 1385 460 l 1396 386 l 761 386 l 761 360 l 1411 360 q 1411 364 1411 363 q 1411 367 1411 365 q 1367 551 1411 471 q 1248 677 1324 632 q 1078 722 1172 722 q 908 676 983 722 q 790 548 833 629 q 747 360 747 467 q 793 172 747 254 q 920 42 839 89 q 1104 -4 1001 -4 "},"p":{"ha":932,"x_min":160,"x_max":857,"o":"m 508 -4 q 686 42 607 -4 q 811 171 765 89 q 857 358 857 253 q 811 547 857 465 q 686 676 765 629 q 508 722 607 722 q 332 676 410 722 q 209 547 254 629 q 164 358 164 465 q 209 171 164 253 q 332 42 254 89 q 508 -4 410 -4 m 160 -269 l 188 -269 l 188 260 l 174 357 l 188 454 l 188 718 l 160 718 l 160 -269 m 508 22 q 344 65 417 22 q 229 183 271 107 q 188 358 188 260 q 229 534 188 458 q 344 653 271 610 q 508 696 417 696 q 673 653 600 696 q 788 534 746 610 q 829 358 829 458 q 788 183 829 260 q 673 65 746 107 q 508 22 600 22 "},"þ":{"ha":932,"x_min":160,"x_max":857,"o":"m 508 -4 q 686 42 607 -4 q 811 171 765 89 q 857 358 857 253 q 811 547 857 465 q 686 676 765 629 q 508 722 607 722 q 332 676 410 722 q 209 547 254 629 q 164 358 164 465 q 209 171 164 253 q 332 42 254 89 q 508 -4 410 -4 m 160 -269 l 188 -269 l 188 260 l 174 357 l 188 454 l 188 1031 l 160 1031 l 160 -269 m 508 22 q 344 65 417 22 q 229 183 271 107 q 188 358 188 260 q 229 534 188 458 q 344 653 271 610 q 508 696 417 696 q 673 653 600 696 q 788 534 746 610 q 829 358 829 458 q 788 183 829 260 q 673 65 746 107 q 508 22 600 22 "},"q":{"ha":932,"x_min":75,"x_max":772,"o":"m 424 -4 q 600 42 522 -4 q 723 171 678 89 q 768 358 768 253 q 723 547 768 465 q 600 676 678 629 q 424 722 522 722 q 246 676 325 722 q 121 547 167 629 q 75 358 75 465 q 121 171 75 253 q 246 42 167 89 q 424 -4 325 -4 m 424 22 q 260 65 332 22 q 145 183 188 107 q 103 358 103 260 q 145 534 103 458 q 260 653 188 610 q 424 696 332 696 q 588 653 515 696 q 703 534 661 610 q 744 358 744 458 q 703 183 744 260 q 588 65 661 107 q 424 22 515 22 m 744 -269 l 772 -269 l 772 718 l 744 718 l 744 454 l 758 357 l 744 260 l 744 -269 "},"r":{"ha":532,"x_min":160,"x_max":469,"o":"m 160 0 l 188 0 l 188 386 q 260 612 188 529 q 461 694 332 694 q 466 694 464 694 q 469 694 468 694 l 469 722 q 287 670 360 722 q 185 524 214 618 l 188 519 l 188 718 l 160 718 l 160 0 "},"ŕ":{"ha":532,"x_min":160,"x_max":503,"o":"m 160 0 l 188 0 l 188 386 q 260 612 188 529 q 461 694 332 694 q 466 694 464 694 q 469 694 468 694 l 469 722 q 287 670 360 722 q 185 524 214 618 l 188 519 l 188 718 l 160 718 l 160 0 m 253 843 l 294 843 l 503 996 l 447 996 l 253 843 "},"ř":{"ha":532,"x_min":124,"x_max":507,"o":"m 160 0 l 188 0 l 188 386 q 260 612 188 529 q 461 694 332 694 q 466 694 464 694 q 469 694 468 694 l 469 722 q 287 670 360 722 q 185 524 214 618 l 188 519 l 188 718 l 160 718 l 160 0 m 293 843 l 338 843 l 507 996 l 469 996 l 311 863 l 319 863 l 161 996 l 124 996 l 293 843 "},"ŗ":{"ha":532,"x_min":138,"x_max":469,"o":"m 160 0 l 188 0 l 188 386 q 260 612 188 529 q 461 694 332 694 q 466 694 464 694 q 469 694 468 694 l 469 722 q 287 670 360 722 q 185 524 214 618 l 188 519 l 188 718 l 160 718 l 160 0 m 144 -360 l 169 -360 l 201 -253 q 207 -231 204 -242 q 210 -208 210 -219 q 200 -184 210 -196 q 174 -172 190 -172 q 148 -183 158 -172 q 138 -208 138 -193 q 149 -233 138 -222 q 174 -244 160 -244 l 172 -229 l 144 -360 "},"ȑ":{"ha":532,"x_min":36,"x_max":469,"o":"m 160 0 l 188 0 l 188 386 q 260 612 188 529 q 461 694 332 694 q 466 694 464 694 q 469 694 468 694 l 469 722 q 287 670 360 722 q 185 524 214 618 l 188 519 l 188 718 l 160 718 l 160 0 m 393 843 l 431 843 l 276 996 l 229 996 l 393 843 m 200 843 l 238 843 l 83 996 l 36 996 l 200 843 "},"ṛ":{"ha":532,"x_min":138,"x_max":469,"o":"m 160 0 l 188 0 l 188 386 q 260 612 188 529 q 461 694 332 694 q 466 694 464 694 q 469 694 468 694 l 469 722 q 287 670 360 722 q 185 524 214 618 l 188 519 l 188 718 l 160 718 l 160 0 m 174 -244 q 199 -233 189 -244 q 210 -208 210 -222 q 199 -183 210 -193 q 174 -172 189 -172 q 149 -183 160 -172 q 138 -208 138 -193 q 149 -233 138 -222 q 174 -244 160 -244 "},"ȓ":{"ha":532,"x_min":132,"x_max":499,"o":"m 160 0 l 188 0 l 188 386 q 260 612 188 529 q 461 694 332 694 q 466 694 464 694 q 469 694 468 694 l 469 722 q 287 670 360 722 q 185 524 214 618 l 188 519 l 188 718 l 160 718 l 160 0 m 132 843 l 158 843 q 206 939 161 904 q 315 974 251 974 q 426 939 381 974 q 472 843 471 904 l 499 843 q 444 958 497 917 q 315 1000 390 1000 q 188 958 240 1000 q 132 843 135 917 "},"ṟ":{"ha":532,"x_min":-15,"x_max":469,"o":"m 160 0 l 188 0 l 188 386 q 260 612 188 529 q 461 694 332 694 q 466 694 464 694 q 469 694 468 694 l 469 722 q 287 670 360 722 q 185 524 214 618 l 188 519 l 188 718 l 160 718 l 160 0 m -15 -222 l 363 -222 l 363 -194 l -15 -194 l -15 -222 "},"s":{"ha":643,"x_min":44,"x_max":592,"o":"m 325 -4 q 474 19 415 -4 q 563 85 533 43 q 592 182 592 128 q 565 274 592 240 q 495 328 539 308 q 399 358 451 347 q 294 379 347 369 q 198 406 242 389 q 128 453 154 422 q 101 538 101 485 q 155 650 101 604 q 326 696 208 696 q 446 678 388 696 q 547 626 504 661 l 564 649 q 458 702 524 682 q 326 722 393 722 q 181 696 238 722 q 99 628 125 669 q 72 538 72 586 q 99 442 72 478 q 169 387 125 407 q 265 356 213 367 q 371 335 318 344 q 467 309 424 325 q 538 263 511 293 q 564 182 564 233 q 508 67 564 111 q 325 22 453 22 q 169 51 239 22 q 61 117 100 79 l 44 94 q 161 24 85 51 q 325 -4 238 -4 "},"ś":{"ha":643,"x_min":44,"x_max":592,"o":"m 325 -4 q 474 19 415 -4 q 563 85 533 43 q 592 182 592 128 q 565 274 592 240 q 495 328 539 308 q 399 358 451 347 q 294 379 347 369 q 198 406 242 389 q 128 453 154 422 q 101 538 101 485 q 155 650 101 604 q 326 696 208 696 q 446 678 388 696 q 547 626 504 661 l 564 649 q 458 702 524 682 q 326 722 393 722 q 181 696 238 722 q 99 628 125 669 q 72 538 72 586 q 99 442 72 478 q 169 387 125 407 q 265 356 213 367 q 371 335 318 344 q 467 309 424 325 q 538 263 511 293 q 564 182 564 233 q 508 67 564 111 q 325 22 453 22 q 169 51 239 22 q 61 117 100 79 l 44 94 q 161 24 85 51 q 325 -4 238 -4 m 260 843 l 301 843 l 510 996 l 454 996 l 260 843 "},"ṥ":{"ha":643,"x_min":44,"x_max":592,"o":"m 325 -4 q 474 19 415 -4 q 563 85 533 43 q 592 182 592 128 q 565 274 592 240 q 495 328 539 308 q 399 358 451 347 q 294 379 347 369 q 198 406 242 389 q 128 453 154 422 q 101 538 101 485 q 155 650 101 604 q 326 696 208 696 q 446 678 388 696 q 547 626 504 661 l 564 649 q 458 702 524 682 q 326 722 393 722 q 181 696 238 722 q 99 628 125 669 q 72 538 72 586 q 99 442 72 478 q 169 387 125 407 q 265 356 213 367 q 371 335 318 344 q 467 309 424 325 q 538 263 511 293 q 564 182 564 233 q 508 67 564 111 q 325 22 453 22 q 169 51 239 22 q 61 117 100 79 l 44 94 q 161 24 85 51 q 325 -4 238 -4 "},"ꞌ":{"ha":290,"x_min":131,"x_max":160,"o":"m 131 414 l 158 414 l 160 879 l 132 879 l 131 414 "},"š":{"ha":643,"x_min":44,"x_max":592,"o":"m 325 -4 q 474 19 415 -4 q 563 85 533 43 q 592 182 592 128 q 565 274 592 240 q 495 328 539 308 q 399 358 451 347 q 294 379 347 369 q 198 406 242 389 q 128 453 154 422 q 101 538 101 485 q 155 650 101 604 q 326 696 208 696 q 446 678 388 696 q 547 626 504 661 l 564 649 q 458 702 524 682 q 326 722 393 722 q 181 696 238 722 q 99 628 125 669 q 72 538 72 586 q 99 442 72 478 q 169 387 125 407 q 265 356 213 367 q 371 335 318 344 q 467 309 424 325 q 538 263 511 293 q 564 182 564 233 q 508 67 564 111 q 325 22 453 22 q 169 51 239 22 q 61 117 100 79 l 44 94 q 161 24 85 51 q 325 -4 238 -4 m 300 843 l 344 843 l 514 996 l 476 996 l 318 863 l 326 863 l 168 996 l 131 996 l 300 843 "},"ṧ":{"ha":643,"x_min":44,"x_max":592,"o":"m 325 -4 q 474 19 415 -4 q 563 85 533 43 q 592 182 592 128 q 565 274 592 240 q 495 328 539 308 q 399 358 451 347 q 294 379 347 369 q 198 406 242 389 q 128 453 154 422 q 101 538 101 485 q 155 650 101 604 q 326 696 208 696 q 446 678 388 696 q 547 626 504 661 l 564 649 q 458 702 524 682 q 326 722 393 722 q 181 696 238 722 q 99 628 125 669 q 72 538 72 586 q 99 442 72 478 q 169 387 125 407 q 265 356 213 367 q 371 335 318 344 q 467 309 424 325 q 538 263 511 293 q 564 182 564 233 q 508 67 564 111 q 325 22 453 22 q 169 51 239 22 q 61 117 100 79 l 44 94 q 161 24 85 51 q 325 -4 238 -4 "},"ş":{"ha":643,"x_min":44,"x_max":592,"o":"m 325 -4 q 474 19 415 -4 q 563 85 533 43 q 592 182 592 128 q 565 274 592 240 q 495 328 539 308 q 399 358 451 347 q 294 379 347 369 q 198 406 242 389 q 128 453 154 422 q 101 538 101 485 q 155 650 101 604 q 326 696 208 696 q 446 678 388 696 q 547 626 504 661 l 564 649 q 458 702 524 682 q 326 722 393 722 q 181 696 238 722 q 99 628 125 669 q 72 538 72 586 q 99 442 72 478 q 169 387 125 407 q 265 356 213 367 q 371 335 318 344 q 467 309 424 325 q 538 263 511 293 q 564 182 564 233 q 508 67 564 111 q 325 22 453 22 q 169 51 239 22 q 61 117 100 79 l 44 94 q 161 24 85 51 q 325 -4 238 -4 m 300 -296 q 390 -266 354 -296 q 426 -186 426 -236 q 395 -110 426 -139 q 311 -78 364 -81 l 335 7 l 308 7 l 278 -103 l 300 -103 q 373 -126 347 -103 q 399 -186 399 -150 q 370 -248 399 -226 q 299 -269 342 -269 q 252 -261 275 -269 q 213 -237 229 -253 l 197 -258 q 246 -287 221 -278 q 300 -296 271 -296 "},"ŝ":{"ha":643,"x_min":44,"x_max":592,"o":"m 325 -4 q 474 19 415 -4 q 563 85 533 43 q 592 182 592 128 q 565 274 592 240 q 495 328 539 308 q 399 358 451 347 q 294 379 347 369 q 198 406 242 389 q 128 453 154 422 q 101 538 101 485 q 155 650 101 604 q 326 696 208 696 q 446 678 388 696 q 547 626 504 661 l 564 649 q 458 702 524 682 q 326 722 393 722 q 181 696 238 722 q 99 628 125 669 q 72 538 72 586 q 99 442 72 478 q 169 387 125 407 q 265 356 213 367 q 371 335 318 344 q 467 309 424 325 q 538 263 511 293 q 564 182 564 233 q 508 67 564 111 q 325 22 453 22 q 169 51 239 22 q 61 117 100 79 l 44 94 q 161 24 85 51 q 325 -4 238 -4 m 131 843 l 168 843 l 326 976 l 318 976 l 476 843 l 514 843 l 344 996 l 300 996 l 131 843 "},"ș":{"ha":643,"x_min":44,"x_max":592,"o":"m 325 -4 q 474 19 415 -4 q 563 85 533 43 q 592 182 592 128 q 565 274 592 240 q 495 328 539 308 q 399 358 451 347 q 294 379 347 369 q 198 406 242 389 q 128 453 154 422 q 101 538 101 485 q 155 650 101 604 q 326 696 208 696 q 446 678 388 696 q 547 626 504 661 l 564 649 q 458 702 524 682 q 326 722 393 722 q 181 696 238 722 q 99 628 125 669 q 72 538 72 586 q 99 442 72 478 q 169 387 125 407 q 265 356 213 367 q 371 335 318 344 q 467 309 424 325 q 538 263 511 293 q 564 182 564 233 q 508 67 564 111 q 325 22 453 22 q 169 51 239 22 q 61 117 100 79 l 44 94 q 161 24 85 51 q 325 -4 238 -4 m 293 -360 l 318 -360 l 350 -253 q 356 -231 353 -242 q 358 -208 358 -219 q 349 -184 358 -196 q 322 -172 339 -172 q 297 -183 307 -172 q 286 -208 286 -193 q 297 -233 286 -222 q 322 -244 308 -244 l 321 -229 l 293 -360 "},"ṡ":{"ha":643,"x_min":44,"x_max":592,"o":"m 325 -4 q 474 19 415 -4 q 563 85 533 43 q 592 182 592 128 q 565 274 592 240 q 495 328 539 308 q 399 358 451 347 q 294 379 347 369 q 198 406 242 389 q 128 453 154 422 q 101 538 101 485 q 155 650 101 604 q 326 696 208 696 q 446 678 388 696 q 547 626 504 661 l 564 649 q 458 702 524 682 q 326 722 393 722 q 181 696 238 722 q 99 628 125 669 q 72 538 72 586 q 99 442 72 478 q 169 387 125 407 q 265 356 213 367 q 371 335 318 344 q 467 309 424 325 q 538 263 511 293 q 564 182 564 233 q 508 67 564 111 q 325 22 453 22 q 169 51 239 22 q 61 117 100 79 l 44 94 q 161 24 85 51 q 325 -4 238 -4 m 322 890 q 348 901 338 890 q 358 926 358 913 q 348 952 358 942 q 322 963 338 963 q 297 952 308 963 q 286 926 286 942 q 297 901 286 913 q 322 890 308 890 "},"ṣ":{"ha":643,"x_min":44,"x_max":592,"o":"m 325 -4 q 474 19 415 -4 q 563 85 533 43 q 592 182 592 128 q 565 274 592 240 q 495 328 539 308 q 399 358 451 347 q 294 379 347 369 q 198 406 242 389 q 128 453 154 422 q 101 538 101 485 q 155 650 101 604 q 326 696 208 696 q 446 678 388 696 q 547 626 504 661 l 564 649 q 458 702 524 682 q 326 722 393 722 q 181 696 238 722 q 99 628 125 669 q 72 538 72 586 q 99 442 72 478 q 169 387 125 407 q 265 356 213 367 q 371 335 318 344 q 467 309 424 325 q 538 263 511 293 q 564 182 564 233 q 508 67 564 111 q 325 22 453 22 q 169 51 239 22 q 61 117 100 79 l 44 94 q 161 24 85 51 q 325 -4 238 -4 m 322 -244 q 348 -233 338 -244 q 358 -208 358 -222 q 348 -183 358 -193 q 322 -172 338 -172 q 297 -183 308 -172 q 286 -208 286 -193 q 297 -233 286 -222 q 322 -244 308 -244 "},"ṩ":{"ha":643,"x_min":44,"x_max":592,"o":"m 325 -4 q 474 19 415 -4 q 563 85 533 43 q 592 182 592 128 q 565 274 592 240 q 495 328 539 308 q 399 358 451 347 q 294 379 347 369 q 198 406 242 389 q 128 453 154 422 q 101 538 101 485 q 155 650 101 604 q 326 696 208 696 q 446 678 388 696 q 547 626 504 661 l 564 649 q 458 702 524 682 q 326 722 393 722 q 181 696 238 722 q 99 628 125 669 q 72 538 72 586 q 99 442 72 478 q 169 387 125 407 q 265 356 213 367 q 371 335 318 344 q 467 309 424 325 q 538 263 511 293 q 564 182 564 233 q 508 67 564 111 q 325 22 453 22 q 169 51 239 22 q 61 117 100 79 l 44 94 q 161 24 85 51 q 325 -4 238 -4 m 322 -244 q 348 -233 338 -244 q 358 -208 358 -222 q 348 -183 358 -193 q 322 -172 338 -172 q 297 -183 308 -172 q 286 -208 286 -193 q 297 -233 286 -222 q 322 -244 308 -244 m 322 890 q 348 901 338 890 q 358 926 358 913 q 348 952 358 942 q 322 963 338 963 q 297 952 308 963 q 286 926 286 942 q 297 901 286 913 q 322 890 308 890 "},"ß":{"ha":906,"x_min":160,"x_max":831,"o":"m 514 -4 q 674 29 603 -4 q 788 124 746 63 q 831 269 831 185 q 790 416 831 356 q 678 508 750 476 q 510 540 606 540 l 475 525 q 577 543 528 525 q 666 595 626 561 q 728 678 706 629 q 751 789 751 726 q 717 915 751 860 q 618 1003 682 971 q 465 1035 554 1035 q 306 997 375 1035 q 199 887 238 960 q 160 706 160 814 l 160 0 l 188 0 l 188 704 q 265 933 188 857 q 467 1008 342 1008 q 656 947 588 1008 q 724 789 724 885 q 647 608 724 675 q 432 542 569 542 l 432 515 l 515 515 q 722 451 642 515 q 803 269 803 388 q 765 136 803 192 q 661 51 726 81 q 514 22 596 22 q 441 28 475 22 q 375 43 407 33 l 367 17 q 437 1 399 7 q 514 -4 475 -4 "},"ſ":{"ha":379,"x_min":47,"x_max":500,"o":"m 186 0 l 214 0 l 214 851 q 251 968 214 928 q 361 1008 289 1008 q 427 997 396 1008 q 481 964 458 986 l 500 983 q 437 1022 475 1010 q 360 1035 399 1035 q 231 986 276 1035 q 186 858 186 938 l 186 0 m 47 692 l 207 692 l 207 718 l 47 718 l 47 692 "},"t":{"ha":539,"x_min":32,"x_max":485,"o":"m 344 -4 q 422 8 383 -4 q 485 47 460 21 l 465 67 q 346 22 418 22 q 236 63 274 22 q 199 179 199 103 l 199 875 l 171 875 l 171 172 q 215 44 171 93 q 344 -4 260 -4 m 32 692 l 442 692 l 442 718 l 32 718 l 32 692 "},"ŧ":{"ha":553,"x_min":39,"x_max":492,"o":"m 351 -4 q 428 8 390 -4 q 492 47 467 21 l 472 67 q 353 22 425 22 q 243 63 281 22 q 206 179 206 103 l 206 875 l 178 875 l 178 172 q 222 44 178 93 q 351 -4 267 -4 m 39 692 l 449 692 l 449 718 l 39 718 l 39 692 m 54 414 l 435 414 l 435 440 l 54 440 l 54 414 "},"ť":{"ha":539,"x_min":32,"x_max":485,"o":"m 344 -4 q 422 8 383 -4 q 485 47 460 21 l 465 67 q 346 22 418 22 q 236 63 274 22 q 199 179 199 103 l 199 875 l 171 875 l 171 172 q 215 44 171 93 q 344 -4 260 -4 m 32 692 l 442 692 l 442 718 l 32 718 l 32 692 m 344 836 l 365 836 l 372 1058 l 344 1058 l 344 836 "},"ţ":{"ha":539,"x_min":32,"x_max":485,"o":"m 344 -4 q 422 8 383 -4 q 485 47 460 21 l 465 67 q 346 22 418 22 q 236 63 274 22 q 199 179 199 103 l 199 875 l 171 875 l 171 172 q 215 44 171 93 q 344 -4 260 -4 m 32 692 l 442 692 l 442 718 l 32 718 l 32 692 m 313 -296 q 403 -266 367 -296 q 439 -186 439 -236 q 408 -110 439 -139 q 324 -78 376 -81 l 347 7 l 321 7 l 290 -103 l 313 -103 q 385 -126 360 -103 q 411 -186 411 -150 q 383 -248 411 -226 q 311 -269 354 -269 q 265 -261 288 -269 q 225 -237 242 -253 l 210 -258 q 258 -287 233 -278 q 313 -296 283 -296 "},"ț":{"ha":539,"x_min":32,"x_max":485,"o":"m 344 -4 q 422 8 383 -4 q 485 47 460 21 l 465 67 q 346 22 418 22 q 236 63 274 22 q 199 179 199 103 l 199 875 l 171 875 l 171 172 q 215 44 171 93 q 344 -4 260 -4 m 32 692 l 442 692 l 442 718 l 32 718 l 32 692 m 306 -360 l 331 -360 l 363 -253 q 368 -231 365 -242 q 371 -208 371 -219 q 361 -184 371 -196 q 335 -172 351 -172 q 309 -183 319 -172 q 299 -208 299 -193 q 310 -233 299 -222 q 335 -244 321 -244 l 333 -229 l 306 -360 "},"ẗ":{"ha":539,"x_min":32,"x_max":485,"o":"m 344 -4 q 422 8 383 -4 q 485 47 460 21 l 465 67 q 346 22 418 22 q 236 63 274 22 q 199 179 199 103 l 199 875 l 171 875 l 171 172 q 215 44 171 93 q 344 -4 260 -4 m 32 692 l 442 692 l 442 718 l 32 718 l 32 692 m 299 1047 q 324 1058 314 1047 q 335 1083 335 1069 q 324 1109 335 1099 q 299 1119 314 1119 q 274 1109 285 1119 q 263 1083 263 1099 q 274 1058 263 1069 q 299 1047 285 1047 m 71 1047 q 97 1058 86 1047 q 107 1083 107 1069 q 97 1109 107 1099 q 71 1119 86 1119 q 46 1109 57 1119 q 35 1083 35 1099 q 46 1058 35 1069 q 71 1047 57 1047 "}}}
